<?xml version="1.0" encoding="utf-8"?>
<!-- Generator: Adobe Illustrator 16.0.0, SVG Export Plug-In . SVG Version: 6.00 Build 0)  -->
<!DOCTYPE svg PUBLIC "-//W3C//DTD SVG 1.1//EN" "http://www.w3.org/Graphics/SVG/1.1/DTD/svg11.dtd">
<svg version="1.1" id="Layer_1" xmlns="http://www.w3.org/2000/svg" xmlns:xlink="http://www.w3.org/1999/xlink" x="0px" y="0px"
	 width="283px" height="18px" viewBox="0 0 283 18" enable-background="new 0 0 283 18" xml:space="preserve">
<rect x="5.091" y="9.818" fill="#009640" width="272.645" height="2.425"/>
<polygon fill="#009640" points="10.334,5.338 5.091,9.727 10.334,9.727 15.577,9.727 "/>
<polygon fill="#009640" points="20.82,5.338 15.577,9.727 20.82,9.727 26.063,9.727 "/>
<polygon fill="#009640" points="31.307,5.338 26.063,9.727 31.307,9.727 36.55,9.727 "/>
<polygon fill="#009640" points="41.793,5.338 36.55,9.727 41.793,9.727 47.036,9.727 "/>
<polygon fill="#009640" points="52.279,5.338 47.036,9.727 52.279,9.727 57.522,9.727 "/>
<polygon fill="#009640" points="62.766,5.338 57.522,9.727 62.766,9.727 68.009,9.727 "/>
<polygon fill="#009640" points="73.252,5.338 68.009,9.727 73.252,9.727 78.495,9.727 "/>
<polygon fill="#009640" points="83.738,5.338 78.495,9.727 83.738,9.727 88.981,9.727 "/>
<polygon fill="#009640" points="94.225,5.338 88.981,9.727 94.225,9.727 99.468,9.727 "/>
<polygon fill="#009640" points="104.711,5.338 99.468,9.727 104.711,9.727 109.954,9.727 "/>
<polygon fill="#009640" points="115.197,5.338 109.954,9.727 115.197,9.727 120.44,9.727 "/>
<polygon fill="#009640" points="125.684,5.338 120.44,9.727 125.684,9.727 130.927,9.727 "/>
<polygon fill="#009640" points="136.17,5.338 130.927,9.727 136.17,9.727 141.413,9.727 "/>
<polygon fill="#009640" points="146.656,5.338 141.413,9.727 146.656,9.727 151.899,9.727 "/>
<polygon fill="#009640" points="157.143,5.338 151.899,9.727 157.143,9.727 162.386,9.727 "/>
<polygon fill="#009640" points="167.629,5.338 162.386,9.727 167.629,9.727 172.872,9.727 "/>
<polygon fill="#009640" points="178.115,5.338 172.872,9.727 178.115,9.727 183.358,9.727 "/>
<polygon fill="#009640" points="188.602,5.338 183.358,9.727 188.602,9.727 193.845,9.727 "/>
<polygon fill="#009640" points="199.088,5.338 193.845,9.727 199.088,9.727 204.331,9.727 "/>
<polygon fill="#009640" points="209.574,5.338 204.331,9.727 209.574,9.727 214.817,9.727 "/>
<polygon fill="#009640" points="220.061,5.338 214.817,9.727 220.061,9.727 225.304,9.727 "/>
<polygon fill="#009640" points="230.547,5.338 225.304,9.727 230.547,9.727 235.79,9.727 "/>
<polygon fill="#009640" points="241.033,5.338 235.79,9.727 241.033,9.727 246.276,9.727 "/>
<polygon fill="#009640" points="251.52,5.338 246.276,9.727 251.52,9.727 256.763,9.727 "/>
<polygon fill="#009640" points="262.006,5.338 256.763,9.727 262.006,9.727 267.249,9.727 "/>
<polygon fill="#009640" points="272.492,5.338 267.249,9.727 272.492,9.727 277.735,9.727 "/>
<rect id="_x3C_Slice_x3E_" fill="none" width="283" height="18"/>
</svg>
