<?xml version="1.0" encoding="utf-8"?>
<!-- Generator: Adobe Illustrator 16.0.0, SVG Export Plug-In . SVG Version: 6.00 Build 0)  -->
<!DOCTYPE svg PUBLIC "-//W3C//DTD SVG 1.1//EN" "http://www.w3.org/Graphics/SVG/1.1/DTD/svg11.dtd">
<svg version="1.1" id="Layer_2" xmlns="http://www.w3.org/2000/svg" xmlns:xlink="http://www.w3.org/1999/xlink" x="0px" y="0px"
	 width="332px" height="167px" viewBox="0 0 332 167" enable-background="new 0 0 332 167" xml:space="preserve">
<path opacity="0.2" fill="#9D9D9C" d="M102,0h150.5L270,21.5c0,0-62,0-66.5,0s-164,0-164,0L102,0z"/>
<polyline opacity="0.1" fill="#9D9D9C" points="115,54 332,54 304,35.5 131,35.5 "/>
<polyline opacity="0.15" fill="#DADADA" points="74.5,92.5 77.042,92.554 332,98 332,113.5 50,113.5 "/>
<polygon opacity="0.25" fill="#DADADA" points="165,121 0,121 4.5,138.5 191,138.5 "/>
<polyline opacity="0.2" fill="#DADADA" points="110,148.5 302.5,147 321,167 136,167 110,150 "/>
<polygon opacity="0.2" fill="#C6C6C6" points="57,61 223.5,62.5 302.5,80.5 23,80.5 "/>
</svg>
