<?xml version="1.0" encoding="utf-8"?>
<!-- Generator: Adobe Illustrator 16.0.0, SVG Export Plug-In . SVG Version: 6.00 Build 0)  -->
<!DOCTYPE svg PUBLIC "-//W3C//DTD SVG 1.1//EN" "http://www.w3.org/Graphics/SVG/1.1/DTD/svg11.dtd">
<svg version="1.1" xmlns="http://www.w3.org/2000/svg" xmlns:xlink="http://www.w3.org/1999/xlink" x="0px" y="0px"
	 width="402.385px" height="374.855px" viewBox="0 0 402.385 374.855" enable-background="new 0 0 402.385 374.855"
	 xml:space="preserve">
<g id="Layer_2">
	<g>
		<circle fill="#DADADA" cx="201.192" cy="173.001" r="173.001"/>
		<path opacity="0.1" fill="#1D1D1B" d="M96.916,311.045c28.996,21.937,65.113,34.957,104.276,34.957
			c95.546,0,173.001-77.455,173.001-173.001c0-21.57-3.959-42.213-11.171-61.256c-0.002,0.012-0.005,0.023-0.007,0.036
			C319.265,373.921,97.001,311.068,96.916,311.045z"/>
		<circle fill="#C6C6C6" cx="92.54" cy="142.298" r="4.375"/>
		<circle fill="#C6C6C6" cx="126.132" cy="203.812" r="4.375"/>
		<circle fill="#C6C6C6" cx="212.01" cy="75.644" r="4.375"/>
		<circle fill="#C6C6C6" cx="194.51" cy="142.298" r="4.375"/>
		<circle fill="#B2B2B2" cx="303.745" cy="158.684" r="4.375"/>
		<circle fill="#C6C6C6" cx="175.341" cy="302.465" r="4.375"/>
		<circle fill="#C6C6C6" cx="179.716" cy="188.941" r="10.496"/>
		<circle fill="#C6C6C6" cx="149.199" cy="111.78" r="10.496"/>
		<circle fill="#C6C6C6" cx="107.411" cy="251.222" r="10.496"/>
		<path fill="#B2B2B2" d="M279.617,232.905c0,13.653-11.063,24.722-24.717,24.722s-24.725-11.068-24.725-24.722
			c0-13.652,11.071-24.717,24.725-24.717S279.617,219.253,279.617,232.905z"/>
		<circle fill="#C6C6C6" cx="254.896" cy="119.468" r="18.186"/>
		<path fill="#C6C6C6" d="M34.23,167.019c13.654,0,24.717-11.068,24.717-24.722c0-12.646-9.499-23.055-21.75-24.522
			c-5.157,15.321-8.216,31.604-8.863,48.506C30.226,166.745,32.194,167.019,34.23,167.019z"/>
		<path fill="#B2B2B2" d="M334.822,63.123c-13.754,7.182-23.15,21.568-23.15,38.158c0,23.772,19.274,43.042,43.047,43.042
			c5.853,0,11.43-1.173,16.515-3.289C365.774,111.817,352.981,85.181,334.822,63.123z"/>
		<path fill="#C6C6C6" d="M81.066,58.246c0,13.653,11.071,24.721,24.725,24.721s24.717-11.068,24.717-24.721
			c0-13.652-11.063-24.717-24.717-24.717c-2.739,0-5.364,0.463-7.827,1.285c-4.724,3.488-9.268,7.204-13.606,11.144
			C82.275,49.579,81.066,53.767,81.066,58.246z"/>
		<circle fill="#C6C6C6" cx="176.703" cy="254.001" r="17.004"/>
		<path fill="#B2B2B2" d="M267.056,295.784c-13.148,0-23.809,10.654-23.809,23.803c0,7.216,3.223,13.667,8.294,18.032
			c13.904-4.125,27.076-9.949,39.276-17.233c0.009-0.268,0.04-0.529,0.04-0.799C290.857,306.438,280.204,295.784,267.056,295.784z"
			/>
		<path fill="#B2B2B2" d="M343.34,252.101c-6.28,0-11.374,5.091-11.374,11.372c0,5.545,3.974,10.158,9.226,11.164
			c4.136-5.688,7.932-11.634,11.362-17.813C350.488,253.966,347.137,252.101,343.34,252.101z"/>
		<circle fill="#C6C6C6" cx="230.176" cy="28.325" r="12.982"/>
		<path opacity="0.2" fill="#F6F6F6" d="M201.192,0C105.646,0,28.191,77.455,28.191,173.001c0,21.061,3.768,41.239,10.658,59.906h0
			c0,0-8.808-251.388,240.767-214.147h0.001C256.076,6.767,229.425,0,201.192,0z"/>
	</g>
</g>
<g id="Layer_1">
	<path fill="#C6C6C6" d="M285.88,302.436c-6.367-13.111-19.234-21.949-33.885-21.629c-0.828,0.019-1.645,0.076-2.457,0.151
		c-8.968-15.451-25.212-25.616-43.556-25.213c-20.712,0.453-38.169,14.238-45.238,33.453c-1.252-0.109-2.521-0.151-3.803-0.123
		c-15.96,0.349-29.332,11.46-34.294,26.766c-0.053,0-0.104-0.002-0.156-0.001c-14.293,0.313-25.617,12.543-25.294,27.316
		c0.324,14.772,12.172,26.496,26.465,26.185c5.802-0.128,11.113-2.22,15.356-5.646c5.765,3.657,12.507,5.698,19.679,5.541
		c7.288-0.16,14.031-2.571,19.686-6.593c6.97,7.722,16.774,12.439,27.544,12.203c12.764-0.278,23.871-7.443,30.348-18.13
		c5.252,2.84,11.199,4.39,17.477,4.252c8.307-0.181,15.912-3.281,21.999-8.367c3.237,1.548,6.84,2.377,10.622,2.295
		c13.619-0.299,24.401-12.284,24.085-26.772C310.146,313.871,299.206,302.516,285.88,302.436z"/>
	<path opacity="0.05" fill="#312783" d="M310.457,328.082c-0.142-6.537-2.526-12.462-6.347-16.972
		c-1.724,33.543-27.744,31.803-27.744,31.803c-14.243,15.737-43.283,4.68-43.283,4.68c-32.479,25.821-54.953-2.993-54.953-2.993
		c-20.142,10.057-39.291-1.68-39.291-1.68c-30.484,7.671-37.173-15.432-37.173-15.435c-2.928,4.444-4.596,9.839-4.47,15.628
		c0.324,14.773,12.172,26.497,26.465,26.185c5.802-0.127,11.113-2.219,15.356-5.646c5.765,3.658,12.507,5.698,19.679,5.541
		c7.288-0.159,14.031-2.57,19.686-6.592c6.97,7.722,16.774,12.439,27.544,12.203c12.764-0.279,23.871-7.444,30.348-18.13
		c5.252,2.839,11.199,4.39,17.477,4.252c8.307-0.182,15.912-3.281,21.999-8.368c3.237,1.549,6.84,2.378,10.622,2.296
		C299.991,354.556,310.773,342.57,310.457,328.082z"/>
	<path opacity="0.3" fill="#F6F6F6" d="M303.765,311.276c-4.506-5.289-10.996-8.615-18.182-8.657
		c-6.365-13.112-19.235-21.949-33.884-21.628c-0.827,0.017-1.646,0.075-2.459,0.149c-8.966-15.451-25.209-25.615-43.556-25.212
		c-20.711,0.452-38.168,14.237-45.237,33.453c-1.253-0.109-2.521-0.151-3.803-0.124c-15.96,0.35-29.333,11.46-34.294,26.767
		c-0.053,0-0.104-0.002-0.156-0.002c-8.646,0.19-16.199,4.742-20.752,11.578c0.739-0.692,9.273-8.352,23.349-6.527
		c0,0,13.385-36.875,39.784-24.163c0,0,29.346-67.393,83.435-10.348c0,0,23.163-3.535,36.281,21.187
		C284.291,307.749,287.35,305.506,303.765,311.276z"/>
	<path fill="#B2B2B2" d="M371.802,181.772c-3.897,0-7.622,0.778-11.05,2.183c-4.177-3.128-8.931-5.438-14.063-6.718
		c-4.17-12.599-15.519-21.639-28.871-21.639c-0.183,0-0.362,0.011-0.544,0.014c-9.937-9.41-23.491-15.214-38.445-15.214
		c-12.075,0-23.236,3.79-32.32,10.2c-3.751-0.875-7.676-1.345-11.72-1.345c-15.929,0-30.028,7.222-38.717,18.316
		c-2.897-0.743-5.945-1.147-9.095-1.147c-18.965,0-34.34,14.373-34.34,32.104c0,10.492,5.386,19.808,13.713,25.666
		c-0.023,0.52-0.046,1.038-0.046,1.562c0,22.65,21.57,41.009,48.177,41.009c14.045,0,26.684-5.119,35.489-13.281
		c8.044,5.131,18.034,8.17,28.858,8.17c12.119,0,23.185-3.818,31.652-10.107c7.164,6.707,16.565,10.786,26.87,10.786
		c12.805,0,24.22-6.291,31.669-16.108c0.917,0.087,1.844,0.14,2.781,0.14c16.891,0,30.583-14.457,30.583-32.294
		C402.385,196.23,388.692,181.772,371.802,181.772z"/>
	<path opacity="0.05" fill="#312783" d="M362.773,238.637c-18.43,24.699-53.608,4.304-53.608,4.304
		c-24.493,22.519-62.173,0.511-62.173,0.511c-45.605,29.513-80.642-19.261-80.642-19.261c-0.023,0.52-0.046,1.038-0.046,1.562
		c0,22.65,21.57,41.009,48.177,41.009c14.045,0,26.684-5.119,35.489-13.281c8.044,5.131,18.034,8.17,28.858,8.17
		c12.119,0,23.185-3.818,31.652-10.107c7.164,6.707,16.565,10.786,26.87,10.786c12.805,0,24.22-6.291,31.669-16.108
		c0.917,0.087,1.844,0.14,2.781,0.14c16.891,0,30.583-14.457,30.583-32.294c0-2.395-0.254-4.726-0.723-6.973
		C396.188,239.149,362.773,238.637,362.773,238.637z"/>
	<path opacity="0.3" fill="#FFFFFF" d="M401.556,203.579c-4.124-12.686-15.513-21.807-28.924-21.807
		c-3.898,0-7.622,0.777-11.051,2.183c-4.177-3.127-8.931-5.438-14.063-6.719c-4.17-12.598-15.518-21.639-28.871-21.639
		c-0.183,0-0.362,0.012-0.543,0.015c-9.938-9.411-23.492-15.214-38.445-15.214c-12.075,0-23.236,3.791-32.321,10.2
		c-3.75-0.875-7.676-1.345-11.72-1.345c-15.929,0-30.027,7.221-38.717,18.316c-2.897-0.743-5.945-1.147-9.095-1.147
		c-18.965,0-34.339,14.373-34.339,32.104c0,10.492,5.386,19.808,13.713,25.666c0,0-18.069-42.33,33.198-52.946
		c0,0,33.638-26.277,47.443-12.056c0,0,36.241-24.141,63.615,4.499c0,0,21.61,2.007,30.255,23.248c0,0,8.645,0.617,17.289,6.605
		C358.98,193.54,389.383,188.179,401.556,203.579z"/>
	<path fill="#9D9D9C" d="M26.655,207.941c6.901-15.462,20.854-25.884,36.736-25.505c0.897,0.021,1.786,0.089,2.667,0.178
		c9.722-18.221,27.333-30.209,47.222-29.733c22.455,0.534,41.381,16.791,49.045,39.45c1.358-0.129,2.734-0.179,4.124-0.146
		c17.304,0.412,31.801,13.515,37.182,31.565c0.056,0,0.112-0.003,0.169-0.002c15.496,0.369,27.772,14.792,27.423,32.214
		c-0.351,17.422-13.197,31.247-28.693,30.879c-6.29-0.15-12.049-2.617-16.648-6.657c-6.25,4.313-13.561,6.72-21.336,6.534
		c-7.9-0.188-15.211-3.032-21.343-7.774c-7.556,9.106-18.186,14.669-29.863,14.391c-13.837-0.328-25.881-8.777-32.903-21.38
		c-5.692,3.348-12.141,5.177-18.946,5.016c-9.009-0.215-17.252-3.871-23.852-9.869c-3.51,1.826-7.415,2.804-11.516,2.707
		c-14.768-0.353-26.458-14.486-26.115-31.573C0.346,221.428,12.208,208.036,26.655,207.941z"/>
	<path opacity="0.05" fill="#312783" d="M0.007,238.187c0.156-7.71,2.739-14.696,6.881-20.015
		c1.869,39.557,30.082,37.505,30.082,37.505c15.443,18.56,46.927,5.519,46.927,5.519c35.212,30.45,59.579-3.53,59.579-3.53
		c21.836,11.859,42.597-1.982,42.597-1.982c33.053,9.048,40.304-18.196,40.304-18.2c3.175,5.242,4.982,11.604,4.846,18.431
		c-0.351,17.422-13.197,31.248-28.693,30.88c-6.29-0.151-12.049-2.617-16.648-6.659c-6.25,4.313-13.561,6.721-21.336,6.535
		c-7.9-0.188-15.211-3.031-21.343-7.773c-7.556,9.105-18.186,14.668-29.863,14.39c-13.837-0.328-25.881-8.778-32.903-21.38
		c-5.692,3.349-12.141,5.177-18.946,5.015c-9.009-0.214-17.252-3.87-23.852-9.868c-3.51,1.826-7.415,2.804-11.516,2.707
		C11.354,269.406-0.335,255.271,0.007,238.187z"/>
	<path opacity="0.3" fill="#F6F6F6" d="M7.263,218.367c4.886-6.237,11.921-10.159,19.713-10.21
		c6.903-15.463,20.854-25.883,36.738-25.505c0.897,0.021,1.783,0.09,2.664,0.177c9.722-18.221,27.334-30.208,47.225-29.732
		c22.454,0.533,41.38,16.79,49.044,39.451c1.358-0.129,2.733-0.18,4.124-0.146c17.304,0.412,31.801,13.514,37.182,31.566
		c0.057,0,0.111-0.003,0.169-0.003c9.373,0.224,17.563,5.593,22.498,13.653c-0.8-0.815-10.053-9.849-25.313-7.697
		c0,0-14.512-43.486-43.133-28.495c0,0-31.816-79.476-90.461-12.203c0,0-25.113-4.169-39.336,24.985
		C28.375,214.208,25.061,211.563,7.263,218.367z"/>
</g>
</svg>
