<?xml version="1.0" encoding="utf-8"?>
<!-- Generator: Adobe Illustrator 16.0.0, SVG Export Plug-In . SVG Version: 6.00 Build 0)  -->
<!DOCTYPE svg PUBLIC "-//W3C//DTD SVG 1.1//EN" "http://www.w3.org/Graphics/SVG/1.1/DTD/svg11.dtd">
<svg version="1.1" id="Layer_1" xmlns="http://www.w3.org/2000/svg" xmlns:xlink="http://www.w3.org/1999/xlink" x="0px" y="0px"
	 width="385.088px" height="194.718px" viewBox="0 0 385.088 194.718" enable-background="new 0 0 385.088 194.718"
	 xml:space="preserve">
<g>
	<path fill="#DADADA" d="M174.623,127.697c-5.892-12.134-17.8-20.313-31.358-20.016c-0.766,0.017-1.522,0.07-2.274,0.14
		c-8.298-14.298-23.332-23.706-40.309-23.333c-19.167,0.419-35.323,13.177-41.865,30.958c-1.159-0.102-2.333-0.141-3.52-0.114
		c-14.77,0.323-27.145,10.605-31.737,24.771c-0.048,0-0.096-0.002-0.145,0c-13.228,0.289-23.707,11.607-23.408,25.279
		c0.3,13.672,11.265,24.521,24.493,24.232c5.369-0.119,10.284-2.055,14.211-5.225c5.335,3.385,11.575,5.273,18.211,5.127
		c6.744-0.146,12.984-2.379,18.218-6.1c6.45,7.145,15.524,11.512,25.491,11.293c11.812-0.258,22.091-6.889,28.085-16.779
		c4.861,2.629,10.364,4.063,16.173,3.936c7.688-0.168,14.727-3.037,20.358-7.744c2.997,1.434,6.331,2.201,9.831,2.125
		c12.604-0.277,22.583-11.369,22.291-24.777C197.08,138.281,186.954,127.771,174.623,127.697z"/>
	<path fill="#C8C8C8" d="M356.785,38.29c-3.607,0-7.054,0.72-10.227,2.02c-3.865-2.894-8.265-5.032-13.014-6.217
		c-3.859-11.659-14.361-20.025-26.719-20.025c-0.169,0-0.335,0.01-0.503,0.013C297.127,5.372,284.583,0,270.744,0
		c-11.175,0-21.504,3.507-29.911,9.439c-3.471-0.811-7.104-1.245-10.846-1.245c-14.741,0-27.789,6.683-35.83,16.95
		c-2.682-0.688-5.502-1.062-8.417-1.062c-17.551,0-31.78,13.301-31.78,29.709c0,9.71,4.984,18.332,12.69,23.752
		c-0.021,0.48-0.043,0.961-0.043,1.446c0,20.96,19.962,37.95,44.585,37.95c12.998,0,24.694-4.737,32.844-12.29
		c7.444,4.747,16.689,7.56,26.707,7.56c11.216,0,21.456-3.533,29.292-9.353c6.63,6.207,15.331,9.98,24.867,9.98
		c11.85,0,22.414-5.82,29.308-14.907c0.849,0.081,1.706,0.129,2.574,0.129c15.631,0,28.303-13.379,28.303-29.885
		S372.416,38.29,356.785,38.29z"/>
	<path opacity="0.05" fill="#312783" d="M197.368,151.431c-0.132-6.049-2.338-11.531-5.874-15.705
		c-1.596,31.041-25.677,29.432-25.677,29.432c-13.182,14.564-40.057,4.33-40.057,4.33c-30.057,23.896-50.855-2.77-50.855-2.77
		c-18.639,9.307-36.361-1.555-36.361-1.555c-28.212,7.1-34.401-14.281-34.402-14.283c-2.71,4.113-4.254,9.105-4.137,14.463
		c0.3,13.672,11.265,24.521,24.493,24.232c5.369-0.119,10.284-2.055,14.211-5.225c5.335,3.385,11.575,5.273,18.211,5.127
		c6.744-0.146,12.984-2.379,18.218-6.1c6.45,7.145,15.524,11.512,25.491,11.293c11.812-0.258,22.091-6.889,28.085-16.779
		c4.86,2.629,10.364,4.063,16.173,3.936c7.688-0.168,14.727-3.037,20.359-7.744c2.996,1.434,6.33,2.201,9.83,2.125
		C187.682,175.931,197.661,164.839,197.368,151.431z"/>
	<path opacity="0.3" fill="#F6F6F6" d="M191.174,135.878c-4.17-4.895-10.176-7.973-16.826-8.012
		c-5.892-12.135-17.801-20.313-31.358-20.016c-0.766,0.016-1.522,0.07-2.274,0.139c-8.299-14.298-23.332-23.705-40.309-23.332
		c-19.167,0.418-35.323,13.176-41.865,30.958c-1.159-0.102-2.333-0.141-3.52-0.115c-14.77,0.324-27.145,10.605-31.737,24.771
		c-0.048,0-0.096-0.002-0.145-0.002c-8.001,0.176-14.991,4.389-19.205,10.715c0.683-0.641,8.582-7.729,21.608-6.041
		c0,0,12.387-34.125,36.818-22.361c0,0,27.158-62.368,77.215-9.576c0,0,21.436-3.271,33.576,19.607
		C173.153,132.615,175.983,130.539,191.174,135.878z"/>
	<path opacity="0.05" fill="#312783" d="M348.43,90.914c-17.056,22.857-49.611,3.982-49.611,3.982
		c-22.667,20.839-57.538,0.473-57.538,0.473c-42.205,27.312-74.629-17.824-74.629-17.824c-0.021,0.48-0.043,0.961-0.043,1.446
		c0,20.96,19.962,37.95,44.585,37.95c12.998,0,24.694-4.737,32.844-12.29c7.444,4.747,16.689,7.56,26.707,7.56
		c11.216,0,21.456-3.533,29.292-9.353c6.63,6.207,15.331,9.98,24.867,9.98c11.85,0,22.414-5.82,29.308-14.907
		c0.849,0.081,1.706,0.129,2.574,0.129c15.631,0,28.303-13.379,28.303-29.885c0-2.217-0.235-4.374-0.669-6.453
		C379.353,91.389,348.43,90.914,348.43,90.914z"/>
	<path opacity="0.3" fill="#FFFFFF" d="M384.32,58.471c-3.816-11.74-14.355-20.181-26.768-20.181c-3.607,0-7.054,0.72-10.227,2.02
		c-3.865-2.894-8.265-5.032-13.014-6.218c-3.859-11.658-14.361-20.025-26.719-20.025c-0.169,0-0.335,0.011-0.503,0.014
		C297.895,5.371,285.351,0,271.512,0c-11.175,0-21.504,3.508-29.911,9.439c-3.471-0.811-7.104-1.245-10.846-1.245
		c-14.741,0-27.789,6.683-35.83,16.95c-2.682-0.688-5.502-1.062-8.417-1.062c-17.551,0-31.78,13.302-31.78,29.71
		c0,9.71,4.984,18.331,12.69,23.752c0,0-16.722-39.174,30.723-48.998c0,0,31.13-24.318,43.906-11.157
		c0,0,33.539-22.341,58.872,4.163c0,0,20,1.857,28,21.514c0,0,8,0.572,16,6.114C344.92,49.181,373.056,44.219,384.32,58.471z"/>
</g>
</svg>
