<?xml version="1.0" encoding="utf-8"?>
<!-- Generator: Adobe Illustrator 16.0.0, SVG Export Plug-In . SVG Version: 6.00 Build 0)  -->
<!DOCTYPE svg PUBLIC "-//W3C//DTD SVG 1.1//EN" "http://www.w3.org/Graphics/SVG/1.1/DTD/svg11.dtd">
<svg version="1.1" xmlns="http://www.w3.org/2000/svg" xmlns:xlink="http://www.w3.org/1999/xlink" x="0px" y="0px"
	 width="385.087px" height="260.803px" viewBox="0 0 385.087 260.803" enable-background="new 0 0 385.087 260.803"
	 xml:space="preserve">
<g id="Layer_5">
	<circle opacity="0.1" fill="#FFFFFF" cx="189.819" cy="128.497" r="128.497"/>
</g>
<g id="Layer_4">
	<circle opacity="0.2" fill="#FFFFFF" cx="189.818" cy="127.808" r="108.997"/>
</g>
<g id="Layer_2">
	
		<linearGradient id="SVGID_1_" gradientUnits="userSpaceOnUse" x1="180.6646" y1="37.7935" x2="180.6646" y2="-86.7539" gradientTransform="matrix(-0.5878 -0.809 0.809 -0.5878 207.4465 337.4615)">
		<stop  offset="0" style="stop-color:#FFFFFF;stop-opacity:0"/>
		<stop  offset="0.0523" style="stop-color:#FEEDAE;stop-opacity:0.1856"/>
		<stop  offset="0.1046" style="stop-color:#FEDD64;stop-opacity:0.3712"/>
		<stop  offset="0.1476" style="stop-color:#FDD22E;stop-opacity:0.5241"/>
		<stop  offset="0.1797" style="stop-color:#FDCB0D;stop-opacity:0.6379"/>
		<stop  offset="0.1972" style="stop-color:#FDC800;stop-opacity:0.7"/>
		<stop  offset="0.6798" style="stop-color:#FDC801"/>
		<stop  offset="0.7495" style="stop-color:#F8B116"/>
		<stop  offset="0.8296" style="stop-color:#F49E27"/>
		<stop  offset="0.9121" style="stop-color:#F29331"/>
		<stop  offset="1" style="stop-color:#F18F34"/>
	</linearGradient>
	<path fill="url(#SVGID_1_)" d="M126.5,160.983c-8.057,5.379-13.066,16.174-21.83,22.541
		c-17.771,12.912-42.424,13.347-54.494,23.904c-16.347,14.295-20.502,32.176-18.508,34.92c1.99,2.74,9.64-10.213,28.209-21.285
		c13.797-8.228,39.518-7.298,57.35-20.256c8.765-6.368,13.528-17.506,21.129-23.505L126.5,160.983z"/>
	
		<linearGradient id="SVGID_2_" gradientUnits="userSpaceOnUse" x1="202.5093" y1="44.625" x2="202.5093" y2="-79.9199" gradientTransform="matrix(0 1 -1 0 305.6226 -74.0117)">
		<stop  offset="0" style="stop-color:#FFFFFF;stop-opacity:0"/>
		<stop  offset="0.0523" style="stop-color:#FEEDAE;stop-opacity:0.1856"/>
		<stop  offset="0.1046" style="stop-color:#FEDD64;stop-opacity:0.3712"/>
		<stop  offset="0.1476" style="stop-color:#FDD22E;stop-opacity:0.5241"/>
		<stop  offset="0.1797" style="stop-color:#FDCB0D;stop-opacity:0.6379"/>
		<stop  offset="0.1972" style="stop-color:#FDC800;stop-opacity:0.7"/>
		<stop  offset="0.6798" style="stop-color:#FDC801"/>
		<stop  offset="0.7495" style="stop-color:#F8B116"/>
		<stop  offset="0.8296" style="stop-color:#F49E27"/>
		<stop  offset="0.9121" style="stop-color:#F29331"/>
		<stop  offset="1" style="stop-color:#F18F34"/>
	</linearGradient>
	<path fill="url(#SVGID_2_)" d="M260.542,138.187c9.68,0.381,20.078-5.405,30.91-5.406c21.967-0.002,42.166,14.139,58.135,12.693
		c21.631-1.957,35.502-13.981,35.5-17.374c0.002-3.386-13.799,2.597-35.332,0.641c-15.998-1.452-36.26-17.325-58.303-17.322
		c-10.834,0.001-21.236,6.212-30.908,6.596L260.542,138.187z"/>
	<circle id="Sun" fill="#FDC801" cx="189.818" cy="127.81" r="90"/>
</g>
<g id="Layer_3">
	<path fill="#DADADA" d="M174.623,193.782c-5.892-12.134-17.8-20.313-31.358-20.016c-0.766,0.017-1.522,0.07-2.274,0.14
		c-8.298-14.299-23.332-23.706-40.309-23.333c-19.167,0.419-35.323,13.177-41.865,30.959c-1.159-0.102-2.333-0.141-3.52-0.114
		c-14.77,0.323-27.145,10.605-31.737,24.771c-0.048,0-0.096-0.002-0.145-0.001c-13.228,0.289-23.707,11.607-23.408,25.279
		c0.3,13.672,11.265,24.521,24.493,24.232c5.369-0.118,10.284-2.054,14.211-5.225c5.335,3.385,11.575,5.273,18.211,5.128
		c6.744-0.147,12.984-2.379,18.218-6.101c6.45,7.146,15.524,11.512,25.491,11.293c11.812-0.258,22.091-6.889,28.085-16.778
		c4.861,2.628,10.364,4.063,16.173,3.936c7.688-0.168,14.727-3.037,20.358-7.744c2.997,1.433,6.331,2.2,9.831,2.124
		c12.604-0.276,22.583-11.368,22.29-24.776C197.08,204.365,186.954,193.856,174.623,193.782z"/>
	<path fill="#C8C8C8" d="M356.785,104.375c-3.607,0-7.054,0.72-10.227,2.02c-3.865-2.894-8.265-5.032-13.014-6.217
		c-3.859-11.659-14.361-20.025-26.719-20.025c-0.169,0-0.335,0.01-0.503,0.013c-9.196-8.708-21.74-14.08-35.579-14.08
		c-11.175,0-21.504,3.507-29.911,9.439c-3.471-0.811-7.104-1.245-10.846-1.245c-14.741,0-27.789,6.683-35.83,16.95
		c-2.682-0.688-5.501-1.062-8.417-1.062c-17.551,0-31.78,13.301-31.78,29.709c0,9.71,4.984,18.332,12.69,23.752
		c-0.021,0.48-0.043,0.961-0.043,1.446c0,20.961,19.962,37.95,44.585,37.95c12.998,0,24.694-4.737,32.844-12.29
		c7.444,4.747,16.689,7.56,26.707,7.56c11.216,0,21.456-3.533,29.292-9.353c6.63,6.207,15.331,9.98,24.867,9.98
		c11.85,0,22.414-5.82,29.308-14.907c0.849,0.081,1.706,0.129,2.574,0.129c15.631,0,28.303-13.379,28.303-29.885
		S372.416,104.375,356.785,104.375z"/>
	<path opacity="0.05" fill="#312783" d="M197.368,217.517c-0.132-6.05-2.338-11.532-5.873-15.706
		c-1.596,31.042-25.677,29.432-25.677,29.432c-13.182,14.564-40.057,4.331-40.057,4.331c-30.057,23.896-50.855-2.771-50.855-2.771
		c-18.639,9.307-36.361-1.555-36.361-1.555c-28.212,7.1-34.401-14.28-34.402-14.283c-2.71,4.113-4.254,9.105-4.137,14.463
		c0.3,13.672,11.265,24.521,24.493,24.232c5.369-0.118,10.284-2.054,14.211-5.225c5.335,3.385,11.575,5.273,18.211,5.128
		c6.744-0.147,12.984-2.379,18.218-6.101c6.45,7.146,15.524,11.512,25.491,11.293c11.812-0.258,22.091-6.889,28.085-16.778
		c4.86,2.628,10.364,4.063,16.173,3.936c7.688-0.168,14.727-3.037,20.359-7.744c2.996,1.433,6.33,2.2,9.83,2.124
		C187.682,242.017,197.661,230.925,197.368,217.517z"/>
	<path opacity="0.3" fill="#F6F6F6" d="M191.174,201.964c-4.17-4.895-10.176-7.973-16.826-8.012
		c-5.892-12.135-17.801-20.313-31.358-20.016c-0.766,0.016-1.522,0.07-2.274,0.139c-8.299-14.299-23.332-23.705-40.309-23.332
		c-19.167,0.418-35.323,13.176-41.865,30.959c-1.159-0.102-2.333-0.141-3.52-0.115c-14.77,0.324-27.145,10.605-31.737,24.771
		c-0.048,0-0.096-0.002-0.145-0.002c-8.001,0.176-14.991,4.389-19.205,10.715c0.683-0.641,8.582-7.729,21.608-6.041
		c0,0,12.387-34.125,36.818-22.361c0,0,27.158-62.369,77.215-9.576c0,0,21.436-3.271,33.576,19.607
		C173.153,198.7,175.983,196.624,191.174,201.964z"/>
	<path opacity="0.05" fill="#312783" d="M348.429,156.999c-17.056,22.857-49.611,3.982-49.611,3.982
		c-22.667,20.84-57.538,0.473-57.538,0.473c-42.205,27.313-74.629-17.824-74.629-17.824c-0.021,0.48-0.043,0.961-0.043,1.446
		c0,20.961,19.962,37.95,44.585,37.95c12.998,0,24.694-4.737,32.844-12.29c7.444,4.747,16.689,7.56,26.707,7.56
		c11.216,0,21.456-3.533,29.292-9.353c6.63,6.207,15.331,9.98,24.867,9.98c11.85,0,22.414-5.82,29.308-14.907
		c0.849,0.081,1.706,0.129,2.574,0.129c15.631,0,28.303-13.379,28.303-29.885c0-2.217-0.235-4.374-0.669-6.453
		C379.352,157.474,348.429,156.999,348.429,156.999z"/>
	<path opacity="0.3" fill="#FFFFFF" d="M384.32,124.556c-3.816-11.74-14.355-20.181-26.768-20.181c-3.607,0-7.054,0.72-10.227,2.02
		c-3.865-2.894-8.265-5.032-13.014-6.218c-3.859-11.658-14.361-20.025-26.719-20.025c-0.169,0-0.335,0.011-0.503,0.014
		c-9.196-8.709-21.74-14.08-35.579-14.08c-11.175,0-21.504,3.508-29.911,9.439c-3.471-0.811-7.104-1.245-10.846-1.245
		c-14.741,0-27.789,6.683-35.83,16.95c-2.682-0.688-5.501-1.062-8.417-1.062c-17.551,0-31.78,13.302-31.78,29.71
		c0,9.71,4.984,18.331,12.69,23.752c0,0-16.722-39.174,30.723-48.998c0,0,31.13-24.318,43.906-11.157
		c0,0,33.539-22.341,58.872,4.163c0,0,20,1.857,28,21.514c0,0,8,0.572,16,6.114C344.919,115.266,373.055,110.304,384.32,124.556z"/>
</g>
</svg>
