<?xml version="1.0" encoding="utf-8"?>
<!-- Generator: Adobe Illustrator 16.0.0, SVG Export Plug-In . SVG Version: 6.00 Build 0)  -->
<!DOCTYPE svg PUBLIC "-//W3C//DTD SVG 1.1//EN" "http://www.w3.org/Graphics/SVG/1.1/DTD/svg11.dtd">
<svg version="1.1" xmlns="http://www.w3.org/2000/svg" xmlns:xlink="http://www.w3.org/1999/xlink" x="0px" y="0px"
	 width="372.385px" height="333.678px" viewBox="0 0 372.385 333.678" enable-background="new 0 0 372.385 333.678"
	 xml:space="preserve">
<g id="Layer_1">
	<path fill="#009FE3" d="M106.088,217.143L106.088,217.143L106.088,217.143c-0.228-0.86-0.581-1.668-1.042-2.402l-7.394-17.033
		l-7.394,17.033c-0.462,0.734-0.815,1.542-1.042,2.402l0,0l0,0c-0.189,0.716-0.3,1.462-0.3,2.236c0,4.824,3.911,8.735,8.736,8.735
		s8.736-3.911,8.736-8.735C106.388,218.605,106.277,217.859,106.088,217.143z"/>
	<path fill="#009FE3" d="M88.617,298.8L88.617,298.8L88.617,298.8c-0.228-0.86-0.581-1.668-1.042-2.402l-7.394-17.033l-7.394,17.033
		c-0.462,0.734-0.815,1.542-1.042,2.402l0,0l0,0c-0.189,0.717-0.3,1.463-0.3,2.236c0,4.825,3.911,8.735,8.736,8.735
		s8.736-3.91,8.736-8.735C88.917,300.263,88.806,299.517,88.617,298.8z"/>
	<path fill="#009FE3" d="M169.835,247.549L169.835,247.549L169.835,247.549c-0.228-0.859-0.581-1.667-1.043-2.402l-7.394-17.032
		l-7.394,17.032c-0.462,0.735-0.815,1.543-1.042,2.402l0,0l0,0c-0.189,0.717-0.3,1.463-0.3,2.236c0,4.825,3.911,8.736,8.736,8.736
		s8.736-3.911,8.736-8.736C170.135,249.012,170.024,248.266,169.835,247.549z"/>
	<path fill="#009FE3" d="M212.084,213.648L212.084,213.648L212.084,213.648c-0.228-0.859-0.582-1.667-1.043-2.402l-7.395-17.032
		l-7.394,17.032c-0.462,0.735-0.814,1.543-1.042,2.402l0,0l0,0c-0.188,0.717-0.3,1.463-0.3,2.236c0,4.825,3.912,8.736,8.735,8.736
		c4.825,0,8.736-3.911,8.736-8.736C212.383,215.111,212.272,214.365,212.084,213.648z"/>
	<path fill="#009FE3" d="M316.915,180.903L316.915,180.903L316.915,180.903c-0.228-0.86-0.581-1.668-1.043-2.402l-7.394-17.032
		l-7.394,17.032c-0.462,0.734-0.815,1.542-1.043,2.402l0,0l0,0c-0.189,0.716-0.3,1.463-0.3,2.236c0,4.825,3.912,8.735,8.736,8.735
		s8.735-3.91,8.735-8.735C317.214,182.366,317.104,181.619,316.915,180.903z"/>
	<path fill="#009FE3" d="M297.501,252.27L297.501,252.27L297.501,252.27c-0.228-0.859-0.58-1.667-1.042-2.402l-7.394-17.032
		l-7.394,17.032c-0.462,0.735-0.814,1.543-1.042,2.402l0,0l0,0c-0.189,0.717-0.301,1.463-0.301,2.236
		c0,4.825,3.911,8.736,8.736,8.736s8.735-3.911,8.735-8.736C297.801,253.733,297.689,252.987,297.501,252.27z"/>
	<path fill="#009FE3" d="M320.408,121.753L320.408,121.753L320.408,121.753c-0.228-0.86-0.581-1.668-1.043-2.402l-7.394-17.033
		l-7.394,17.033c-0.462,0.734-0.814,1.542-1.042,2.402l0,0l0,0c-0.188,0.715-0.301,1.461-0.301,2.236
		c0,4.825,3.912,8.735,8.736,8.735c4.825,0,8.735-3.91,8.735-8.735C320.707,123.214,320.598,122.468,320.408,121.753z"/>
	<path fill="#009FE3" d="M136.458,320.163L136.458,320.163L136.458,320.163c-0.162-0.585-0.413-1.136-0.741-1.636l-5.258-11.596
		l-5.257,11.596c-0.328,0.5-0.58,1.051-0.741,1.636l0,0l0,0c-0.134,0.486-0.213,0.996-0.213,1.521c0,3.285,2.781,5.949,6.212,5.949
		c3.431,0,6.212-2.664,6.212-5.949C136.672,321.159,136.593,320.649,136.458,320.163z"/>
	<path fill="#009FE3" d="M263.521,200.587L263.521,200.587L263.521,200.587c-0.161-0.584-0.413-1.135-0.741-1.636l-5.258-11.595
		l-5.257,11.595c-0.328,0.501-0.58,1.052-0.742,1.636l0,0l0,0c-0.134,0.487-0.213,0.997-0.213,1.522
		c0,3.285,2.781,5.949,6.212,5.949s6.213-2.664,6.213-5.949C263.735,201.584,263.656,201.075,263.521,200.587z"/>
	<path fill="#009FE3" d="M106.682,148.255L106.682,148.255L106.682,148.255c-0.161-0.585-0.413-1.136-0.741-1.636l-5.258-11.596
		l-5.257,11.596c-0.328,0.5-0.58,1.051-0.741,1.636l0,0l0,0c-0.134,0.486-0.213,0.996-0.213,1.521c0,3.285,2.781,5.949,6.212,5.949
		c3.431,0,6.212-2.664,6.212-5.949C106.896,149.251,106.816,148.742,106.682,148.255z"/>
	<path fill="#009FE3" d="M63.854,215.793L63.854,215.793L63.854,215.793c-0.162-0.587-0.413-1.135-0.741-1.636l-5.258-11.596
		l-5.257,11.596c-0.328,0.501-0.58,1.049-0.741,1.636l0,0l0,0c-0.134,0.487-0.213,0.994-0.213,1.522
		c0,3.284,2.781,5.946,6.211,5.946c3.431,0,6.212-2.662,6.212-5.946C64.067,216.788,63.988,216.281,63.854,215.793z"/>
	<path fill="#009FE3" d="M79.967,259.207L79.967,259.207L79.967,259.207c-0.162-0.587-0.413-1.135-0.741-1.636l-5.258-11.596
		l-5.257,11.596c-0.328,0.501-0.58,1.049-0.741,1.636l0,0l0,0c-0.134,0.487-0.213,0.994-0.213,1.522
		c0,3.285,2.781,5.946,6.212,5.946c3.431,0,6.212-2.661,6.212-5.946C80.181,260.201,80.102,259.694,79.967,259.207z"/>
	<path fill="#009FE3" d="M284.033,171.459L284.033,171.459L284.033,171.459c-0.162-0.586-0.412-1.136-0.741-1.636l-5.259-11.596
		l-5.257,11.596c-0.328,0.5-0.579,1.05-0.74,1.636l0,0l0,0c-0.135,0.486-0.213,0.995-0.213,1.521c0,3.285,2.78,5.947,6.21,5.947
		c3.433,0,6.214-2.662,6.214-5.947C284.247,172.455,284.167,171.946,284.033,171.459z"/>
	<path fill="#009FE3" d="M346.508,158.607L346.508,158.607L346.508,158.607c-0.161-0.586-0.413-1.136-0.741-1.636l-5.258-11.596
		l-5.258,11.596c-0.327,0.5-0.58,1.05-0.741,1.636l0,0l0,0c-0.135,0.486-0.213,0.995-0.213,1.521c0,3.285,2.781,5.948,6.212,5.948
		s6.213-2.663,6.213-5.948C346.722,159.602,346.643,159.093,346.508,158.607z"/>
	<path fill="#009FE3" d="M44.838,173.142L44.838,173.142L44.838,173.142c-0.161-0.586-0.413-1.137-0.741-1.637l-5.258-11.595
		l-5.257,11.595c-0.329,0.5-0.58,1.051-0.742,1.637l0,0l0,0c-0.134,0.486-0.214,0.994-0.214,1.521c0,3.285,2.782,5.947,6.213,5.947
		s6.212-2.662,6.212-5.947C45.051,174.136,44.973,173.628,44.838,173.142z"/>
	<path fill="#009FE3" d="M40.328,123.369L40.328,123.369L40.328,123.369c-0.161-0.586-0.412-1.135-0.74-1.636l-5.259-11.595
		l-5.258,11.595c-0.327,0.501-0.579,1.05-0.74,1.636l0,0l0,0c-0.134,0.487-0.213,0.996-0.213,1.522c0,3.285,2.78,5.947,6.211,5.947
		c3.432,0,6.213-2.662,6.213-5.947C40.542,124.365,40.461,123.856,40.328,123.369z"/>
	<path fill="#009FE3" d="M176.81,291.431L176.81,291.431L176.81,291.431c-0.161-0.584-0.413-1.135-0.741-1.636l-5.258-11.595
		l-5.257,11.595c-0.328,0.501-0.58,1.052-0.741,1.636l0,0l0,0c-0.134,0.487-0.213,0.997-0.213,1.522
		c0,3.285,2.781,5.949,6.211,5.949c3.431,0,6.212-2.664,6.212-5.949C177.023,292.428,176.944,291.918,176.81,291.431z"/>
	<path fill="#009FE3" d="M139.599,284.188L139.599,284.188L139.599,284.188c-0.079-0.344-0.201-0.664-0.362-0.955l-2.565-6.775
		l-2.565,6.775c-0.161,0.291-0.283,0.611-0.362,0.955l0,0l0,0c-0.066,0.284-0.104,0.58-0.104,0.888c0,1.92,1.358,3.476,3.031,3.476
		c1.674,0,3.031-1.556,3.031-3.476C139.703,284.768,139.665,284.472,139.599,284.188z"/>
	<path fill="#009FE3" d="M103.61,329.314L103.61,329.314L103.61,329.314c-0.079-0.341-0.201-0.662-0.362-0.955l-2.565-6.772
		l-2.565,6.772c-0.161,0.293-0.283,0.614-0.362,0.955l0,0l0,0c-0.066,0.285-0.104,0.583-0.104,0.89c0,1.918,1.358,3.475,3.031,3.475
		c1.674,0,3.031-1.557,3.031-3.475C103.715,329.897,103.676,329.599,103.61,329.314z"/>
	<path fill="#009FE3" d="M109.315,294.54L109.315,294.54L109.315,294.54c-0.079-0.344-0.201-0.665-0.362-0.956l-2.565-6.774
		l-2.565,6.774c-0.161,0.291-0.283,0.612-0.362,0.956l0,0l0,0c-0.066,0.284-0.104,0.58-0.104,0.887c0,1.92,1.358,3.477,3.031,3.477
		c1.674,0,3.031-1.557,3.031-3.477C109.419,295.12,109.381,294.824,109.315,294.54z"/>
	<path fill="#009FE3" d="M139.599,237.597L139.599,237.597L139.599,237.597c-0.079-0.344-0.201-0.665-0.362-0.956l-2.565-6.774
		l-2.565,6.774c-0.161,0.291-0.283,0.612-0.362,0.956l0,0l0,0c-0.066,0.284-0.104,0.58-0.104,0.887c0,1.92,1.358,3.477,3.031,3.477
		c1.674,0,3.031-1.557,3.031-3.477C139.703,238.177,139.665,237.881,139.599,237.597z"/>
	<path fill="#009FE3" d="M97.548,247.659L97.548,247.659L97.548,247.659c-0.079-0.343-0.202-0.664-0.362-0.955l-2.565-6.775
		l-2.565,6.775c-0.16,0.291-0.283,0.612-0.361,0.955l0,0l0,0c-0.066,0.285-0.105,0.58-0.105,0.888c0,1.92,1.358,3.476,3.032,3.476
		c1.674,0,3.031-1.556,3.031-3.476C97.652,248.239,97.614,247.944,97.548,247.659z"/>
	<path fill="#009FE3" d="M54.57,279.884L54.57,279.884L54.57,279.884c-0.079-0.344-0.202-0.665-0.362-0.956l-2.565-6.774
		l-2.565,6.774c-0.16,0.291-0.283,0.612-0.361,0.956l0,0l0,0c-0.066,0.284-0.105,0.58-0.105,0.887c0,1.92,1.358,3.477,3.032,3.477
		c1.674,0,3.031-1.557,3.031-3.477C54.675,280.464,54.636,280.168,54.57,279.884z"/>
	<path fill="#009FE3" d="M131.833,214.26L131.833,214.26L131.833,214.26c-0.078-0.344-0.201-0.664-0.362-0.955l-2.565-6.775
		l-2.565,6.775c-0.16,0.291-0.283,0.611-0.362,0.955l0,0l0,0c-0.066,0.284-0.104,0.58-0.104,0.887c0,1.921,1.358,3.477,3.031,3.477
		c1.674,0,3.032-1.556,3.032-3.477C131.938,214.84,131.899,214.544,131.833,214.26z"/>
	<path fill="#009FE3" d="M38.188,208.213L38.188,208.213L38.188,208.213c-0.079-0.341-0.201-0.662-0.362-0.955l-2.565-6.773
		l-2.565,6.773c-0.16,0.293-0.283,0.614-0.362,0.955l0,0l0,0c-0.066,0.284-0.104,0.582-0.104,0.89c0,1.918,1.358,3.474,3.031,3.474
		c1.674,0,3.032-1.556,3.032-3.474C38.293,208.795,38.254,208.498,38.188,208.213z"/>
	<path fill="#009FE3" d="M76.896,147.059L76.896,147.059L76.896,147.059c-0.078-0.343-0.201-0.664-0.361-0.955l-2.565-6.774
		l-2.565,6.774c-0.16,0.291-0.283,0.612-0.361,0.955l0,0l0,0c-0.066,0.285-0.105,0.58-0.105,0.888c0,1.92,1.359,3.476,3.032,3.476
		c1.675,0,3.031-1.556,3.031-3.476C77,147.639,76.962,147.344,76.896,147.059z"/>
	<path fill="#009FE3" d="M230.691,195.897L230.691,195.897L230.691,195.897c-0.078-0.342-0.201-0.662-0.361-0.956l-2.565-6.772
		l-2.564,6.772c-0.161,0.294-0.283,0.614-0.362,0.956l0,0l0,0c-0.065,0.284-0.104,0.582-0.104,0.89c0,1.917,1.358,3.474,3.031,3.474
		c1.675,0,3.031-1.557,3.031-3.474C230.796,196.479,230.758,196.181,230.691,195.897z"/>
	<path fill="#009FE3" d="M182.981,234.519L182.981,234.519L182.981,234.519c-0.078-0.342-0.201-0.662-0.361-0.956l-2.565-6.772
		l-2.565,6.772c-0.16,0.294-0.283,0.614-0.361,0.956l0,0l0,0c-0.066,0.284-0.105,0.582-0.105,0.89c0,1.917,1.358,3.474,3.031,3.474
		c1.675,0,3.031-1.557,3.031-3.474C183.086,235.101,183.048,234.803,182.981,234.519z"/>
	<path fill="#009FE3" d="M69.001,176.214L69.001,176.214L69.001,176.214c-0.077-0.342-0.2-0.662-0.362-0.955l-2.563-6.773
		l-2.566,6.773c-0.159,0.293-0.282,0.613-0.361,0.955l0,0l0,0c-0.066,0.285-0.104,0.582-0.104,0.889c0,1.92,1.357,3.475,3.032,3.475
		s3.03-1.555,3.03-3.475C69.106,176.796,69.067,176.5,69.001,176.214z"/>
	<path fill="#009FE3" d="M291.992,214.26L291.992,214.26L291.992,214.26c-0.079-0.344-0.202-0.664-0.362-0.955l-2.564-6.775
		l-2.565,6.775c-0.16,0.291-0.283,0.611-0.361,0.955l0,0l0,0c-0.066,0.284-0.105,0.58-0.105,0.887c0,1.921,1.358,3.477,3.032,3.477
		s3.031-1.556,3.031-3.477C292.097,214.84,292.058,214.544,291.992,214.26z"/>
	<path fill="#009FE3" d="M291.992,147.058L291.992,147.058L291.992,147.058c-0.079-0.343-0.202-0.663-0.362-0.955l-2.564-6.774
		l-2.565,6.774c-0.16,0.292-0.283,0.612-0.361,0.955l0,0l0,0c-0.066,0.284-0.105,0.581-0.105,0.889c0,1.919,1.358,3.475,3.032,3.475
		s3.031-1.556,3.031-3.475C292.097,147.639,292.058,147.342,291.992,147.058z"/>
	<path fill="#009FE3" d="M283.257,116.218L283.257,116.218L283.257,116.218c-0.079-0.343-0.202-0.663-0.361-0.956l-2.566-6.773
		l-2.563,6.773c-0.162,0.293-0.285,0.613-0.362,0.956l0,0l0,0c-0.065,0.284-0.104,0.581-0.104,0.889c0,1.919,1.358,3.475,3.03,3.475
		c1.675,0,3.032-1.556,3.032-3.475C283.361,116.799,283.323,116.502,283.257,116.218z"/>
	<path fill="#009FE3" d="M346.467,116.218L346.467,116.218L346.467,116.218c-0.078-0.343-0.201-0.663-0.361-0.956l-2.565-6.773
		l-2.564,6.773c-0.161,0.293-0.283,0.613-0.362,0.956l0,0l0,0c-0.065,0.284-0.104,0.581-0.104,0.889
		c0,1.919,1.358,3.475,3.031,3.475c1.675,0,3.031-1.556,3.031-3.475C346.571,116.799,346.533,116.502,346.467,116.218z"/>
	<path fill="#009FE3" d="M337.224,199.391L337.224,199.391L337.224,199.391c-0.077-0.344-0.2-0.664-0.361-0.955l-2.564-6.775
		l-2.565,6.775c-0.16,0.291-0.282,0.611-0.362,0.955l0,0l0,0c-0.065,0.284-0.104,0.58-0.104,0.887c0,1.921,1.358,3.477,3.032,3.477
		c1.675,0,3.03-1.556,3.03-3.477C337.328,199.971,337.29,199.675,337.224,199.391z"/>
	<path fill="#009FE3" d="M62.939,119.112L62.939,119.112L62.939,119.112c-0.078-0.343-0.201-0.663-0.362-0.956l-2.563-6.773
		l-2.566,6.773c-0.159,0.293-0.282,0.613-0.361,0.956l0,0l0,0c-0.066,0.284-0.105,0.581-0.105,0.888
		c0,1.919,1.358,3.476,3.033,3.476c1.674,0,3.03-1.557,3.03-3.476C63.043,119.693,63.004,119.396,62.939,119.112z"/>
	<path fill="#009FE3" d="M265.257,118.766L265.257,118.766L265.257,118.766c-0.228-0.859-0.58-1.667-1.042-2.402l-7.394-17.032
		l-7.394,17.032c-0.462,0.735-0.814,1.543-1.042,2.402l0,0l0,0c-0.189,0.717-0.301,1.463-0.301,2.236
		c0,4.825,3.911,8.736,8.736,8.736s8.735-3.911,8.735-8.736C265.557,120.229,265.445,119.483,265.257,118.766z"/>
	<path fill="#009FE3" d="M256.521,303.133L256.521,303.133L256.521,303.133c-0.228-0.859-0.58-1.667-1.042-2.402l-7.394-17.032
		l-7.394,17.032c-0.462,0.735-0.814,1.543-1.042,2.402l0,0l0,0c-0.189,0.717-0.301,1.463-0.301,2.236
		c0,4.825,3.911,8.736,8.736,8.736s8.735-3.911,8.735-8.736C256.82,304.596,256.709,303.85,256.521,303.133z"/>
	<path fill="#009FE3" d="M209.646,291.431L209.646,291.431L209.646,291.431c-0.162-0.584-0.413-1.135-0.741-1.636l-5.259-11.595
		l-5.257,11.595c-0.328,0.501-0.579,1.052-0.741,1.636l0,0l0,0c-0.135,0.487-0.213,0.997-0.213,1.522
		c0,3.285,2.781,5.949,6.211,5.949c3.432,0,6.213-2.664,6.213-5.949C209.859,292.428,209.78,291.918,209.646,291.431z"/>
	<path fill="#009FE3" d="M254.083,242.807L254.083,242.807L254.083,242.807c-0.161-0.584-0.413-1.135-0.741-1.636l-5.258-11.595
		l-5.258,11.595c-0.328,0.501-0.579,1.052-0.74,1.636l0,0l0,0c-0.135,0.487-0.213,0.997-0.213,1.522c0,3.285,2.78,5.949,6.211,5.949
		c3.432,0,6.213-2.664,6.213-5.949C254.297,243.804,254.217,243.294,254.083,242.807z"/>
	<path fill="#009FE3" d="M197.838,323.269L197.838,323.269L197.838,323.269c-0.078-0.342-0.201-0.662-0.361-0.956l-2.565-6.772
		l-2.565,6.772c-0.16,0.294-0.283,0.614-0.361,0.956l0,0l0,0c-0.066,0.284-0.104,0.582-0.104,0.89c0,1.917,1.358,3.474,3.031,3.474
		c1.675,0,3.031-1.557,3.031-3.474C197.942,323.851,197.904,323.553,197.838,323.269z"/>
	<path fill="#009FE3" d="M215.311,253.705L215.311,253.705L215.311,253.705c-0.078-0.342-0.201-0.662-0.361-0.956l-2.566-6.772
		l-2.564,6.772c-0.16,0.294-0.283,0.614-0.361,0.956l0,0l0,0c-0.066,0.284-0.105,0.582-0.105,0.89c0,1.917,1.359,3.474,3.031,3.474
		c1.676,0,3.031-1.557,3.031-3.474C215.414,254.287,215.377,253.989,215.311,253.705z"/>
	<path fill="#009FE3" d="M233.723,278.14L233.723,278.14L233.723,278.14c-0.078-0.342-0.201-0.662-0.361-0.956l-2.565-6.772
		l-2.565,6.772c-0.16,0.294-0.283,0.614-0.361,0.956l0,0l0,0c-0.066,0.284-0.104,0.582-0.104,0.89c0,1.917,1.358,3.474,3.031,3.474
		c1.675,0,3.031-1.557,3.031-3.474C233.827,278.722,233.789,278.424,233.723,278.14z"/>
</g>
<g id="Layer_3">
	<g>
		<path fill="#DADADA" d="M264.566,149.957c-5.893-12.134-17.801-20.313-31.359-20.016c-0.766,0.017-1.521,0.07-2.273,0.14
			c-8.299-14.299-23.332-23.706-40.309-23.333c-19.168,0.419-35.323,13.177-41.865,30.959c-1.159-0.102-2.333-0.141-3.52-0.114
			c-14.771,0.323-27.146,10.605-31.737,24.771c-0.049,0-0.097-0.002-0.145-0.001c-13.228,0.289-23.707,11.607-23.408,25.279
			c0.3,13.672,11.265,24.521,24.492,24.232c5.369-0.118,10.284-2.054,14.211-5.225c5.335,3.385,11.575,5.273,18.212,5.128
			c6.744-0.147,12.984-2.379,18.218-6.101c6.45,7.146,15.523,11.512,25.491,11.293c11.812-0.258,22.091-6.889,28.085-16.778
			c4.86,2.628,10.364,4.063,16.173,3.936c7.688-0.168,14.727-3.037,20.359-7.744c2.996,1.433,6.33,2.2,9.83,2.124
			c12.604-0.276,22.582-11.368,22.289-24.776C287.023,160.54,276.898,150.031,264.566,149.957z"/>
		<path opacity="0.05" fill="#312783" d="M287.311,173.691c-0.131-6.05-2.338-11.532-5.873-15.706
			c-1.596,31.042-25.676,29.432-25.676,29.432c-13.182,14.564-40.057,4.331-40.057,4.331c-30.057,23.896-50.855-2.771-50.855-2.771
			c-18.64,9.307-36.361-1.555-36.361-1.555c-28.212,7.1-34.401-14.28-34.401-14.283c-2.71,4.113-4.254,9.105-4.137,14.463
			c0.3,13.672,11.265,24.521,24.492,24.232c5.369-0.118,10.284-2.054,14.211-5.225c5.335,3.385,11.575,5.273,18.212,5.128
			c6.744-0.147,12.984-2.379,18.218-6.101c6.45,7.146,15.523,11.512,25.491,11.293c11.812-0.258,22.091-6.889,28.085-16.778
			c4.86,2.628,10.364,4.063,16.173,3.936c7.688-0.168,14.727-3.037,20.359-7.744c2.996,1.433,6.33,2.2,9.83,2.124
			C277.625,198.191,287.604,187.099,287.311,173.691z"/>
		<path opacity="0.3" fill="#F6F6F6" d="M281.117,158.138c-4.17-4.895-10.176-7.973-16.826-8.012
			c-5.891-12.135-17.801-20.313-31.357-20.016c-0.766,0.016-1.523,0.07-2.275,0.139c-8.298-14.299-23.33-23.705-40.309-23.332
			c-19.167,0.418-35.322,13.176-41.864,30.959c-1.159-0.102-2.333-0.141-3.52-0.115c-14.771,0.324-27.146,10.605-31.737,24.771
			c-0.049,0-0.097-0.002-0.145-0.002c-8.001,0.176-14.991,4.389-19.205,10.715c0.684-0.641,8.582-7.729,21.608-6.041
			c0,0,12.387-34.125,36.817-22.361c0,0,27.158-62.368,77.215-9.576c0,0,21.436-3.271,33.576,19.607
			C263.096,154.875,265.926,152.798,281.117,158.138z"/>
		<path fill="#C6C6C6" d="M344.082,38.29c-3.607,0-7.054,0.72-10.227,2.02c-3.865-2.894-8.265-5.032-13.014-6.217
			c-3.859-11.659-14.361-20.025-26.719-20.025c-0.169,0-0.335,0.01-0.503,0.013C284.424,5.372,271.88,0,258.041,0
			c-11.175,0-21.504,3.507-29.911,9.439c-3.471-0.811-7.104-1.245-10.846-1.245c-14.741,0-27.789,6.683-35.83,16.95
			c-2.682-0.688-5.502-1.062-8.417-1.062c-17.551,0-31.779,13.301-31.779,29.709c0,9.71,4.984,18.331,12.69,23.753
			c-0.021,0.48-0.043,0.961-0.043,1.445c0,20.961,19.962,37.951,44.585,37.951c12.998,0,24.694-4.737,32.844-12.291
			c7.444,4.748,16.689,7.561,26.707,7.561c11.216,0,21.456-3.533,29.292-9.354c6.63,6.207,15.331,9.981,24.867,9.981
			c11.85,0,22.414-5.821,29.308-14.907c0.849,0.08,1.706,0.129,2.574,0.129c15.631,0,28.303-13.379,28.303-29.885
			C372.385,51.67,359.713,38.29,344.082,38.29z"/>
		<path opacity="0.05" fill="#312783" d="M335.727,90.915c-17.056,22.857-49.611,3.982-49.611,3.982
			c-22.667,20.84-57.538,0.473-57.538,0.473c-42.205,27.313-74.629-17.824-74.629-17.824c-0.021,0.48-0.043,0.961-0.043,1.445
			c0,20.961,19.962,37.951,44.585,37.951c12.998,0,24.694-4.737,32.844-12.291c7.444,4.748,16.689,7.561,26.707,7.561
			c11.216,0,21.456-3.533,29.292-9.354c6.63,6.207,15.331,9.981,24.867,9.981c11.85,0,22.414-5.821,29.308-14.907
			c0.849,0.08,1.706,0.129,2.574,0.129c15.631,0,28.303-13.379,28.303-29.885c0-2.217-0.235-4.374-0.669-6.453
			C366.649,91.389,335.727,90.915,335.727,90.915z"/>
		<path opacity="0.3" fill="#FFFFFF" d="M371.617,58.471c-3.816-11.74-14.355-20.181-26.768-20.181c-3.607,0-7.054,0.72-10.227,2.02
			c-3.865-2.894-8.265-5.032-13.014-6.218c-3.859-11.658-14.361-20.025-26.719-20.025c-0.169,0-0.335,0.011-0.503,0.014
			C285.191,5.371,272.647,0,258.809,0c-11.175,0-21.504,3.508-29.911,9.439c-3.471-0.811-7.104-1.245-10.846-1.245
			c-14.741,0-27.789,6.683-35.83,16.95c-2.682-0.688-5.502-1.062-8.417-1.062c-17.551,0-31.779,13.302-31.779,29.71
			c0,9.71,4.984,18.331,12.69,23.752c0,0-16.722-39.174,30.723-48.999c0,0,31.13-24.318,43.906-11.157
			c0,0,33.539-22.341,58.872,4.163c0,0,20,1.857,28,21.514c0,0,8,0.572,16,6.114C332.217,49.181,360.353,44.219,371.617,58.471z"/>
		<path fill="#DADADA" d="M24.668,62.508c6.387-14.309,19.3-23.954,33.997-23.604c0.83,0.02,1.652,0.083,2.468,0.165
			c8.997-16.862,25.295-27.956,43.701-27.516c20.781,0.494,38.296,15.539,45.389,36.509c1.257-0.12,2.53-0.166,3.816-0.135
			c16.014,0.381,29.431,12.507,34.41,29.211c0.052,0,0.104-0.002,0.156-0.001c14.341,0.341,25.702,13.688,25.378,29.812
			s-12.213,28.918-26.554,28.577c-5.821-0.14-11.15-2.422-15.407-6.161c-5.784,3.991-12.55,6.219-19.745,6.047
			c-7.312-0.174-14.077-2.806-19.752-7.194c-6.993,8.427-16.83,13.575-27.637,13.317c-12.806-0.304-23.951-8.123-30.45-19.786
			c-5.268,3.099-11.235,4.791-17.533,4.642c-8.337-0.198-15.966-3.582-22.073-9.133c-3.248,1.689-6.862,2.595-10.657,2.505
			c-13.667-0.326-24.485-13.406-24.168-29.219C0.32,74.989,11.298,62.595,24.668,62.508z"/>
		<path opacity="0.05" fill="#312783" d="M0.007,90.498c0.145-7.135,2.535-13.601,6.368-18.522
			c1.729,36.607,27.839,34.709,27.839,34.709c14.292,17.176,43.429,5.107,43.429,5.107c32.587,28.18,55.137-3.268,55.137-3.268
			c20.208,10.976,39.421-1.834,39.421-1.834c30.589,8.373,37.299-16.84,37.299-16.844c2.938,4.852,4.611,10.738,4.484,17.057
			c-0.324,16.123-12.213,28.918-26.554,28.577c-5.821-0.14-11.15-2.422-15.407-6.162c-5.784,3.992-12.55,6.22-19.745,6.048
			c-7.312-0.174-14.077-2.806-19.752-7.194c-6.993,8.427-16.83,13.575-27.637,13.317c-12.806-0.304-23.951-8.124-30.45-19.786
			c-5.268,3.099-11.235,4.791-17.533,4.641c-8.337-0.197-15.966-3.581-22.073-9.132c-3.248,1.689-6.862,2.595-10.657,2.505
			C10.508,119.39-0.311,106.309,0.007,90.498z"/>
		<path opacity="0.3" fill="#F6F6F6" d="M6.722,72.157c4.521-5.772,11.032-9.402,18.243-9.449
			c6.389-14.31,19.299-23.954,33.999-23.604c0.83,0.019,1.649,0.083,2.465,0.164c8.997-16.862,25.296-27.955,43.704-27.515
			c20.78,0.493,38.295,15.538,45.388,36.51c1.257-0.12,2.529-0.166,3.816-0.136c16.014,0.382,29.43,12.507,34.409,29.212
			c0.053,0,0.104-0.002,0.156-0.002c8.675,0.207,16.254,5.176,20.821,12.636c-0.74-0.755-9.304-9.114-23.427-7.124
			c0,0-13.43-40.243-39.917-26.37c0,0-29.444-73.55-83.717-11.293c0,0-23.24-3.858-36.403,23.123
			C26.26,68.308,23.192,65.859,6.722,72.157z"/>
	</g>
</g>
</svg>
