<?xml version="1.0" encoding="utf-8"?>
<!-- Generator: Adobe Illustrator 16.0.0, SVG Export Plug-In . SVG Version: 6.00 Build 0)  -->
<!DOCTYPE svg PUBLIC "-//W3C//DTD SVG 1.1//EN" "http://www.w3.org/Graphics/SVG/1.1/DTD/svg11.dtd">
<svg version="1.1" xmlns="http://www.w3.org/2000/svg" xmlns:xlink="http://www.w3.org/1999/xlink" x="0px" y="0px"
	 width="346.002px" height="346.002px" viewBox="0 0 346.002 346.002" enable-background="new 0 0 346.002 346.002"
	 xml:space="preserve">
<g id="Layer_3">
	<circle fill="#DADADA" cx="173.001" cy="173.001" r="173.001"/>
	<path opacity="0.1" fill="#1D1D1B" d="M68.725,311.045c28.996,21.937,65.113,34.957,104.276,34.957
		c95.546,0,173.001-77.455,173.001-173.001c0-21.57-3.959-42.213-11.171-61.256c-0.002,0.012-0.005,0.023-0.007,0.036
		C291.073,373.921,68.81,311.068,68.725,311.045z"/>
	<circle fill="#C6C6C6" cx="64.349" cy="142.298" r="4.375"/>
	<circle fill="#C6C6C6" cx="97.941" cy="203.812" r="4.375"/>
	<circle fill="#C6C6C6" cx="183.819" cy="75.644" r="4.375"/>
	<circle fill="#C6C6C6" cx="166.318" cy="142.298" r="4.375"/>
	<circle fill="#B2B2B2" cx="275.553" cy="158.684" r="4.375"/>
	<circle fill="#C6C6C6" cx="147.149" cy="302.465" r="4.375"/>
	<circle fill="#C6C6C6" cx="151.525" cy="188.941" r="10.496"/>
	<circle fill="#C6C6C6" cx="121.008" cy="111.78" r="10.496"/>
	<circle fill="#C6C6C6" cx="79.219" cy="251.222" r="10.496"/>
	<path fill="#B2B2B2" d="M251.426,232.905c0,13.653-11.063,24.722-24.717,24.722s-24.725-11.068-24.725-24.722
		c0-13.652,11.071-24.717,24.725-24.717S251.426,219.253,251.426,232.905z"/>
	<circle fill="#C6C6C6" cx="226.705" cy="119.468" r="18.186"/>
	<path fill="#C6C6C6" d="M6.039,167.019c13.654,0,24.717-11.068,24.717-24.722c0-12.646-9.499-23.055-21.75-24.522
		c-5.157,15.321-8.216,31.604-8.863,48.506C2.035,166.745,4.003,167.019,6.039,167.019z"/>
	<path fill="#B2B2B2" d="M306.631,63.123c-13.754,7.182-23.15,21.568-23.15,38.158c0,23.772,19.274,43.042,43.047,43.042
		c5.853,0,11.43-1.173,16.515-3.289C337.583,111.817,324.79,85.181,306.631,63.123z"/>
	<path fill="#C6C6C6" d="M52.875,58.246c0,13.653,11.071,24.721,24.725,24.721s24.717-11.068,24.717-24.721
		c0-13.652-11.063-24.717-24.717-24.717c-2.739,0-5.364,0.463-7.827,1.285c-4.724,3.488-9.268,7.204-13.606,11.144
		C54.083,49.579,52.875,53.767,52.875,58.246z"/>
	<circle fill="#C6C6C6" cx="148.512" cy="254.001" r="17.004"/>
	<path fill="#B2B2B2" d="M238.864,295.784c-13.148,0-23.809,10.654-23.809,23.803c0,7.216,3.223,13.667,8.294,18.032
		c13.904-4.125,27.076-9.949,39.276-17.233c0.009-0.268,0.04-0.529,0.04-0.799C262.666,306.438,252.013,295.784,238.864,295.784z"/>
	<path fill="#B2B2B2" d="M315.148,252.101c-6.28,0-11.374,5.091-11.374,11.372c0,5.545,3.974,10.158,9.226,11.164
		c4.136-5.688,7.932-11.634,11.362-17.813C322.297,253.966,318.945,252.101,315.148,252.101z"/>
	<circle fill="#C6C6C6" cx="201.984" cy="28.325" r="12.982"/>
</g>
<g id="Layer_2">
	<path opacity="0.2" fill="#F6F6F6" d="M173.001,0C77.455,0,0,77.455,0,173.001c0,21.061,3.768,41.239,10.658,59.906h0
		c0,0-8.808-251.388,240.767-214.147h0.001C227.885,6.767,201.233,0,173.001,0z"/>
</g>
</svg>
