<?xml version="1.0" encoding="utf-8"?>
<!-- Generator: Adobe Illustrator 16.0.0, SVG Export Plug-In . SVG Version: 6.00 Build 0)  -->
<!DOCTYPE svg PUBLIC "-//W3C//DTD SVG 1.1//EN" "http://www.w3.org/Graphics/SVG/1.1/DTD/svg11.dtd">
<svg version="1.1" xmlns="http://www.w3.org/2000/svg" xmlns:xlink="http://www.w3.org/1999/xlink" x="0px" y="0px" width="450px"
	 height="450px" viewBox="0 0 450 450" enable-background="new 0 0 450 450" xml:space="preserve">
<g id="Layer_4">
</g>
<g id="Layer_2">
</g>
<g id="Layer_3">
	<g>
		<radialGradient id="SVGID_1_" cx="225" cy="225" r="169.25" gradientUnits="userSpaceOnUse">
			<stop  offset="0" style="stop-color:#000000;stop-opacity:0"/>
			<stop  offset="1" style="stop-color:#FFFFFF;stop-opacity:0.2"/>
		</radialGradient>
		<circle fill="url(#SVGID_1_)" cx="225" cy="225" r="169.25"/>
		<radialGradient id="SVGID_2_" cx="225" cy="224.999" r="153.75" gradientUnits="userSpaceOnUse">
			<stop  offset="0" style="stop-color:#000000;stop-opacity:0"/>
			<stop  offset="1" style="stop-color:#FFFFFF;stop-opacity:0.1"/>
		</radialGradient>
		<circle fill="url(#SVGID_2_)" cx="225" cy="224.999" r="153.75"/>
		<radialGradient id="SVGID_3_" cx="225" cy="224.999" r="136.75" gradientUnits="userSpaceOnUse">
			<stop  offset="0" style="stop-color:#000000;stop-opacity:0"/>
			<stop  offset="1" style="stop-color:#FFFFFF;stop-opacity:0.1"/>
		</radialGradient>
		<circle fill="url(#SVGID_3_)" cx="225" cy="224.999" r="136.75"/>
		<circle fill="#DADADA" cx="225" cy="225" r="108.698"/>
		<path opacity="0.1" fill="#1D1D1B" d="M159.482,311.734c18.219,13.782,40.91,21.963,65.517,21.963
			c60.033,0,108.698-48.665,108.698-108.697c0-13.554-2.487-26.523-7.019-38.488c-0.001,0.009-0.003,0.015-0.004,0.022
			C299.186,351.239,159.535,311.749,159.482,311.734z"/>
		<circle fill="#C6C6C6" cx="156.733" cy="205.709" r="2.749"/>
		<circle fill="#C6C6C6" cx="177.839" cy="244.358" r="2.749"/>
		<circle fill="#C6C6C6" cx="231.797" cy="163.829" r="2.749"/>
		<circle fill="#C6C6C6" cx="220.801" cy="205.709" r="2.749"/>
		<circle fill="#B2B2B2" cx="289.434" cy="216.004" r="2.75"/>
		<circle fill="#C6C6C6" cx="208.757" cy="306.343" r="2.749"/>
		<circle fill="#C6C6C6" cx="211.506" cy="235.016" r="6.594"/>
		<circle fill="#C6C6C6" cx="192.333" cy="186.534" r="6.594"/>
		<circle fill="#C6C6C6" cx="166.076" cy="274.146" r="6.595"/>
		<circle fill="#B2B2B2" cx="258.742" cy="262.638" r="15.532"/>
		<circle fill="#C6C6C6" cx="258.742" cy="191.364" r="11.426"/>
		<path fill="#C6C6C6" d="M120.096,221.241c8.579,0,15.53-6.955,15.53-15.533c0-7.946-5.968-14.485-13.666-15.407
			c-3.24,9.627-5.163,19.856-5.568,30.477C117.58,221.069,118.817,221.241,120.096,221.241z"/>
		<path fill="#B2B2B2" d="M308.96,155.962c-8.641,4.514-14.545,13.552-14.545,23.976c0,14.937,12.11,27.044,27.047,27.044
			c3.677,0,7.181-0.737,10.376-2.067C328.408,186.558,320.37,169.821,308.96,155.962z"/>
		<path fill="#C6C6C6" d="M149.523,152.897c0,8.578,6.956,15.533,15.534,15.533c8.579,0,15.53-6.955,15.53-15.533
			c0-8.577-6.951-15.529-15.53-15.529c-1.721,0-3.37,0.291-4.917,0.807c-2.968,2.191-5.822,4.526-8.549,7.002
			C150.283,147.452,149.523,150.084,149.523,152.897z"/>
		<circle fill="#C6C6C6" cx="209.613" cy="275.893" r="10.684"/>
		<path fill="#B2B2B2" d="M266.382,302.146c-8.261,0-14.959,6.694-14.959,14.955c0,4.533,2.024,8.587,5.211,11.33
			c8.736-2.592,17.012-6.251,24.679-10.828c0.005-0.168,0.024-0.333,0.024-0.502C281.337,308.84,274.643,302.146,266.382,302.146z"
			/>
		<path fill="#B2B2B2" d="M314.313,274.698c-3.946,0-7.147,3.199-7.147,7.146c0,3.484,2.497,6.382,5.798,7.015
			c2.598-3.573,4.982-7.31,7.139-11.192C318.804,275.871,316.698,274.698,314.313,274.698z"/>
		<circle fill="#C6C6C6" cx="243.21" cy="134.099" r="8.157"/>
		<path opacity="0.2" fill="#F6F6F6" d="M224.999,116.302c-60.032,0-108.697,48.665-108.697,108.698
			c0,13.232,2.367,25.911,6.697,37.639l0,0c0,0-5.534-157.948,151.275-134.55h0.001
			C259.483,120.554,242.738,116.302,224.999,116.302z"/>
	</g>
</g>
<g id="Layer_1">
</g>
</svg>
