<?xml version="1.0" encoding="utf-8"?>
<!-- Generator: Adobe Illustrator 16.0.0, SVG Export Plug-In . SVG Version: 6.00 Build 0)  -->
<!DOCTYPE svg PUBLIC "-//W3C//DTD SVG 1.1//EN" "http://www.w3.org/Graphics/SVG/1.1/DTD/svg11.dtd">
<svg version="1.1" xmlns="http://www.w3.org/2000/svg" xmlns:xlink="http://www.w3.org/1999/xlink" x="0px" y="0px"
	 width="392.637px" height="388.386px" viewBox="0 0 392.637 388.386" enable-background="new 0 0 392.637 388.386"
	 xml:space="preserve">
<g id="Layer_2">
	<circle fill="#DADADA" cx="196.318" cy="173.001" r="173.001"/>
	<path opacity="0.1" fill="#1D1D1B" d="M92.042,311.045c28.996,21.937,65.113,34.957,104.276,34.957
		c95.546,0,173.001-77.455,173.001-173.001c0-21.57-3.959-42.213-11.171-61.256c-0.002,0.012-0.005,0.023-0.007,0.036
		C314.391,373.921,92.127,311.068,92.042,311.045z"/>
	<circle fill="#C6C6C6" cx="87.666" cy="142.298" r="4.375"/>
	<circle fill="#C6C6C6" cx="121.258" cy="203.812" r="4.375"/>
	<circle fill="#C6C6C6" cx="207.136" cy="75.644" r="4.375"/>
	<circle fill="#C6C6C6" cx="189.636" cy="142.298" r="4.375"/>
	<circle fill="#B2B2B2" cx="298.871" cy="158.684" r="4.375"/>
	<circle fill="#C6C6C6" cx="170.467" cy="302.465" r="4.375"/>
	<circle fill="#C6C6C6" cx="174.842" cy="188.941" r="10.496"/>
	<circle fill="#C6C6C6" cx="144.325" cy="111.78" r="10.496"/>
	<circle fill="#C6C6C6" cx="102.537" cy="251.222" r="10.496"/>
	<path fill="#B2B2B2" d="M274.743,232.905c0,13.653-11.063,24.722-24.717,24.722s-24.725-11.068-24.725-24.722
		c0-13.652,11.071-24.717,24.725-24.717S274.743,219.253,274.743,232.905z"/>
	<circle fill="#C6C6C6" cx="250.022" cy="119.468" r="18.186"/>
	<path fill="#C6C6C6" d="M29.356,167.019c13.654,0,24.717-11.068,24.717-24.722c0-12.646-9.499-23.055-21.75-24.522
		c-5.157,15.321-8.216,31.604-8.863,48.506C25.352,166.745,27.32,167.019,29.356,167.019z"/>
	<path fill="#B2B2B2" d="M329.948,63.123c-13.754,7.182-23.15,21.568-23.15,38.158c0,23.772,19.274,43.042,43.047,43.042
		c5.853,0,11.43-1.173,16.515-3.289C360.9,111.817,348.107,85.181,329.948,63.123z"/>
	<path fill="#C6C6C6" d="M76.192,58.246c0,13.653,11.071,24.721,24.725,24.721s24.717-11.068,24.717-24.721
		c0-13.652-11.063-24.717-24.717-24.717c-2.739,0-5.364,0.463-7.827,1.285c-4.724,3.488-9.268,7.204-13.606,11.144
		C77.401,49.579,76.192,53.767,76.192,58.246z"/>
	<circle fill="#C6C6C6" cx="171.829" cy="254.001" r="17.004"/>
	<path fill="#B2B2B2" d="M262.182,295.784c-13.148,0-23.809,10.654-23.809,23.803c0,7.216,3.223,13.667,8.294,18.032
		c13.904-4.125,27.076-9.949,39.276-17.233c0.009-0.268,0.04-0.529,0.04-0.799C285.983,306.438,275.33,295.784,262.182,295.784z"/>
	<path fill="#B2B2B2" d="M338.466,252.101c-6.28,0-11.374,5.091-11.374,11.372c0,5.545,3.974,10.158,9.226,11.164
		c4.136-5.688,7.932-11.634,11.362-17.813C345.614,253.966,342.263,252.101,338.466,252.101z"/>
	<circle fill="#C6C6C6" cx="225.302" cy="28.325" r="12.982"/>
	<path opacity="0.2" fill="#F6F6F6" d="M196.318,0C100.772,0,23.317,77.455,23.317,173.001c0,21.061,3.768,41.239,10.658,59.906h0
		c0,0-8.808-251.388,240.767-214.147h0.001C251.202,6.767,224.551,0,196.318,0z"/>
</g>
<g id="Layer_1">
	<path fill="#009FE3" d="M112.365,336.474L112.365,336.474L112.365,336.474c-0.239-0.902-0.609-1.748-1.093-2.518l-7.749-17.852
		l-7.749,17.852c-0.484,0.77-0.854,1.615-1.093,2.518l0,0l0,0c-0.198,0.75-0.314,1.533-0.314,2.344c0,5.057,4.099,9.154,9.155,9.154
		c5.057,0,9.156-4.098,9.156-9.154C112.679,338.007,112.563,337.224,112.365,336.474z"/>
	<path fill="#009FE3" d="M179.174,368.341L179.174,368.341L179.174,368.341c-0.238-0.9-0.608-1.748-1.092-2.518l-7.749-17.852
		l-7.749,17.852c-0.484,0.77-0.854,1.617-1.093,2.518l0,0l0,0c-0.198,0.752-0.314,1.533-0.314,2.344
		c0,5.057,4.099,9.156,9.156,9.156s9.155-4.1,9.155-9.156C179.488,369.874,179.372,369.093,179.174,368.341z"/>
	<path fill="#009FE3" d="M223.452,332.812L223.452,332.812L223.452,332.812c-0.238-0.902-0.608-1.748-1.093-2.518l-7.749-17.852
		l-7.749,17.852c-0.483,0.77-0.854,1.615-1.092,2.518l0,0l0,0c-0.198,0.75-0.314,1.533-0.314,2.344c0,5.057,4.1,9.154,9.155,9.154
		c5.058,0,9.155-4.098,9.155-9.154C223.766,334.345,223.65,333.562,223.452,332.812z"/>
	<path fill="#009FE3" d="M333.321,298.491L333.321,298.491L333.321,298.491c-0.239-0.9-0.609-1.746-1.094-2.518l-7.749-17.852
		l-7.749,17.852c-0.483,0.771-0.854,1.617-1.093,2.518l0,0l0,0c-0.198,0.752-0.313,1.533-0.313,2.344c0,5.059,4.1,9.156,9.155,9.156
		s9.156-4.098,9.156-9.156C333.635,300.024,333.519,299.243,333.321,298.491z"/>
	<path fill="#009FE3" d="M312.974,373.288L312.974,373.288L312.974,373.288c-0.238-0.9-0.608-1.746-1.092-2.518l-7.749-17.85
		l-7.749,17.85c-0.484,0.771-0.854,1.617-1.092,2.518l0,0l0,0c-0.198,0.752-0.315,1.533-0.315,2.344
		c0,5.059,4.099,9.156,9.156,9.156c5.057,0,9.155-4.098,9.155-9.156C313.288,374.821,313.172,374.04,312.974,373.288z"/>
	<path fill="#009FE3" d="M336.981,236.501L336.981,236.501L336.981,236.501c-0.238-0.902-0.608-1.748-1.093-2.518l-7.749-17.852
		l-7.749,17.852c-0.483,0.77-0.854,1.615-1.092,2.518l0,0l0,0c-0.197,0.75-0.314,1.531-0.314,2.344c0,5.057,4.1,9.156,9.155,9.156
		c5.058,0,9.156-4.1,9.156-9.156C337.296,238.032,337.18,237.251,336.981,236.501z"/>
	<path fill="#009FE3" d="M261.854,350.99L261.854,350.99L261.854,350.99c-0.169-0.613-0.433-1.189-0.776-1.715l-5.511-12.152
		l-5.51,12.152c-0.344,0.525-0.607,1.102-0.777,1.715l0,0l0,0c-0.141,0.51-0.223,1.045-0.223,1.596c0,3.441,2.914,6.234,6.51,6.234
		s6.511-2.793,6.511-6.234C262.077,352.035,261.994,351.5,261.854,350.99z"/>
	<path fill="#009FE3" d="M277.362,319.122L277.362,319.122L277.362,319.122c-0.17-0.611-0.433-1.189-0.777-1.713l-5.51-12.152
		l-5.511,12.152c-0.343,0.523-0.607,1.102-0.777,1.713l0,0l0,0c-0.141,0.512-0.223,1.045-0.223,1.596
		c0,3.443,2.915,6.234,6.511,6.234c3.595,0,6.511-2.791,6.511-6.234C277.586,320.167,277.503,319.634,277.362,319.122z"/>
	<path fill="#009FE3" d="M184.071,323.858L184.071,323.858L184.071,323.858c-0.169-0.613-0.433-1.189-0.776-1.715l-5.511-12.152
		l-5.51,12.152c-0.344,0.525-0.607,1.102-0.777,1.715l0,0l0,0c-0.141,0.51-0.223,1.045-0.223,1.596c0,3.441,2.914,6.234,6.51,6.234
		s6.511-2.793,6.511-6.234C184.295,324.903,184.212,324.368,184.071,323.858z"/>
	<path fill="#009FE3" d="M68.101,335.06L68.101,335.06L68.101,335.06c-0.169-0.615-0.433-1.189-0.776-1.715l-5.511-12.152
		l-5.51,12.152c-0.344,0.525-0.607,1.1-0.776,1.715l0,0l0,0c-0.141,0.51-0.224,1.041-0.224,1.596c0,3.441,2.915,6.232,6.51,6.232
		c3.596,0,6.511-2.791,6.511-6.232C68.325,336.101,68.242,335.569,68.101,335.06z"/>
	<path fill="#009FE3" d="M84.988,380.558L84.988,380.558L84.988,380.558c-0.169-0.615-0.433-1.189-0.776-1.713l-5.511-12.152
		l-5.51,12.152c-0.344,0.523-0.607,1.098-0.776,1.713l0,0l0,0c-0.141,0.512-0.224,1.043-0.224,1.596c0,3.443,2.915,6.232,6.51,6.232
		c3.596,0,6.511-2.789,6.511-6.232C85.212,381.601,85.129,381.069,84.988,380.558z"/>
	<path fill="#009FE3" d="M298.858,288.595L298.858,288.595L298.858,288.595c-0.169-0.613-0.432-1.189-0.775-1.715l-5.512-12.152
		l-5.51,12.152c-0.344,0.525-0.607,1.102-0.776,1.715l0,0l0,0c-0.141,0.51-0.223,1.043-0.223,1.596c0,3.441,2.913,6.232,6.509,6.232
		c3.597,0,6.512-2.791,6.512-6.232C299.083,289.638,298.999,289.104,298.858,288.595z"/>
	<path fill="#009FE3" d="M364.336,275.124L364.336,275.124L364.336,275.124c-0.17-0.613-0.434-1.189-0.777-1.713l-5.511-12.152
		l-5.51,12.152c-0.344,0.523-0.608,1.1-0.777,1.713l0,0l0,0c-0.141,0.512-0.223,1.043-0.223,1.596c0,3.443,2.915,6.234,6.51,6.234
		c3.596,0,6.512-2.791,6.512-6.234C364.56,276.167,364.477,275.636,364.336,275.124z"/>
	<path fill="#009FE3" d="M239.664,284.118L239.664,284.118L239.664,284.118c-0.169-0.613-0.434-1.189-0.777-1.715l-5.51-12.152
		l-5.51,12.152c-0.345,0.525-0.608,1.102-0.777,1.715l0,0l0,0c-0.141,0.51-0.225,1.043-0.225,1.596c0,3.441,2.916,6.232,6.512,6.232
		s6.511-2.791,6.511-6.232C239.888,285.161,239.805,284.628,239.664,284.118z"/>
	<path fill="#009FE3" d="M234.937,231.956L234.937,231.956L234.937,231.956c-0.17-0.615-0.432-1.191-0.776-1.715l-5.511-12.152
		l-5.511,12.152c-0.343,0.523-0.606,1.1-0.775,1.715l0,0l0,0c-0.141,0.51-0.224,1.043-0.224,1.594c0,3.443,2.914,6.234,6.51,6.234
		c3.597,0,6.511-2.791,6.511-6.234C235.16,232.999,235.077,232.466,234.937,231.956z"/>
	<path fill="#009FE3" d="M231.589,366.925L231.589,366.925L231.589,366.925c-0.169-0.611-0.433-1.189-0.776-1.713l-5.511-12.154
		l-5.51,12.154c-0.345,0.523-0.607,1.102-0.777,1.713l0,0l0,0c-0.141,0.512-0.224,1.045-0.224,1.596
		c0,3.443,2.915,6.234,6.511,6.234s6.511-2.791,6.511-6.234C231.813,367.97,231.729,367.437,231.589,366.925z"/>
	<path fill="#009FE3" d="M336.702,339.789L336.702,339.789L336.702,339.789c-0.082-0.357-0.211-0.693-0.379-1.002l-2.688-7.098
		l-2.688,7.098c-0.168,0.309-0.296,0.645-0.379,1.002l0,0l0,0c-0.069,0.299-0.11,0.611-0.11,0.932c0,2.012,1.424,3.643,3.178,3.643
		c1.755,0,3.178-1.631,3.178-3.643C336.813,340.4,336.771,340.088,336.702,339.789z"/>
	<path fill="#009FE3" d="M136.17,374.793L136.17,374.793L136.17,374.793c-0.082-0.361-0.211-0.697-0.379-1.002l-2.688-7.1
		l-2.688,7.1c-0.168,0.305-0.297,0.641-0.379,1.002l0,0l0,0c-0.069,0.297-0.109,0.607-0.109,0.93c0,2.012,1.423,3.643,3.177,3.643
		c1.755,0,3.177-1.631,3.177-3.643C136.28,375.4,136.239,375.09,136.17,374.793z"/>
	<path fill="#009FE3" d="M147.485,357.911L147.485,357.911L147.485,357.911c-0.082-0.361-0.211-0.697-0.379-1.002l-2.688-7.102
		l-2.688,7.102c-0.168,0.305-0.297,0.641-0.379,1.002l0,0l0,0c-0.069,0.297-0.109,0.607-0.109,0.93c0,2.012,1.423,3.643,3.177,3.643
		c1.755,0,3.177-1.631,3.177-3.643C147.595,358.519,147.554,358.208,147.485,357.911z"/>
	<path fill="#009FE3" d="M103.414,368.456L103.414,368.456L103.414,368.456c-0.083-0.359-0.211-0.697-0.379-1.002l-2.688-7.1
		l-2.688,7.1c-0.168,0.305-0.297,0.643-0.379,1.002l0,0l0,0c-0.069,0.297-0.11,0.607-0.11,0.93c0,2.012,1.423,3.643,3.177,3.643
		c1.755,0,3.177-1.631,3.177-3.643C103.523,369.063,103.482,368.753,103.414,368.456z"/>
	<path fill="#009FE3" d="M139.347,333.452L139.347,333.452L139.347,333.452c-0.082-0.359-0.211-0.695-0.379-1.002l-2.688-7.1
		l-2.688,7.1c-0.168,0.307-0.297,0.643-0.379,1.002l0,0l0,0c-0.069,0.299-0.109,0.607-0.109,0.93c0,2.014,1.423,3.645,3.177,3.645
		c1.755,0,3.177-1.631,3.177-3.645C139.457,334.06,139.416,333.751,139.347,333.452z"/>
	<path fill="#009FE3" d="M41.202,327.114L41.202,327.114L41.202,327.114c-0.083-0.357-0.211-0.693-0.379-1l-2.688-7.098
		l-2.688,7.098c-0.168,0.307-0.297,0.643-0.379,1l0,0l0,0c-0.069,0.299-0.11,0.611-0.11,0.934c0,2.01,1.423,3.641,3.177,3.641
		c1.754,0,3.177-1.631,3.177-3.641C41.312,327.726,41.271,327.413,41.202,327.114z"/>
	<path fill="#009FE3" d="M202.563,304.524L202.563,304.524L202.563,304.524c-0.082-0.361-0.211-0.697-0.379-1.002l-2.688-7.1
		l-2.688,7.1c-0.168,0.305-0.297,0.641-0.379,1.002l0,0l0,0c-0.069,0.297-0.11,0.607-0.11,0.93c0,2.012,1.425,3.643,3.178,3.643
		c1.755,0,3.178-1.631,3.178-3.643C202.673,305.132,202.632,304.821,202.563,304.524z"/>
	<path fill="#009FE3" d="M242.955,314.206L242.955,314.206L242.955,314.206c-0.083-0.357-0.211-0.693-0.38-1l-2.688-7.1l-2.688,7.1
		c-0.168,0.307-0.297,0.643-0.379,1l0,0l0,0c-0.069,0.299-0.11,0.611-0.11,0.934c0,2.01,1.424,3.641,3.178,3.641
		c1.755,0,3.177-1.631,3.177-3.641C243.064,314.817,243.023,314.505,242.955,314.206z"/>
	<path fill="#009FE3" d="M192.952,354.685L192.952,354.685L192.952,354.685c-0.082-0.357-0.211-0.693-0.379-1.002l-2.688-7.098
		l-2.688,7.098c-0.168,0.309-0.297,0.645-0.379,1.002l0,0l0,0c-0.069,0.297-0.109,0.609-0.109,0.932c0,2.01,1.423,3.641,3.177,3.641
		c1.755,0,3.178-1.631,3.178-3.641C193.063,355.294,193.021,354.981,192.952,354.685z"/>
	<path fill="#009FE3" d="M264.987,287.339L264.987,287.339L264.987,287.339c-0.081-0.357-0.209-0.695-0.379-1l-2.687-7.1l-2.689,7.1
		c-0.167,0.305-0.296,0.643-0.38,1l0,0l0,0c-0.068,0.299-0.109,0.609-0.109,0.932c0,2.012,1.424,3.643,3.179,3.643
		s3.176-1.631,3.176-3.643C265.098,287.948,265.057,287.638,264.987,287.339z"/>
	<path fill="#009FE3" d="M307.2,333.452L307.2,333.452L307.2,333.452c-0.082-0.359-0.211-0.695-0.379-1.002l-2.688-7.1l-2.688,7.1
		c-0.168,0.307-0.297,0.643-0.379,1.002l0,0l0,0c-0.069,0.299-0.109,0.607-0.109,0.93c0,2.014,1.423,3.645,3.177,3.645
		c1.755,0,3.177-1.631,3.177-3.645C307.31,334.06,307.27,333.751,307.2,333.452z"/>
	<path fill="#009FE3" d="M307.2,263.021L307.2,263.021L307.2,263.021c-0.082-0.357-0.211-0.693-0.379-1l-2.688-7.1l-2.688,7.1
		c-0.168,0.307-0.297,0.643-0.379,1l0,0l0,0c-0.069,0.299-0.109,0.611-0.109,0.934c0,2.01,1.423,3.641,3.177,3.641
		c1.755,0,3.177-1.631,3.177-3.641C307.31,263.632,307.27,263.319,307.2,263.021z"/>
	<path fill="#009FE3" d="M298.046,230.7L298.046,230.7L298.046,230.7c-0.084-0.359-0.213-0.695-0.38-1.002l-2.689-7.1l-2.687,7.1
		c-0.169,0.307-0.298,0.643-0.379,1.002l0,0l0,0c-0.069,0.297-0.11,0.609-0.11,0.932c0,2.01,1.424,3.641,3.176,3.641
		c1.755,0,3.179-1.631,3.179-3.641C298.155,231.31,298.115,230.997,298.046,230.7z"/>
	<path fill="#009FE3" d="M364.293,230.7L364.293,230.7L364.293,230.7c-0.083-0.359-0.212-0.695-0.38-1.002l-2.688-7.1l-2.688,7.1
		c-0.168,0.307-0.297,0.643-0.379,1.002l0,0l0,0c-0.069,0.297-0.11,0.609-0.11,0.932c0,2.01,1.424,3.641,3.178,3.641
		c1.755,0,3.177-1.631,3.177-3.641C364.402,231.31,364.361,230.997,364.293,230.7z"/>
	<path fill="#009FE3" d="M354.605,317.868L354.605,317.868L354.605,317.868c-0.081-0.359-0.21-0.695-0.379-1l-2.688-7.102
		l-2.689,7.102c-0.167,0.305-0.296,0.641-0.379,1l0,0l0,0c-0.069,0.299-0.109,0.609-0.109,0.93c0,2.014,1.423,3.645,3.178,3.645
		s3.176-1.631,3.176-3.645C354.715,318.478,354.675,318.167,354.605,317.868z"/>
	<path fill="#009FE3" d="M258.634,227.493L258.634,227.493L258.634,227.493c-0.081-0.359-0.21-0.695-0.379-1.002l-2.688-7.1
		l-2.689,7.1c-0.167,0.307-0.296,0.643-0.379,1.002l0,0l0,0c-0.069,0.299-0.109,0.609-0.109,0.932c0,2.01,1.423,3.641,3.178,3.641
		s3.176-1.631,3.176-3.641C258.743,228.103,258.703,227.792,258.634,227.493z"/>
	<path fill="#B2B2B2" d="M213.17,226.323c-7.19-14.814-21.73-24.797-38.281-24.436c-0.935,0.02-1.858,0.086-2.776,0.17
		c-10.131-17.455-28.482-28.938-49.206-28.483c-23.399,0.511-43.121,16.084-51.107,37.793c-1.415-0.123-2.848-0.172-4.296-0.141
		c-18.031,0.396-33.137,12.947-38.743,30.24c-0.059,0-0.118-0.002-0.177-0.002c-16.147,0.352-28.94,14.168-28.575,30.859
		c0.366,16.689,13.752,29.934,29.899,29.58c6.554-0.143,12.554-2.506,17.348-6.377c6.513,4.131,14.13,6.438,22.231,6.262
		c8.233-0.182,15.851-2.904,22.239-7.449c7.874,8.725,18.951,14.053,31.119,13.785c14.419-0.314,26.967-8.408,34.285-20.48
		c5.933,3.207,12.652,4.959,19.743,4.805c9.386-0.205,17.977-3.707,24.854-9.453c3.658,1.746,7.728,2.684,12,2.592
		c15.389-0.336,27.569-13.877,27.212-30.246C240.585,239.241,228.225,226.413,213.17,226.323z"/>
	<path opacity="0.05" fill="#312783" d="M240.938,255.296c-0.162-7.387-2.854-14.078-7.17-19.174
		c-1.947,37.895-31.346,35.928-31.346,35.928c-16.092,17.779-48.899,5.289-48.899,5.289c-36.691,29.168-62.082-3.383-62.082-3.383
		c-22.754,11.359-44.387-1.898-44.387-1.898c-34.44,8.666-41.996-17.432-41.996-17.436c-3.308,5.02-5.193,11.115-5.05,17.654
		c0.366,16.689,13.752,29.936,29.899,29.582c6.554-0.143,12.554-2.506,17.348-6.377c6.513,4.131,14.13,6.438,22.231,6.26
		c8.233-0.182,15.851-2.904,22.239-7.447c7.874,8.723,18.951,14.053,31.119,13.785c14.419-0.314,26.967-8.41,34.285-20.48
		c5.933,3.207,12.652,4.959,19.743,4.805c9.386-0.205,17.977-3.709,24.854-9.455c3.658,1.748,7.728,2.686,12,2.592
		C229.114,285.204,241.295,271.663,240.938,255.296z"/>
	<path opacity="0.3" fill="#F6F6F6" d="M233.377,236.31c-5.09-5.975-12.422-9.732-20.54-9.779
		c-7.193-14.814-21.732-24.797-38.283-24.436c-0.935,0.02-1.858,0.086-2.776,0.17c-10.13-17.455-28.481-28.938-49.208-28.482
		c-23.398,0.51-43.12,16.084-51.105,37.793c-1.415-0.123-2.848-0.172-4.296-0.141c-18.031,0.396-33.137,12.947-38.743,30.24
		c-0.059,0-0.118-0.002-0.177-0.002c-9.767,0.215-18.3,5.357-23.444,13.08c0.834-0.783,10.477-9.436,26.378-7.375
		c0,0,15.121-41.658,44.945-27.297c0,0,33.152-76.138,94.26-11.691c0,0,26.168-3.992,40.989,23.936
		C211.377,232.325,214.832,229.792,233.377,236.31z"/>
	<path fill="#9D9D9C" d="M205.591,137.497c3.326,0,6.504,0.738,9.433,2.069c3.564-2.965,7.619-5.156,12-6.371
		c3.56-11.947,13.244-20.519,24.641-20.519c0.155,0,0.308,0.01,0.463,0.013c8.48-8.923,20.049-14.427,32.813-14.427
		c10.305,0,19.83,3.594,27.583,9.672c3.202-0.831,6.55-1.276,10.002-1.276c13.596,0,25.627,6.849,33.044,17.369
		c2.473-0.705,5.074-1.088,7.761-1.088c16.187,0,29.308,13.629,29.308,30.442c0,9.949-4.597,18.783-11.702,24.338
		c0.02,0.492,0.038,0.985,0.038,1.482c0,21.479-18.409,38.887-41.116,38.887c-11.986,0-22.772-4.854-30.288-12.594
		c-6.866,4.865-15.393,7.746-24.629,7.746c-10.343,0-19.787-3.621-27.014-9.584c-6.113,6.361-14.139,10.229-22.935,10.229
		c-10.927,0-20.669-5.965-27.025-15.275c-0.785,0.082-1.574,0.131-2.375,0.131c-14.417,0-26.103-13.709-26.103-30.621
		C179.488,151.207,191.174,137.497,205.591,137.497z"/>
	<path opacity="0.05" fill="#312783" d="M213.297,191.419c15.729,23.42,45.752,4.08,45.752,4.08
		c20.902,21.355,53.062,0.484,53.062,0.484c38.921,27.986,68.824-18.263,68.824-18.263c0.02,0.492,0.038,0.985,0.038,1.482
		c0,21.479-18.409,38.887-41.116,38.887c-11.986,0-22.772-4.854-30.288-12.594c-6.866,4.865-15.393,7.746-24.629,7.746
		c-10.343,0-19.787-3.621-27.014-9.584c-6.113,6.361-14.139,10.229-22.935,10.229c-10.927,0-20.669-5.965-27.025-15.275
		c-0.785,0.082-1.574,0.131-2.375,0.131c-14.417,0-26.103-13.709-26.103-30.621c0-2.272,0.217-4.482,0.617-6.612
		C184.778,191.905,213.297,191.419,213.297,191.419z"/>
	<path opacity="0.3" fill="#FFFFFF" d="M180.197,158.176c3.519-12.03,13.238-20.679,24.686-20.679c3.326,0,6.507,0.737,9.43,2.069
		c3.564-2.965,7.622-5.156,12.002-6.371c3.561-11.946,13.245-20.519,24.642-20.519c0.155,0,0.308,0.011,0.463,0.014
		c8.48-8.924,20.049-14.427,32.813-14.427c10.305,0,19.83,3.594,27.583,9.672c3.2-0.831,6.553-1.276,10.002-1.276
		c13.596,0,25.629,6.848,33.044,17.369c2.473-0.705,5.073-1.088,7.761-1.088c16.187,0,29.308,13.629,29.308,30.442
		c0,9.949-4.597,18.783-11.702,24.338c0,0,15.419-40.14-28.332-50.207c0,0-28.709-24.918-40.492-11.432
		c0,0-30.932-22.892-54.292,4.266c0,0-18.445,1.903-25.822,22.044c0,0-7.377,0.587-14.756,6.266
		C216.532,148.657,190.585,143.572,180.197,158.176z"/>
</g>
</svg>
