<?xml version="1.0" encoding="utf-8"?>
<!-- Generator: Adobe Illustrator 16.0.0, SVG Export Plug-In . SVG Version: 6.00 Build 0)  -->
<!DOCTYPE svg PUBLIC "-//W3C//DTD SVG 1.1//EN" "http://www.w3.org/Graphics/SVG/1.1/DTD/svg11.dtd">
<svg version="1.1" xmlns="http://www.w3.org/2000/svg" xmlns:xlink="http://www.w3.org/1999/xlink" x="0px" y="0px"
	 width="321.637px" height="361.999px" viewBox="0 0 321.637 361.999" enable-background="new 0 0 321.637 361.999"
	 xml:space="preserve">
<g id="Layer_2">
	<circle opacity="0.1" fill="#FFFFFF" cx="160.818" cy="128.497" r="128.497"/>
	<circle opacity="0.2" fill="#FFFFFF" cx="160.818" cy="128.497" r="108.997"/>
	<circle id="Sun" fill="#FDC801" cx="160.818" cy="128.499" r="90"/>
</g>
<g id="Layer_1">
	
		<linearGradient id="SVGID_1_" gradientUnits="userSpaceOnUse" x1="174.125" y1="91.9937" x2="174.125" y2="-13.7383" gradientTransform="matrix(-0.5878 -0.809 0.809 -0.5878 140.1879 355.6359)">
		<stop  offset="0" style="stop-color:#FFFFFF;stop-opacity:0"/>
		<stop  offset="0.0523" style="stop-color:#FEEDAE;stop-opacity:0.1856"/>
		<stop  offset="0.1046" style="stop-color:#FEDD64;stop-opacity:0.3712"/>
		<stop  offset="0.1476" style="stop-color:#FDD22E;stop-opacity:0.5241"/>
		<stop  offset="0.1797" style="stop-color:#FDCB0D;stop-opacity:0.6379"/>
		<stop  offset="0.1972" style="stop-color:#FDC800;stop-opacity:0.7"/>
		<stop  offset="0.6798" style="stop-color:#FDC801"/>
		<stop  offset="0.7495" style="stop-color:#F8B116"/>
		<stop  offset="0.8296" style="stop-color:#F49E27"/>
		<stop  offset="0.9121" style="stop-color:#F29331"/>
		<stop  offset="1" style="stop-color:#F18F34"/>
	</linearGradient>
	<path fill="url(#SVGID_1_)" d="M107.738,153.813c-6.839,4.566-11.092,13.73-18.532,19.136
		c-15.086,10.961-36.015,11.33-46.261,20.293c-13.877,12.135-17.405,27.314-15.712,29.645c1.69,2.326,8.184-8.67,23.947-18.07
		c11.713-6.984,33.547-6.195,48.686-17.195c7.44-5.406,11.484-14.861,17.937-19.953L107.738,153.813z"/>
	<g>
		<path fill="#009FE3" d="M92.046,261.95L92.046,261.95L92.046,261.95c-0.195-0.738-0.499-1.432-0.895-2.063l-6.348-14.623
			l-6.348,14.623c-0.396,0.631-0.7,1.324-0.895,2.063l0,0l0,0c-0.162,0.615-0.257,1.256-0.257,1.92c0,4.143,3.358,7.5,7.5,7.5
			s7.5-3.357,7.5-7.5C92.303,263.206,92.208,262.565,92.046,261.95z"/>
		<path fill="#009FE3" d="M77.046,332.056L77.046,332.056L77.046,332.056c-0.195-0.738-0.499-1.432-0.895-2.063l-6.348-14.623
			l-6.348,14.623c-0.396,0.631-0.7,1.324-0.895,2.063l0,0l0,0c-0.162,0.615-0.257,1.256-0.257,1.92c0,4.143,3.358,7.5,7.5,7.5
			s7.5-3.357,7.5-7.5C77.303,333.312,77.208,332.671,77.046,332.056z"/>
		<path fill="#009FE3" d="M146.774,288.056L146.774,288.056L146.774,288.056c-0.195-0.738-0.499-1.432-0.896-2.063l-6.348-14.623
			l-6.348,14.623c-0.396,0.631-0.699,1.324-0.895,2.063l0,0l0,0c-0.162,0.615-0.257,1.256-0.257,1.92c0,4.143,3.358,7.5,7.5,7.5
			c4.143,0,7.5-3.357,7.5-7.5C147.031,289.312,146.937,288.671,146.774,288.056z"/>
		<path fill="#009FE3" d="M183.046,258.95L183.046,258.95L183.046,258.95c-0.195-0.738-0.499-1.432-0.896-2.063l-6.348-14.623
			l-6.348,14.623c-0.396,0.631-0.699,1.324-0.895,2.063l0,0l0,0c-0.162,0.615-0.258,1.256-0.258,1.92c0,4.143,3.358,7.5,7.5,7.5
			c4.143,0,7.5-3.357,7.5-7.5C183.303,260.206,183.208,259.565,183.046,258.95z"/>
		<path fill="#009FE3" d="M273.047,230.837L273.047,230.837L273.047,230.837c-0.195-0.738-0.499-1.432-0.896-2.063l-6.348-14.623
			l-6.348,14.623c-0.396,0.631-0.7,1.324-0.896,2.063l0,0l0,0c-0.162,0.615-0.257,1.256-0.257,1.92c0,4.143,3.358,7.5,7.5,7.5
			s7.5-3.357,7.5-7.5C273.304,232.093,273.209,231.452,273.047,230.837z"/>
		<path fill="#009FE3" d="M256.379,292.108L256.379,292.108L256.379,292.108c-0.195-0.738-0.498-1.432-0.895-2.063l-6.348-14.623
			l-6.348,14.623c-0.396,0.631-0.699,1.324-0.895,2.063l0,0l0,0c-0.162,0.615-0.258,1.256-0.258,1.92c0,4.143,3.357,7.5,7.5,7.5
			s7.5-3.357,7.5-7.5C256.637,293.364,256.541,292.724,256.379,292.108z"/>
		<path fill="#009FE3" d="M276.046,180.056L276.046,180.056L276.046,180.056c-0.195-0.738-0.499-1.432-0.896-2.063l-6.348-14.623
			l-6.348,14.623c-0.396,0.631-0.699,1.324-0.895,2.063l0,0l0,0c-0.162,0.614-0.258,1.255-0.258,1.92c0,4.143,3.358,7.5,7.5,7.5
			c4.143,0,7.5-3.357,7.5-7.5C276.303,181.311,276.208,180.67,276.046,180.056z"/>
		<path fill="#009FE3" d="M118.12,350.396L118.12,350.396L118.12,350.396c-0.139-0.502-0.354-0.975-0.636-1.404l-4.514-9.955
			l-4.514,9.955c-0.282,0.43-0.498,0.902-0.636,1.404l0,0l0,0c-0.115,0.418-0.183,0.855-0.183,1.307c0,2.82,2.388,5.107,5.333,5.107
			c2.946,0,5.333-2.287,5.333-5.107C118.303,351.251,118.235,350.813,118.12,350.396z"/>
		<path fill="#009FE3" d="M227.207,247.737L227.207,247.737L227.207,247.737c-0.139-0.502-0.354-0.975-0.637-1.404l-4.514-9.955
			l-4.514,9.955c-0.281,0.43-0.498,0.902-0.637,1.404l0,0l0,0c-0.115,0.418-0.183,0.855-0.183,1.307c0,2.82,2.388,5.107,5.333,5.107
			s5.334-2.287,5.334-5.107C227.391,248.593,227.322,248.155,227.207,247.737z"/>
		<path fill="#009FE3" d="M150.786,251.616L150.786,251.616L150.786,251.616c-0.139-0.502-0.354-0.975-0.636-1.404l-4.515-9.955
			l-4.514,9.955c-0.282,0.43-0.497,0.902-0.636,1.404l0,0l0,0c-0.115,0.418-0.184,0.855-0.184,1.307c0,2.82,2.388,5.107,5.333,5.107
			c2.946,0,5.333-2.287,5.333-5.107C150.969,252.472,150.901,252.034,150.786,251.616z"/>
		<path fill="#009FE3" d="M55.787,260.792L55.787,260.792L55.787,260.792c-0.139-0.504-0.354-0.975-0.636-1.404l-4.514-9.955
			l-4.514,9.955c-0.282,0.43-0.498,0.9-0.636,1.404l0,0l0,0c-0.115,0.418-0.183,0.854-0.183,1.307c0,2.82,2.388,5.105,5.333,5.105
			c2.946,0,5.333-2.285,5.333-5.105C55.97,261.646,55.902,261.21,55.787,260.792z"/>
		<path fill="#009FE3" d="M69.62,298.063L69.62,298.063L69.62,298.063c-0.139-0.504-0.354-0.975-0.636-1.404l-4.514-9.955
			l-4.514,9.955c-0.282,0.43-0.498,0.9-0.636,1.404l0,0l0,0c-0.115,0.418-0.183,0.854-0.183,1.307c0,2.82,2.388,5.105,5.333,5.105
			c2.946,0,5.333-2.285,5.333-5.105C69.803,298.917,69.735,298.481,69.62,298.063z"/>
		<path fill="#009FE3" d="M244.816,222.729L244.816,222.729L244.816,222.729c-0.139-0.503-0.354-0.975-0.636-1.404l-4.515-9.955
			l-4.514,9.955c-0.281,0.43-0.497,0.901-0.636,1.404l0,0l0,0c-0.115,0.418-0.183,0.854-0.183,1.307c0,2.82,2.387,5.105,5.332,5.105
			c2.946,0,5.334-2.285,5.334-5.105C245,223.584,244.932,223.147,244.816,222.729z"/>
		<path fill="#009FE3" d="M298.453,211.695L298.453,211.695L298.453,211.695c-0.139-0.503-0.354-0.975-0.637-1.404l-4.514-9.955
			l-4.514,9.955c-0.281,0.43-0.498,0.901-0.637,1.404l0,0l0,0c-0.115,0.418-0.183,0.854-0.183,1.307c0,2.82,2.388,5.106,5.333,5.106
			s5.334-2.286,5.334-5.106C298.637,212.55,298.568,212.113,298.453,211.695z"/>
		<path fill="#009FE3" d="M196.326,219.063L196.326,219.063L196.326,219.063c-0.139-0.503-0.355-0.975-0.637-1.404l-4.514-9.955
			l-4.514,9.955c-0.282,0.43-0.498,0.901-0.637,1.404l0,0l0,0c-0.115,0.418-0.184,0.854-0.184,1.307c0,2.82,2.389,5.106,5.334,5.106
			s5.333-2.286,5.333-5.106C196.509,219.917,196.441,219.48,196.326,219.063z"/>
		<path fill="#009FE3" d="M192.453,176.332L192.453,176.332L192.453,176.332c-0.139-0.503-0.354-0.975-0.636-1.404l-4.515-9.955
			l-4.514,9.955c-0.281,0.43-0.497,0.901-0.636,1.404l0,0l0,0c-0.115,0.418-0.183,0.854-0.183,1.307c0,2.82,2.387,5.106,5.332,5.106
			c2.946,0,5.334-2.286,5.334-5.106C192.637,177.187,192.568,176.75,192.453,176.332z"/>
		<path fill="#009FE3" d="M152.763,325.729L152.763,325.729L152.763,325.729c-0.139-0.502-0.354-0.975-0.636-1.404l-4.515-9.955
			l-4.514,9.955c-0.282,0.43-0.497,0.902-0.636,1.404l0,0l0,0c-0.115,0.418-0.184,0.855-0.184,1.307c0,2.82,2.388,5.107,5.333,5.107
			c2.946,0,5.333-2.287,5.333-5.107C152.945,326.585,152.878,326.147,152.763,325.729z"/>
		<path fill="#009FE3" d="M120.815,319.511L120.815,319.511L120.815,319.511c-0.067-0.295-0.173-0.57-0.311-0.82l-2.202-5.816
			l-2.202,5.816c-0.138,0.25-0.243,0.525-0.311,0.82l0,0l0,0c-0.057,0.244-0.09,0.498-0.09,0.762c0,1.648,1.166,2.984,2.603,2.984
			c1.438,0,2.603-1.336,2.603-2.984C120.905,320.009,120.872,319.755,120.815,319.511z"/>
		<path fill="#009FE3" d="M89.918,358.253L89.918,358.253L89.918,358.253c-0.067-0.293-0.173-0.568-0.311-0.82l-2.202-5.814
			l-2.202,5.814c-0.138,0.252-0.243,0.527-0.311,0.82l0,0l0,0c-0.057,0.244-0.09,0.5-0.09,0.764c0,1.646,1.166,2.982,2.603,2.982
			c1.438,0,2.603-1.336,2.603-2.982C90.008,358.753,89.975,358.497,89.918,358.253z"/>
		<path fill="#009FE3" d="M94.816,328.397L94.816,328.397L94.816,328.397c-0.067-0.295-0.173-0.57-0.311-0.82l-2.202-5.816
			l-2.202,5.816c-0.138,0.25-0.243,0.525-0.311,0.82l0,0l0,0c-0.057,0.244-0.09,0.498-0.09,0.762c0,1.648,1.166,2.984,2.603,2.984
			c1.438,0,2.603-1.336,2.603-2.984C94.906,328.896,94.873,328.642,94.816,328.397z"/>
		<path fill="#009FE3" d="M120.815,279.511L120.815,279.511L120.815,279.511c-0.067-0.295-0.173-0.57-0.311-0.82l-2.202-5.816
			l-2.202,5.816c-0.138,0.25-0.243,0.525-0.311,0.82l0,0l0,0c-0.057,0.244-0.09,0.498-0.09,0.762c0,1.648,1.166,2.984,2.603,2.984
			c1.438,0,2.603-1.336,2.603-2.984C120.905,280.009,120.872,279.755,120.815,279.511z"/>
		<path fill="#009FE3" d="M84.713,288.149L84.713,288.149L84.713,288.149c-0.067-0.295-0.173-0.57-0.311-0.82l-2.202-5.816
			l-2.202,5.816c-0.138,0.25-0.243,0.525-0.311,0.82l0,0l0,0c-0.057,0.244-0.09,0.498-0.09,0.762c0,1.648,1.166,2.984,2.603,2.984
			c1.438,0,2.603-1.336,2.603-2.984C84.803,288.647,84.77,288.394,84.713,288.149z"/>
		<path fill="#009FE3" d="M47.816,315.815L47.816,315.815L47.816,315.815c-0.067-0.295-0.173-0.57-0.311-0.82l-2.202-5.816
			l-2.202,5.816c-0.138,0.25-0.243,0.525-0.311,0.82l0,0l0,0c-0.057,0.244-0.09,0.498-0.09,0.762c0,1.648,1.166,2.984,2.603,2.984
			c1.438,0,2.603-1.336,2.603-2.984C47.906,316.313,47.873,316.06,47.816,315.815z"/>
		<path fill="#009FE3" d="M114.149,259.476L114.149,259.476L114.149,259.476c-0.067-0.295-0.173-0.57-0.311-0.82l-2.202-5.816
			l-2.202,5.816c-0.138,0.25-0.243,0.525-0.311,0.82l0,0l0,0c-0.057,0.244-0.09,0.498-0.09,0.762c0,1.648,1.166,2.984,2.603,2.984
			c1.438,0,2.603-1.336,2.603-2.984C114.239,259.974,114.206,259.72,114.149,259.476z"/>
		<path fill="#009FE3" d="M33.751,254.284L33.751,254.284L33.751,254.284c-0.067-0.293-0.173-0.568-0.311-0.82l-2.202-5.814
			l-2.202,5.814c-0.138,0.252-0.243,0.527-0.311,0.82l0,0l0,0c-0.057,0.244-0.09,0.5-0.09,0.764c0,1.646,1.166,2.982,2.603,2.982
			c1.438,0,2.603-1.336,2.603-2.982C33.841,254.784,33.808,254.528,33.751,254.284z"/>
		<path fill="#009FE3" d="M165.934,235.778L165.934,235.778L165.934,235.778c-0.067-0.295-0.173-0.57-0.311-0.82l-2.202-5.816
			l-2.202,5.816c-0.139,0.25-0.244,0.525-0.311,0.82l0,0l0,0c-0.057,0.244-0.09,0.498-0.09,0.762c0,1.648,1.166,2.984,2.603,2.984
			c1.438,0,2.603-1.336,2.603-2.984C166.023,236.276,165.99,236.022,165.934,235.778z"/>
		<path fill="#009FE3" d="M199.021,243.71L199.021,243.71L199.021,243.71c-0.067-0.293-0.173-0.568-0.311-0.82l-2.202-5.814
			l-2.202,5.814c-0.138,0.252-0.243,0.527-0.311,0.82l0,0l0,0c-0.057,0.244-0.09,0.5-0.09,0.764c0,1.646,1.166,2.982,2.603,2.982
			c1.438,0,2.603-1.336,2.603-2.982C199.111,244.21,199.078,243.954,199.021,243.71z"/>
		<path fill="#009FE3" d="M158.061,276.868L158.061,276.868L158.061,276.868c-0.066-0.293-0.172-0.568-0.311-0.82l-2.201-5.814
			l-2.203,5.814c-0.137,0.252-0.242,0.527-0.311,0.82l0,0l0,0c-0.057,0.244-0.09,0.5-0.09,0.764c0,1.646,1.166,2.982,2.604,2.982
			s2.602-1.336,2.602-2.982C158.15,277.368,158.117,277.112,158.061,276.868z"/>
		<path fill="#009FE3" d="M217.07,221.701L217.07,221.701L217.07,221.701c-0.066-0.294-0.172-0.569-0.311-0.82l-2.201-5.815
			l-2.203,5.815c-0.137,0.251-0.242,0.526-0.311,0.82l0,0l0,0c-0.057,0.244-0.09,0.499-0.09,0.763c0,1.647,1.166,2.983,2.604,2.983
			s2.602-1.336,2.602-2.983C217.16,222.2,217.127,221.945,217.07,221.701z"/>
		<path fill="#009FE3" d="M251.649,259.476L251.649,259.476L251.649,259.476c-0.067-0.295-0.173-0.57-0.311-0.82l-2.202-5.816
			l-2.202,5.816c-0.138,0.25-0.243,0.525-0.311,0.82l0,0l0,0c-0.057,0.244-0.09,0.498-0.09,0.762c0,1.648,1.166,2.984,2.603,2.984
			c1.438,0,2.603-1.336,2.603-2.984C251.739,259.974,251.706,259.72,251.649,259.476z"/>
		<path fill="#009FE3" d="M251.649,201.78L251.649,201.78L251.649,201.78c-0.067-0.293-0.173-0.568-0.311-0.82l-2.202-5.814
			l-2.202,5.814c-0.138,0.252-0.243,0.527-0.311,0.82l0,0l0,0c-0.057,0.244-0.09,0.5-0.09,0.764c0,1.646,1.166,2.982,2.603,2.982
			c1.438,0,2.603-1.336,2.603-2.982C251.739,202.28,251.706,202.024,251.649,201.78z"/>
		<path fill="#009FE3" d="M244.15,175.304L244.15,175.304L244.15,175.304c-0.068-0.294-0.174-0.569-0.311-0.82l-2.203-5.815
			l-2.201,5.815c-0.139,0.251-0.244,0.526-0.311,0.82l0,0l0,0c-0.057,0.244-0.09,0.499-0.09,0.763c0,1.647,1.166,2.983,2.602,2.983
			c1.438,0,2.604-1.336,2.604-2.983C244.24,175.803,244.207,175.548,244.15,175.304z"/>
		<path fill="#009FE3" d="M298.418,175.304L298.418,175.304L298.418,175.304c-0.067-0.294-0.173-0.569-0.311-0.82l-2.202-5.815
			l-2.202,5.815c-0.138,0.251-0.243,0.526-0.311,0.82l0,0l0,0c-0.057,0.244-0.09,0.499-0.09,0.763c0,1.647,1.166,2.983,2.603,2.983
			c1.438,0,2.603-1.336,2.603-2.983C298.508,175.803,298.475,175.548,298.418,175.304z"/>
		<path fill="#009FE3" d="M290.482,246.71L290.482,246.71L290.482,246.71c-0.066-0.295-0.172-0.57-0.311-0.82l-2.201-5.816
			l-2.203,5.816c-0.137,0.25-0.242,0.525-0.311,0.82l0,0l0,0c-0.057,0.244-0.09,0.498-0.09,0.762c0,1.648,1.166,2.984,2.604,2.984
			s2.602-1.336,2.602-2.984C290.572,247.208,290.539,246.954,290.482,246.71z"/>
		<path fill="#009FE3" d="M211.865,172.677L211.865,172.677L211.865,172.677c-0.066-0.294-0.172-0.569-0.311-0.82l-2.201-5.815
			l-2.203,5.815c-0.137,0.251-0.242,0.526-0.311,0.82l0,0l0,0c-0.057,0.244-0.09,0.499-0.09,0.763c0,1.647,1.166,2.983,2.604,2.983
			s2.602-1.336,2.602-2.983C211.955,173.176,211.922,172.921,211.865,172.677z"/>
		<path fill="#DADADA" d="M174.623,171.718c-5.891-12.135-17.801-20.313-31.359-20.016c-0.766,0.017-1.521,0.07-2.273,0.14
			c-8.299-14.299-23.333-23.706-40.309-23.333c-19.168,0.419-35.323,13.177-41.865,30.959c-1.159-0.102-2.333-0.141-3.52-0.115
			c-14.77,0.324-27.145,10.605-31.737,24.771c-0.048,0-0.096-0.002-0.145-0.002c-13.228,0.289-23.707,11.607-23.408,25.279
			c0.3,13.672,11.265,24.521,24.493,24.232c5.369-0.117,10.284-2.053,14.211-5.225c5.335,3.385,11.575,5.273,18.211,5.129
			c6.744-0.148,12.984-2.379,18.218-6.102c6.45,7.146,15.524,11.512,25.491,11.293c11.812-0.258,22.091-6.889,28.085-16.777
			c4.861,2.627,10.365,4.063,16.173,3.936c7.688-0.168,14.726-3.037,20.359-7.744c2.996,1.432,6.33,2.199,9.83,2.123
			c12.605-0.275,22.584-11.367,22.291-24.775C197.08,182.3,186.955,171.792,174.623,171.718z"/>
		<path opacity="0.05" fill="#312783" d="M197.369,195.452c-0.133-6.051-2.338-11.533-5.873-15.707
			c-1.596,31.043-25.678,29.432-25.678,29.432c-13.182,14.564-40.057,4.332-40.057,4.332c-30.057,23.895-50.855-2.771-50.855-2.771
			c-18.639,9.307-36.361-1.555-36.361-1.555c-28.212,7.1-34.401-14.279-34.402-14.283c-2.71,4.113-4.254,9.105-4.137,14.463
			c0.3,13.672,11.265,24.521,24.493,24.232c5.369-0.117,10.284-2.053,14.211-5.225c5.335,3.385,11.575,5.273,18.211,5.129
			c6.744-0.148,12.984-2.379,18.218-6.102c6.45,7.146,15.524,11.512,25.491,11.293c11.812-0.258,22.091-6.889,28.085-16.777
			c4.861,2.627,10.365,4.063,16.173,3.936c7.688-0.168,14.726-3.037,20.359-7.744c2.996,1.432,6.33,2.199,9.83,2.123
			C187.684,219.952,197.662,208.86,197.369,195.452z"/>
		<path opacity="0.3" fill="#F6F6F6" d="M191.176,179.899c-4.17-4.895-10.176-7.973-16.826-8.012
			c-5.893-12.135-17.803-20.313-31.359-20.016c-0.766,0.016-1.523,0.07-2.275,0.139c-8.298-14.299-23.331-23.705-40.309-23.332
			c-19.167,0.418-35.322,13.176-41.864,30.959c-1.159-0.102-2.333-0.141-3.52-0.115c-14.77,0.324-27.145,10.605-31.737,24.771
			c-0.048,0-0.096-0.002-0.145-0.002c-8.001,0.176-14.991,4.389-19.205,10.715c0.683-0.641,8.582-7.729,21.608-6.041
			c0,0,12.387-34.125,36.818-22.361c0,0,27.158-62.369,77.215-9.577c0,0,21.437-3.271,33.578,19.608
			C173.154,176.636,175.984,174.56,191.176,179.899z"/>
		<path fill="#DADADA" d="M168.414,98.955c2.725,0,5.328,0.604,7.727,1.695c2.92-2.429,6.242-4.224,9.83-5.219
			c2.916-9.787,10.85-16.809,20.186-16.809c0.127,0,0.252,0.008,0.379,0.011c6.947-7.31,16.424-11.818,26.879-11.818
			c8.441,0,16.244,2.944,22.596,7.923c2.623-0.681,5.365-1.045,8.193-1.045c11.137,0,20.992,5.61,27.068,14.228
			c2.025-0.577,4.156-0.891,6.357-0.891c13.26,0,24.008,11.165,24.008,24.938c0,8.15-3.766,15.387-9.586,19.937
			c0.016,0.403,0.031,0.807,0.031,1.214c0,17.594-15.08,31.854-33.682,31.854c-9.818,0-18.654-3.976-24.811-10.316
			c-5.625,3.985-12.609,6.345-20.176,6.345c-8.473,0-16.209-2.965-22.129-7.85c-5.008,5.209-11.582,8.377-18.787,8.377
			c-8.951,0-16.932-4.885-22.139-12.513c-0.643,0.068-1.289,0.108-1.945,0.108c-11.81,0-21.383-11.23-21.383-25.084
			S156.604,98.955,168.414,98.955z"/>
		<path opacity="0.05" fill="#312783" d="M174.727,143.126c12.885,19.186,37.479,3.343,37.479,3.343
			c17.123,17.493,43.467,0.397,43.467,0.397c31.883,22.925,56.379-14.961,56.379-14.961c0.016,0.403,0.031,0.807,0.031,1.214
			c0,17.594-15.08,31.854-33.682,31.854c-9.818,0-18.654-3.976-24.811-10.316c-5.625,3.985-12.609,6.345-20.176,6.345
			c-8.473,0-16.209-2.965-22.129-7.85c-5.008,5.209-11.582,8.377-18.787,8.377c-8.951,0-16.932-4.885-22.139-12.513
			c-0.643,0.068-1.289,0.108-1.945,0.108c-11.81,0-21.383-11.23-21.383-25.084c0-1.861,0.178-3.671,0.506-5.417
			C151.365,143.524,174.727,143.126,174.727,143.126z"/>
		<path opacity="0.3" fill="#FFFFFF" d="M147.612,115.894c2.883-9.854,10.845-16.939,20.222-16.939c2.725,0,5.33,0.604,7.725,1.695
			c2.92-2.429,6.244-4.224,9.832-5.219c2.916-9.786,10.85-16.809,20.186-16.809c0.127,0,0.252,0.009,0.379,0.011
			c6.947-7.31,16.424-11.818,26.879-11.818c8.441,0,16.244,2.944,22.596,7.923c2.621-0.681,5.367-1.045,8.193-1.045
			c11.137,0,20.994,5.609,27.068,14.228c2.025-0.577,4.156-0.891,6.357-0.891c13.26,0,24.008,11.165,24.008,24.938
			c0,8.15-3.766,15.387-9.586,19.937c0,0,12.631-32.881-23.209-41.128c0,0-23.518-20.412-33.17-9.365
			c0,0-25.338-18.752-44.475,3.494c0,0-15.109,1.559-21.152,18.058c0,0-6.043,0.48-12.088,5.132
			C177.377,108.096,156.122,103.931,147.612,115.894z"/>
	</g>
</g>
</svg>
