<?xml version="1.0" encoding="utf-8"?>
<!-- Generator: Adobe Illustrator 16.0.0, SVG Export Plug-In . SVG Version: 6.00 Build 0)  -->
<!DOCTYPE svg PUBLIC "-//W3C//DTD SVG 1.1//EN" "http://www.w3.org/Graphics/SVG/1.1/DTD/svg11.dtd">
<svg version="1.1" xmlns="http://www.w3.org/2000/svg" xmlns:xlink="http://www.w3.org/1999/xlink" x="0px" y="0px"
	 width="321.636px" height="295.185px" viewBox="0 0 321.636 295.185" enable-background="new 0 0 321.636 295.185"
	 xml:space="preserve">
<g id="Layer_2">
	<path fill="#009FE3" d="M92.046,195.136L92.046,195.136L92.046,195.136c-0.195-0.738-0.499-1.432-0.895-2.063l-6.348-14.623
		l-6.348,14.623c-0.396,0.631-0.7,1.324-0.895,2.063l0,0l0,0c-0.162,0.614-0.257,1.255-0.257,1.92c0,4.143,3.358,7.5,7.5,7.5
		s7.5-3.357,7.5-7.5C92.303,196.391,92.208,195.75,92.046,195.136z"/>
	<path fill="#009FE3" d="M77.046,265.241L77.046,265.241L77.046,265.241c-0.195-0.738-0.499-1.432-0.895-2.063l-6.348-14.623
		l-6.348,14.623c-0.396,0.631-0.7,1.324-0.895,2.063l0,0l0,0c-0.162,0.614-0.257,1.255-0.257,1.92c0,4.143,3.358,7.5,7.5,7.5
		s7.5-3.357,7.5-7.5C77.303,266.496,77.208,265.855,77.046,265.241z"/>
	<path fill="#009FE3" d="M146.774,221.241L146.774,221.241L146.774,221.241c-0.195-0.738-0.499-1.432-0.895-2.063l-6.348-14.623
		l-6.348,14.623c-0.396,0.631-0.7,1.324-0.895,2.063l0,0l0,0c-0.162,0.614-0.257,1.255-0.257,1.92c0,4.143,3.358,7.5,7.5,7.5
		s7.5-3.357,7.5-7.5C147.032,222.496,146.937,221.855,146.774,221.241z"/>
	<path fill="#009FE3" d="M183.045,192.136L183.045,192.136L183.045,192.136c-0.195-0.738-0.499-1.432-0.896-2.063l-6.348-14.623
		l-6.348,14.623c-0.396,0.631-0.699,1.324-0.895,2.063l0,0l0,0c-0.162,0.614-0.258,1.255-0.258,1.92c0,4.143,3.358,7.5,7.5,7.5
		c4.143,0,7.5-3.357,7.5-7.5C183.302,193.391,183.208,192.75,183.045,192.136z"/>
	<path fill="#009FE3" d="M273.046,164.022L273.046,164.022L273.046,164.022c-0.195-0.738-0.499-1.432-0.896-2.063l-6.348-14.623
		l-6.348,14.623c-0.396,0.631-0.7,1.324-0.896,2.063l0,0l0,0c-0.162,0.614-0.257,1.255-0.257,1.92c0,4.143,3.358,7.5,7.5,7.5
		s7.5-3.357,7.5-7.5C273.303,165.277,273.208,164.637,273.046,164.022z"/>
	<path fill="#009FE3" d="M256.378,225.294L256.378,225.294L256.378,225.294c-0.195-0.738-0.498-1.432-0.895-2.063l-6.348-14.623
		l-6.348,14.623c-0.396,0.631-0.699,1.324-0.895,2.063l0,0l0,0c-0.162,0.614-0.258,1.255-0.258,1.92c0,4.143,3.357,7.5,7.5,7.5
		s7.5-3.357,7.5-7.5C256.636,226.549,256.541,225.908,256.378,225.294z"/>
	<path fill="#009FE3" d="M276.045,113.241L276.045,113.241L276.045,113.241c-0.195-0.738-0.499-1.432-0.896-2.063l-6.348-14.623
		l-6.348,14.623c-0.396,0.631-0.699,1.324-0.895,2.063l0,0l0,0c-0.162,0.614-0.258,1.255-0.258,1.92c0,4.143,3.358,7.5,7.5,7.5
		c4.143,0,7.5-3.357,7.5-7.5C276.302,114.496,276.208,113.855,276.045,113.241z"/>
	<path fill="#009FE3" d="M118.12,283.581L118.12,283.581L118.12,283.581c-0.139-0.503-0.354-0.975-0.636-1.404l-4.514-9.955
		l-4.514,9.955c-0.282,0.43-0.498,0.901-0.636,1.404l0,0l0,0c-0.115,0.418-0.183,0.854-0.183,1.307c0,2.82,2.388,5.106,5.333,5.106
		c2.946,0,5.333-2.286,5.333-5.106C118.303,284.436,118.235,283.999,118.12,283.581z"/>
	<path fill="#009FE3" d="M227.207,180.923L227.207,180.923L227.207,180.923c-0.139-0.503-0.354-0.975-0.637-1.404l-4.514-9.955
		l-4.514,9.955c-0.281,0.43-0.498,0.901-0.637,1.404l0,0l0,0c-0.115,0.418-0.183,0.854-0.183,1.307c0,2.82,2.388,5.106,5.333,5.106
		s5.334-2.286,5.334-5.106C227.39,181.777,227.322,181.341,227.207,180.923z"/>
	<path fill="#009FE3" d="M150.786,184.802L150.786,184.802L150.786,184.802c-0.139-0.503-0.354-0.975-0.636-1.404l-4.514-9.955
		l-4.514,9.955c-0.282,0.43-0.498,0.901-0.636,1.404l0,0l0,0c-0.115,0.418-0.183,0.854-0.183,1.307c0,2.82,2.388,5.106,5.333,5.106
		c2.946,0,5.333-2.286,5.333-5.106C150.969,185.656,150.901,185.22,150.786,184.802z"/>
	<path fill="#009FE3" d="M55.787,193.977L55.787,193.977L55.787,193.977c-0.139-0.503-0.354-0.975-0.636-1.404l-4.514-9.955
		l-4.514,9.955c-0.282,0.43-0.498,0.901-0.636,1.404l0,0l0,0c-0.115,0.418-0.183,0.854-0.183,1.307c0,2.82,2.388,5.106,5.333,5.106
		c2.946,0,5.333-2.286,5.333-5.106C55.97,194.831,55.902,194.395,55.787,193.977z"/>
	<path fill="#009FE3" d="M69.62,231.248L69.62,231.248L69.62,231.248c-0.139-0.503-0.354-0.975-0.636-1.404l-4.514-9.955
		l-4.514,9.955c-0.282,0.43-0.498,0.901-0.636,1.404l0,0l0,0c-0.115,0.418-0.183,0.854-0.183,1.307c0,2.82,2.388,5.106,5.333,5.106
		c2.946,0,5.333-2.286,5.333-5.106C69.803,232.103,69.735,231.666,69.62,231.248z"/>
	<path fill="#009FE3" d="M244.816,155.915L244.816,155.915L244.816,155.915c-0.139-0.503-0.354-0.975-0.636-1.404l-4.515-9.955
		l-4.514,9.955c-0.281,0.43-0.497,0.901-0.636,1.404l0,0l0,0c-0.115,0.418-0.183,0.854-0.183,1.307c0,2.82,2.387,5.106,5.332,5.106
		c2.946,0,5.334-2.286,5.334-5.106C245,156.769,244.931,156.333,244.816,155.915z"/>
	<path fill="#009FE3" d="M298.453,144.88L298.453,144.88L298.453,144.88c-0.139-0.503-0.354-0.975-0.637-1.404l-4.514-9.955
		l-4.514,9.955c-0.281,0.43-0.498,0.901-0.637,1.404l0,0l0,0c-0.115,0.418-0.183,0.854-0.183,1.307c0,2.82,2.388,5.106,5.333,5.106
		s5.334-2.286,5.334-5.106C298.636,145.735,298.568,145.298,298.453,144.88z"/>
	<path fill="#009FE3" d="M196.326,152.248L196.326,152.248L196.326,152.248c-0.139-0.503-0.355-0.975-0.637-1.404l-4.514-9.955
		l-4.514,9.955c-0.282,0.43-0.498,0.901-0.637,1.404l0,0l0,0c-0.115,0.418-0.184,0.854-0.184,1.307c0,2.82,2.389,5.106,5.334,5.106
		s5.333-2.286,5.333-5.106C196.508,153.102,196.441,152.666,196.326,152.248z"/>
	<path fill="#009FE3" d="M192.453,109.517L192.453,109.517L192.453,109.517c-0.139-0.503-0.354-0.975-0.636-1.404l-4.515-9.955
		l-4.514,9.955c-0.281,0.43-0.497,0.901-0.636,1.404l0,0l0,0c-0.115,0.418-0.183,0.854-0.183,1.307c0,2.82,2.387,5.106,5.332,5.106
		c2.946,0,5.334-2.286,5.334-5.106C192.636,110.372,192.568,109.935,192.453,109.517z"/>
	<path fill="#009FE3" d="M152.763,258.915L152.763,258.915L152.763,258.915c-0.139-0.503-0.354-0.975-0.636-1.404l-4.514-9.955
		l-4.514,9.955c-0.282,0.43-0.498,0.901-0.636,1.404l0,0l0,0c-0.115,0.418-0.183,0.854-0.183,1.307c0,2.82,2.388,5.106,5.333,5.106
		c2.946,0,5.333-2.286,5.333-5.106C152.946,259.77,152.878,259.333,152.763,258.915z"/>
	<path fill="#009FE3" d="M120.815,252.695L120.815,252.695L120.815,252.695c-0.067-0.294-0.173-0.569-0.311-0.82l-2.202-5.815
		l-2.202,5.815c-0.138,0.251-0.243,0.526-0.311,0.82l0,0l0,0c-0.057,0.244-0.09,0.499-0.09,0.763c0,1.647,1.166,2.983,2.603,2.983
		c1.438,0,2.603-1.336,2.603-2.983C120.905,253.194,120.872,252.939,120.815,252.695z"/>
	<path fill="#009FE3" d="M89.918,291.438L89.918,291.438L89.918,291.438c-0.067-0.294-0.173-0.569-0.311-0.82l-2.202-5.815
		l-2.202,5.815c-0.138,0.251-0.243,0.526-0.311,0.82l0,0l0,0c-0.057,0.244-0.09,0.499-0.09,0.763c0,1.647,1.166,2.983,2.603,2.983
		c1.438,0,2.603-1.336,2.603-2.983C90.008,291.938,89.975,291.683,89.918,291.438z"/>
	<path fill="#009FE3" d="M94.816,261.582L94.816,261.582L94.816,261.582c-0.067-0.294-0.173-0.569-0.311-0.82l-2.202-5.815
		l-2.202,5.815c-0.138,0.251-0.243,0.526-0.311,0.82l0,0l0,0c-0.057,0.244-0.09,0.499-0.09,0.763c0,1.647,1.166,2.983,2.603,2.983
		c1.438,0,2.603-1.336,2.603-2.983C94.906,262.081,94.873,261.826,94.816,261.582z"/>
	<path fill="#009FE3" d="M120.815,212.695L120.815,212.695L120.815,212.695c-0.067-0.294-0.173-0.569-0.311-0.82l-2.202-5.815
		l-2.202,5.815c-0.138,0.251-0.243,0.526-0.311,0.82l0,0l0,0c-0.057,0.244-0.09,0.499-0.09,0.763c0,1.647,1.166,2.983,2.603,2.983
		c1.438,0,2.603-1.336,2.603-2.983C120.905,213.194,120.872,212.939,120.815,212.695z"/>
	<path fill="#009FE3" d="M84.713,221.334L84.713,221.334L84.713,221.334c-0.067-0.294-0.173-0.569-0.311-0.82l-2.202-5.815
		l-2.202,5.815c-0.138,0.251-0.243,0.526-0.311,0.82l0,0l0,0c-0.057,0.244-0.09,0.499-0.09,0.763c0,1.647,1.166,2.983,2.603,2.983
		c1.438,0,2.603-1.336,2.603-2.983C84.803,221.833,84.77,221.578,84.713,221.334z"/>
	<path fill="#009FE3" d="M47.816,249L47.816,249L47.816,249c-0.067-0.294-0.173-0.569-0.311-0.82l-2.202-5.815l-2.202,5.815
		c-0.138,0.251-0.243,0.526-0.311,0.82l0,0l0,0c-0.057,0.244-0.09,0.499-0.09,0.763c0,1.647,1.166,2.983,2.603,2.983
		c1.438,0,2.603-1.336,2.603-2.983C47.906,249.499,47.873,249.244,47.816,249z"/>
	<path fill="#009FE3" d="M114.149,192.66L114.149,192.66L114.149,192.66c-0.067-0.294-0.173-0.569-0.311-0.82l-2.202-5.815
		l-2.202,5.815c-0.138,0.251-0.243,0.526-0.311,0.82l0,0l0,0c-0.057,0.244-0.09,0.499-0.09,0.763c0,1.647,1.166,2.983,2.603,2.983
		c1.438,0,2.603-1.336,2.603-2.983C114.239,193.159,114.206,192.904,114.149,192.66z"/>
	<path fill="#009FE3" d="M33.751,187.47L33.751,187.47L33.751,187.47c-0.067-0.294-0.173-0.569-0.311-0.82l-2.202-5.815
		l-2.202,5.815c-0.138,0.251-0.243,0.526-0.311,0.82l0,0l0,0c-0.057,0.244-0.09,0.499-0.09,0.763c0,1.647,1.166,2.983,2.603,2.983
		c1.438,0,2.603-1.336,2.603-2.983C33.841,187.969,33.808,187.714,33.751,187.47z"/>
	<path fill="#009FE3" d="M165.933,168.963L165.933,168.963L165.933,168.963c-0.067-0.294-0.173-0.569-0.311-0.82l-2.202-5.815
		l-2.202,5.815c-0.138,0.251-0.243,0.526-0.311,0.82l0,0l0,0c-0.057,0.244-0.09,0.499-0.09,0.763c0,1.647,1.166,2.983,2.603,2.983
		c1.438,0,2.603-1.336,2.603-2.983C166.023,169.462,165.99,169.207,165.933,168.963z"/>
	<path fill="#009FE3" d="M199.021,176.896L199.021,176.896L199.021,176.896c-0.067-0.294-0.173-0.569-0.311-0.82l-2.202-5.815
		l-2.202,5.815c-0.138,0.251-0.243,0.526-0.311,0.82l0,0l0,0c-0.057,0.244-0.09,0.499-0.09,0.763c0,1.647,1.166,2.983,2.603,2.983
		c1.438,0,2.603-1.336,2.603-2.983C199.111,177.395,199.078,177.14,199.021,176.896z"/>
	<path fill="#009FE3" d="M158.061,210.054L158.061,210.054L158.061,210.054c-0.067-0.294-0.173-0.569-0.311-0.82l-2.202-5.815
		l-2.202,5.815c-0.138,0.251-0.243,0.526-0.311,0.82l0,0l0,0c-0.057,0.244-0.09,0.499-0.09,0.763c0,1.647,1.166,2.983,2.603,2.983
		c1.438,0,2.603-1.336,2.603-2.983C158.151,210.553,158.118,210.298,158.061,210.054z"/>
	<path fill="#009FE3" d="M217.07,154.886L217.07,154.886L217.07,154.886c-0.066-0.294-0.172-0.569-0.311-0.82l-2.201-5.815
		l-2.203,5.815c-0.137,0.251-0.242,0.526-0.311,0.82l0,0l0,0c-0.057,0.244-0.09,0.499-0.09,0.763c0,1.647,1.166,2.983,2.604,2.983
		s2.602-1.336,2.602-2.983C217.16,155.385,217.126,155.13,217.07,154.886z"/>
	<path fill="#009FE3" d="M251.649,192.66L251.649,192.66L251.649,192.66c-0.067-0.294-0.173-0.569-0.311-0.82l-2.202-5.815
		l-2.202,5.815c-0.138,0.251-0.243,0.526-0.311,0.82l0,0l0,0c-0.057,0.244-0.09,0.499-0.09,0.763c0,1.647,1.166,2.983,2.603,2.983
		c1.438,0,2.603-1.336,2.603-2.983C251.739,193.159,251.706,192.904,251.649,192.66z"/>
	<path fill="#009FE3" d="M251.649,134.966L251.649,134.966L251.649,134.966c-0.067-0.294-0.173-0.569-0.311-0.82l-2.202-5.815
		l-2.202,5.815c-0.138,0.251-0.243,0.526-0.311,0.82l0,0l0,0c-0.057,0.244-0.09,0.499-0.09,0.763c0,1.647,1.166,2.983,2.603,2.983
		c1.438,0,2.603-1.336,2.603-2.983C251.739,135.465,251.706,135.21,251.649,134.966z"/>
	<path fill="#009FE3" d="M244.15,108.489L244.15,108.489L244.15,108.489c-0.068-0.294-0.174-0.569-0.311-0.82l-2.203-5.815
		l-2.201,5.815c-0.139,0.251-0.244,0.526-0.311,0.82l0,0l0,0c-0.057,0.244-0.09,0.499-0.09,0.763c0,1.647,1.166,2.983,2.602,2.983
		c1.438,0,2.604-1.336,2.604-2.983C244.24,108.988,244.207,108.733,244.15,108.489z"/>
	<path fill="#009FE3" d="M298.417,108.489L298.417,108.489L298.417,108.489c-0.067-0.294-0.173-0.569-0.311-0.82l-2.202-5.815
		l-2.202,5.815c-0.138,0.251-0.243,0.526-0.311,0.82l0,0l0,0c-0.057,0.244-0.09,0.499-0.09,0.763c0,1.647,1.166,2.983,2.603,2.983
		c1.438,0,2.603-1.336,2.603-2.983C298.507,108.988,298.474,108.733,298.417,108.489z"/>
	<path fill="#009FE3" d="M290.482,179.895L290.482,179.895L290.482,179.895c-0.066-0.294-0.172-0.569-0.311-0.82l-2.201-5.815
		l-2.203,5.815c-0.137,0.251-0.242,0.526-0.311,0.82l0,0l0,0c-0.057,0.244-0.09,0.499-0.09,0.763c0,1.647,1.166,2.983,2.604,2.983
		s2.602-1.336,2.602-2.983C290.572,180.394,290.539,180.139,290.482,179.895z"/>
	<path fill="#009FE3" d="M211.865,105.862L211.865,105.862L211.865,105.862c-0.066-0.294-0.172-0.569-0.311-0.82l-2.201-5.815
		l-2.203,5.815c-0.137,0.251-0.242,0.526-0.311,0.82l0,0l0,0c-0.057,0.244-0.09,0.499-0.09,0.763c0,1.647,1.166,2.983,2.604,2.983
		s2.602-1.336,2.602-2.983C211.955,106.361,211.921,106.106,211.865,105.862z"/>
</g>
<g id="Layer_1">
	<path fill="#DADADA" d="M174.623,104.902c-5.891-12.134-17.801-20.313-31.358-20.016c-0.766,0.017-1.522,0.07-2.274,0.14
		c-8.299-14.299-23.332-23.706-40.309-23.333C81.513,62.112,65.358,74.87,58.816,92.652c-1.159-0.102-2.333-0.141-3.52-0.114
		c-14.77,0.323-27.145,10.605-31.737,24.771c-0.048,0-0.096-0.002-0.145-0.001c-13.228,0.289-23.707,11.607-23.408,25.279
		c0.3,13.672,11.265,24.521,24.493,24.232c5.369-0.118,10.284-2.054,14.211-5.225c5.335,3.385,11.575,5.273,18.211,5.128
		c6.744-0.147,12.984-2.379,18.218-6.101c6.45,7.146,15.524,11.512,25.491,11.293c11.812-0.258,22.091-6.889,28.085-16.778
		c4.86,2.628,10.364,4.063,16.173,3.936c7.688-0.168,14.726-3.037,20.359-7.744c2.996,1.433,6.33,2.2,9.83,2.124
		c12.605-0.276,22.584-11.368,22.291-24.776C197.08,115.485,186.955,104.977,174.623,104.902z"/>
	<path opacity="0.05" fill="#312783" d="M197.369,128.637c-0.133-6.05-2.338-11.532-5.873-15.706
		c-1.596,31.042-25.678,29.432-25.678,29.432c-13.182,14.564-40.057,4.331-40.057,4.331c-30.057,23.896-50.855-2.771-50.855-2.771
		c-18.639,9.307-36.361-1.555-36.361-1.555c-28.212,7.1-34.401-14.28-34.402-14.283c-2.71,4.113-4.254,9.105-4.137,14.463
		c0.3,13.672,11.265,24.521,24.493,24.232c5.369-0.118,10.284-2.054,14.211-5.225c5.335,3.385,11.575,5.273,18.211,5.128
		c6.744-0.147,12.984-2.379,18.218-6.101c6.45,7.146,15.524,11.512,25.491,11.293c11.812-0.258,22.091-6.889,28.085-16.778
		c4.86,2.628,10.364,4.063,16.173,3.936c7.688-0.168,14.726-3.037,20.359-7.744c2.996,1.433,6.33,2.2,9.83,2.124
		C187.683,153.137,197.662,142.045,197.369,128.637z"/>
	<path opacity="0.3" fill="#F6F6F6" d="M191.175,113.084c-4.17-4.895-10.176-7.973-16.826-8.012
		c-5.893-12.135-17.802-20.313-31.359-20.016c-0.766,0.016-1.522,0.07-2.274,0.139c-8.299-14.299-23.331-23.705-40.31-23.332
		c-19.167,0.418-35.322,13.176-41.864,30.959c-1.159-0.102-2.333-0.141-3.52-0.115c-14.77,0.324-27.145,10.605-31.737,24.771
		c-0.048,0-0.096-0.002-0.145-0.002c-8.001,0.176-14.991,4.389-19.205,10.715c0.683-0.641,8.582-7.729,21.608-6.041
		c0,0,12.387-34.125,36.818-22.361c0,0,27.158-62.369,77.215-9.576c0,0,21.436-3.271,33.577,19.607
		C173.154,109.82,175.984,107.744,191.175,113.084z"/>
	<path fill="#DADADA" d="M168.414,32.14c2.725,0,5.328,0.604,7.727,1.695c2.92-2.429,6.242-4.224,9.83-5.219
		c2.916-9.787,10.85-16.809,20.186-16.809c0.127,0,0.252,0.008,0.379,0.011C213.482,4.509,222.958,0,233.414,0
		c8.441,0,16.244,2.944,22.596,7.923c2.623-0.681,5.365-1.045,8.193-1.045c11.137,0,20.992,5.61,27.068,14.228
		c2.025-0.577,4.156-0.891,6.357-0.891c13.26,0,24.008,11.165,24.008,24.938c0,8.15-3.766,15.387-9.586,19.937
		c0.016,0.403,0.031,0.807,0.031,1.214c0,17.594-15.08,31.854-33.682,31.854c-9.818,0-18.654-3.976-24.811-10.316
		c-5.625,3.985-12.609,6.345-20.176,6.345c-8.473,0-16.209-2.965-22.129-7.85c-5.008,5.21-11.582,8.377-18.787,8.377
		c-8.951,0-16.932-4.885-22.139-12.513c-0.643,0.068-1.289,0.108-1.945,0.108c-11.809,0-21.382-11.23-21.382-25.084
		S156.604,32.14,168.414,32.14z"/>
	<path opacity="0.05" fill="#312783" d="M174.726,76.311c12.885,19.186,37.479,3.343,37.479,3.343
		c17.123,17.493,43.467,0.397,43.467,0.397c31.883,22.925,56.379-14.961,56.379-14.961c0.016,0.403,0.031,0.807,0.031,1.214
		c0,17.594-15.08,31.854-33.682,31.854c-9.818,0-18.654-3.976-24.811-10.316c-5.625,3.985-12.609,6.345-20.176,6.345
		c-8.473,0-16.209-2.965-22.129-7.85c-5.008,5.21-11.582,8.377-18.787,8.377c-8.951,0-16.932-4.885-22.139-12.513
		c-0.643,0.068-1.289,0.108-1.945,0.108c-11.809,0-21.382-11.23-21.382-25.084c0-1.861,0.178-3.671,0.506-5.417
		C151.365,76.709,174.726,76.311,174.726,76.311z"/>
	<path opacity="0.3" fill="#FFFFFF" d="M147.612,49.079c2.883-9.854,10.845-16.939,20.221-16.939c2.725,0,5.33,0.604,7.725,1.695
		c2.92-2.429,6.244-4.224,9.832-5.219c2.916-9.786,10.85-16.809,20.186-16.809c0.127,0,0.252,0.009,0.379,0.011
		C212.902,4.508,222.378,0,232.833,0c8.441,0,16.244,2.944,22.596,7.923c2.621-0.681,5.367-1.045,8.193-1.045
		c11.137,0,20.994,5.609,27.068,14.228c2.025-0.577,4.156-0.891,6.357-0.891c13.26,0,24.008,11.165,24.008,24.938
		c0,8.15-3.766,15.387-9.586,19.937c0,0,12.631-32.881-23.209-41.128c0,0-23.518-20.412-33.17-9.365c0,0-25.338-18.752-44.475,3.494
		c0,0-15.109,1.559-21.152,18.058c0,0-6.043,0.48-12.088,5.132C177.376,41.281,156.122,37.116,147.612,49.079z"/>
</g>
</svg>
