<?xml version="1.0" encoding="utf-8"?>
<!-- Generator: Adobe Illustrator 16.0.0, SVG Export Plug-In . SVG Version: 6.00 Build 0)  -->
<!DOCTYPE svg PUBLIC "-//W3C//DTD SVG 1.1//EN" "http://www.w3.org/Graphics/SVG/1.1/DTD/svg11.dtd">
<svg version="1.1" id="Layer_1" xmlns="http://www.w3.org/2000/svg" xmlns:xlink="http://www.w3.org/1999/xlink" x="0px" y="0px"
	 width="331.538px" height="402.119px" viewBox="0 0 331.538 402.119" enable-background="new 0 0 331.538 402.119"
	 xml:space="preserve">
<linearGradient id="SVGID_1_" gradientUnits="userSpaceOnUse" x1="166.3545" y1="105.3442" x2="166.3545" y2="-0.3857">
	<stop  offset="0" style="stop-color:#FFFFFF;stop-opacity:0"/>
	<stop  offset="0.0523" style="stop-color:#FEEDAE;stop-opacity:0.1856"/>
	<stop  offset="0.1046" style="stop-color:#FEDD64;stop-opacity:0.3712"/>
	<stop  offset="0.1476" style="stop-color:#FDD22E;stop-opacity:0.5241"/>
	<stop  offset="0.1797" style="stop-color:#FDCB0D;stop-opacity:0.6379"/>
	<stop  offset="0.1972" style="stop-color:#FDC800;stop-opacity:0.7"/>
	<stop  offset="0.6798" style="stop-color:#FDC801"/>
	<stop  offset="0.7495" style="stop-color:#F8B116"/>
	<stop  offset="0.8296" style="stop-color:#F49E27"/>
	<stop  offset="0.9121" style="stop-color:#F29331"/>
	<stop  offset="1" style="stop-color:#F18F34"/>
</linearGradient>
<path fill="url(#SVGID_1_)" d="M174.579,105.73c0.326-8.216-4.589-17.044-4.589-26.24c0-18.647,12.002-35.795,10.776-49.354
	C179.105,11.776,168.897,0,166.018,0c-2.874,0,2.204,11.716,0.544,29.996c-1.235,13.58-14.706,30.782-14.706,49.494
	c0,9.196,5.272,18.024,5.6,26.24H174.579z"/>
<linearGradient id="SVGID_2_" gradientUnits="userSpaceOnUse" x1="171.3242" y1="105.8179" x2="171.3242" y2="0.0913" gradientTransform="matrix(0.9511 -0.309 0.309 0.9511 -47.9929 60.4169)">
	<stop  offset="0" style="stop-color:#FFFFFF;stop-opacity:0"/>
	<stop  offset="0.0523" style="stop-color:#FEEDAE;stop-opacity:0.1856"/>
	<stop  offset="0.1046" style="stop-color:#FEDD64;stop-opacity:0.3712"/>
	<stop  offset="0.1476" style="stop-color:#FDD22E;stop-opacity:0.5241"/>
	<stop  offset="0.1797" style="stop-color:#FDCB0D;stop-opacity:0.6379"/>
	<stop  offset="0.1972" style="stop-color:#FDC800;stop-opacity:0.7"/>
	<stop  offset="0.6798" style="stop-color:#FDC801"/>
	<stop  offset="0.7495" style="stop-color:#F8B116"/>
	<stop  offset="0.8296" style="stop-color:#F49E27"/>
	<stop  offset="0.9121" style="stop-color:#F29331"/>
	<stop  offset="1" style="stop-color:#F18F34"/>
</linearGradient>
<path fill="url(#SVGID_2_)" d="M155.594,105.946c-2.227-7.915-9.63-14.792-12.472-23.538c-5.762-17.735,0.354-37.753-5.002-50.268
	c-7.253-16.949-20.6-24.995-23.34-24.104c-2.733,0.888,5.717,10.461,9.787,28.359c3.022,13.297-4.474,33.82,1.309,51.617
	c2.842,8.746,10.584,15.513,13.435,23.225L155.594,105.946z"/>
<linearGradient id="SVGID_3_" gradientUnits="userSpaceOnUse" x1="175.7178" y1="109.0874" x2="175.7178" y2="3.356" gradientTransform="matrix(0.809 -0.5878 0.5878 0.809 -75.552 131.5752)">
	<stop  offset="0" style="stop-color:#FFFFFF;stop-opacity:0"/>
	<stop  offset="0.0523" style="stop-color:#FEEDAE;stop-opacity:0.1856"/>
	<stop  offset="0.1046" style="stop-color:#FEDD64;stop-opacity:0.3712"/>
	<stop  offset="0.1476" style="stop-color:#FDD22E;stop-opacity:0.5241"/>
	<stop  offset="0.1797" style="stop-color:#FDCB0D;stop-opacity:0.6379"/>
	<stop  offset="0.1972" style="stop-color:#FDC800;stop-opacity:0.7"/>
	<stop  offset="0.6798" style="stop-color:#FDC801"/>
	<stop  offset="0.7495" style="stop-color:#F8B116"/>
	<stop  offset="0.8296" style="stop-color:#F49E27"/>
	<stop  offset="0.9121" style="stop-color:#F29331"/>
	<stop  offset="1" style="stop-color:#F18F34"/>
</linearGradient>
<path fill="url(#SVGID_3_)" d="M137.606,112.019c-4.565-6.839-13.729-11.093-19.136-18.532
	c-10.96-15.086-11.33-36.014-20.292-46.262C86.043,33.348,70.863,29.82,68.533,31.514c-2.326,1.689,8.67,8.183,18.07,23.947
	c6.983,11.712,6.196,33.548,17.195,48.686c5.405,7.439,14.86,11.483,19.954,17.937L137.606,112.019z"/>
<linearGradient id="SVGID_4_" gradientUnits="userSpaceOnUse" x1="179.5469" y1="112.501" x2="179.5469" y2="6.7705" gradientTransform="matrix(0.5878 -0.809 0.809 0.5878 -79.3227 208.9055)">
	<stop  offset="0" style="stop-color:#FFFFFF;stop-opacity:0"/>
	<stop  offset="0.0523" style="stop-color:#FEEDAE;stop-opacity:0.1856"/>
	<stop  offset="0.1046" style="stop-color:#FEDD64;stop-opacity:0.3712"/>
	<stop  offset="0.1476" style="stop-color:#FDD22E;stop-opacity:0.5241"/>
	<stop  offset="0.1797" style="stop-color:#FDCB0D;stop-opacity:0.6379"/>
	<stop  offset="0.1972" style="stop-color:#FDC800;stop-opacity:0.7"/>
	<stop  offset="0.6798" style="stop-color:#FDC801"/>
	<stop  offset="0.7495" style="stop-color:#F8B116"/>
	<stop  offset="0.8296" style="stop-color:#F49E27"/>
	<stop  offset="0.9121" style="stop-color:#F29331"/>
	<stop  offset="1" style="stop-color:#F18F34"/>
</linearGradient>
<path fill="url(#SVGID_4_)" d="M122.374,123.353c-6.455-5.095-16.485-6.308-23.926-11.712c-15.085-10.96-21.904-30.75-33.594-37.727
	c-15.83-9.448-31.356-8.113-33.049-5.782c-1.689,2.325,10.774,5.103,24.585,17.191c10.262,8.981,16.26,29.991,31.399,40.989
	c7.439,5.406,17.681,6.33,24.52,10.894L122.374,123.353z"/>
<linearGradient id="SVGID_5_" gradientUnits="userSpaceOnUse" x1="180.9326" y1="117.249" x2="180.9326" y2="11.5225" gradientTransform="matrix(0.309 -0.9511 0.9511 0.309 -58.941 282.3948)">
	<stop  offset="0" style="stop-color:#FFFFFF;stop-opacity:0"/>
	<stop  offset="0.0523" style="stop-color:#FEEDAE;stop-opacity:0.1856"/>
	<stop  offset="0.1046" style="stop-color:#FEDD64;stop-opacity:0.3712"/>
	<stop  offset="0.1476" style="stop-color:#FDD22E;stop-opacity:0.5241"/>
	<stop  offset="0.1797" style="stop-color:#FDCB0D;stop-opacity:0.6379"/>
	<stop  offset="0.1972" style="stop-color:#FDC800;stop-opacity:0.7"/>
	<stop  offset="0.6798" style="stop-color:#FDC801"/>
	<stop  offset="0.7495" style="stop-color:#F8B116"/>
	<stop  offset="0.8296" style="stop-color:#F49E27"/>
	<stop  offset="0.9121" style="stop-color:#F29331"/>
	<stop  offset="1" style="stop-color:#F18F34"/>
</linearGradient>
<path fill="url(#SVGID_5_)" d="M111.39,138.838c-7.713-2.851-17.627-0.904-26.374-3.745c-17.734-5.762-30.335-22.477-43.608-25.499
	C23.433,105.5,9.08,111.569,8.19,114.309c-0.889,2.733,11.824,1.524,28.694,8.752c12.535,5.371,24.731,23.499,42.528,29.28
	c8.746,2.842,18.772,0.556,26.686,2.783L111.39,138.838z"/>
<linearGradient id="SVGID_6_" gradientUnits="userSpaceOnUse" x1="182.0625" y1="122.3936" x2="182.0625" y2="16.6636" gradientTransform="matrix(0 -1 1 0 -17.0498 347.2476)">
	<stop  offset="0" style="stop-color:#FFFFFF;stop-opacity:0"/>
	<stop  offset="0.0523" style="stop-color:#FEEDAE;stop-opacity:0.1856"/>
	<stop  offset="0.1046" style="stop-color:#FEDD64;stop-opacity:0.3712"/>
	<stop  offset="0.1476" style="stop-color:#FDD22E;stop-opacity:0.5241"/>
	<stop  offset="0.1797" style="stop-color:#FDCB0D;stop-opacity:0.6379"/>
	<stop  offset="0.1972" style="stop-color:#FDC800;stop-opacity:0.7"/>
	<stop  offset="0.6798" style="stop-color:#FDC801"/>
	<stop  offset="0.7495" style="stop-color:#F8B116"/>
	<stop  offset="0.8296" style="stop-color:#F49E27"/>
	<stop  offset="0.9121" style="stop-color:#F29331"/>
	<stop  offset="1" style="stop-color:#F18F34"/>
</linearGradient>
<path fill="url(#SVGID_6_)" d="M105.73,156.96c-8.217-0.327-17.045,4.587-26.241,4.587c-18.647,0.001-35.795-12.001-49.354-10.774
	C11.775,152.435-0.001,162.642,0,165.521c-0.001,2.875,11.716-2.204,29.994-0.543c13.581,1.234,30.783,14.707,49.495,14.706
	c9.197,0,18.026-5.272,26.241-5.6V156.96z"/>
<linearGradient id="SVGID_7_" gradientUnits="userSpaceOnUse" x1="180.999" y1="126.8857" x2="180.999" y2="21.1592" gradientTransform="matrix(-0.309 -0.9511 0.9511 -0.309 43.3676 395.2414)">
	<stop  offset="0" style="stop-color:#FFFFFF;stop-opacity:0"/>
	<stop  offset="0.0523" style="stop-color:#FEEDAE;stop-opacity:0.1856"/>
	<stop  offset="0.1046" style="stop-color:#FEDD64;stop-opacity:0.3712"/>
	<stop  offset="0.1476" style="stop-color:#FDD22E;stop-opacity:0.5241"/>
	<stop  offset="0.1797" style="stop-color:#FDCB0D;stop-opacity:0.6379"/>
	<stop  offset="0.1972" style="stop-color:#FDC800;stop-opacity:0.7"/>
	<stop  offset="0.6798" style="stop-color:#FDC801"/>
	<stop  offset="0.7495" style="stop-color:#F8B116"/>
	<stop  offset="0.8296" style="stop-color:#F49E27"/>
	<stop  offset="0.9121" style="stop-color:#F29331"/>
	<stop  offset="1" style="stop-color:#F18F34"/>
</linearGradient>
<path fill="url(#SVGID_7_)" d="M105.946,175.945c-7.916,2.229-14.793,9.63-23.539,12.472c-17.734,5.763-37.753-0.354-50.268,5.004
	C15.192,200.674,7.146,214.02,8.037,216.76c0.888,2.733,10.461-5.718,28.358-9.785c13.298-3.023,33.82,4.474,51.617-1.311
	c8.747-2.842,15.515-10.584,23.225-13.434L105.946,175.945z"/>
<linearGradient id="SVGID_8_" gradientUnits="userSpaceOnUse" x1="178.4053" y1="132.1133" x2="178.4053" y2="26.3813" gradientTransform="matrix(-0.5878 -0.809 0.809 -0.5878 114.5273 422.8005)">
	<stop  offset="0" style="stop-color:#FFFFFF;stop-opacity:0"/>
	<stop  offset="0.0523" style="stop-color:#FEEDAE;stop-opacity:0.1856"/>
	<stop  offset="0.1046" style="stop-color:#FEDD64;stop-opacity:0.3712"/>
	<stop  offset="0.1476" style="stop-color:#FDD22E;stop-opacity:0.5241"/>
	<stop  offset="0.1797" style="stop-color:#FDCB0D;stop-opacity:0.6379"/>
	<stop  offset="0.1972" style="stop-color:#FDC800;stop-opacity:0.7"/>
	<stop  offset="0.6798" style="stop-color:#FDC801"/>
	<stop  offset="0.7495" style="stop-color:#F8B116"/>
	<stop  offset="0.8296" style="stop-color:#F49E27"/>
	<stop  offset="0.9121" style="stop-color:#F29331"/>
	<stop  offset="1" style="stop-color:#F18F34"/>
</linearGradient>
<path fill="url(#SVGID_8_)" d="M112.018,193.933c-6.839,4.566-11.092,13.73-18.532,19.136
	c-15.086,10.961-36.015,11.33-46.261,20.293c-13.877,12.135-17.405,27.314-15.712,29.645c1.69,2.326,8.184-8.67,23.947-18.07
	c11.713-6.984,33.547-6.195,48.686-17.195c7.44-5.406,11.484-14.861,17.937-19.953L112.018,193.933z"/>
<linearGradient id="SVGID_9_" gradientUnits="userSpaceOnUse" x1="174.9893" y1="135.2305" x2="174.9893" y2="29.5" gradientTransform="matrix(-0.809 -0.5878 0.5878 -0.809 191.8581 426.5722)">
	<stop  offset="0" style="stop-color:#FFFFFF;stop-opacity:0"/>
	<stop  offset="0.0523" style="stop-color:#FEEDAE;stop-opacity:0.1856"/>
	<stop  offset="0.1046" style="stop-color:#FEDD64;stop-opacity:0.3712"/>
	<stop  offset="0.1476" style="stop-color:#FDD22E;stop-opacity:0.5241"/>
	<stop  offset="0.1797" style="stop-color:#FDCB0D;stop-opacity:0.6379"/>
	<stop  offset="0.1972" style="stop-color:#FDC800;stop-opacity:0.7"/>
	<stop  offset="0.6798" style="stop-color:#FDC801"/>
	<stop  offset="0.7495" style="stop-color:#F8B116"/>
	<stop  offset="0.8296" style="stop-color:#F49E27"/>
	<stop  offset="0.9121" style="stop-color:#F29331"/>
	<stop  offset="1" style="stop-color:#F18F34"/>
</linearGradient>
<path fill="url(#SVGID_9_)" d="M123.352,209.165c-5.094,6.457-6.306,16.486-11.711,23.926
	c-10.961,15.086-30.751,21.906-37.727,33.596c-9.448,15.83-8.112,31.355-5.782,33.049c2.325,1.689,5.104-10.775,17.191-24.586
	c8.98-10.262,29.991-16.258,40.989-31.398c5.405-7.441,6.33-17.684,10.893-24.52L123.352,209.165z"/>
<linearGradient id="SVGID_10_" gradientUnits="userSpaceOnUse" x1="169.5752" y1="137.4546" x2="169.5752" y2="31.7295" gradientTransform="matrix(-0.9511 -0.309 0.309 -0.9511 265.3484 406.1876)">
	<stop  offset="0" style="stop-color:#FFFFFF;stop-opacity:0"/>
	<stop  offset="0.0523" style="stop-color:#FEEDAE;stop-opacity:0.1856"/>
	<stop  offset="0.1046" style="stop-color:#FEDD64;stop-opacity:0.3712"/>
	<stop  offset="0.1476" style="stop-color:#FDD22E;stop-opacity:0.5241"/>
	<stop  offset="0.1797" style="stop-color:#FDCB0D;stop-opacity:0.6379"/>
	<stop  offset="0.1972" style="stop-color:#FDC800;stop-opacity:0.7"/>
	<stop  offset="0.6798" style="stop-color:#FDC801"/>
	<stop  offset="0.7495" style="stop-color:#F8B116"/>
	<stop  offset="0.8296" style="stop-color:#F49E27"/>
	<stop  offset="0.9121" style="stop-color:#F29331"/>
	<stop  offset="1" style="stop-color:#F18F34"/>
</linearGradient>
<path fill="url(#SVGID_10_)" d="M138.838,220.149c-2.85,7.715-0.904,17.629-3.745,26.373c-5.763,17.736-22.478,30.338-25.5,43.609
	c-4.094,17.975,1.975,32.328,4.714,33.217c2.734,0.891,1.525-11.822,8.753-28.693c5.37-12.535,23.5-24.73,29.28-42.527
	c2.842-8.748,0.556-18.773,2.782-26.687L138.838,220.149z"/>
<linearGradient id="SVGID_11_" gradientUnits="userSpaceOnUse" x1="165.0161" y1="138.1025" x2="165.0161" y2="32.3721" gradientTransform="matrix(-1 0 0 -1 330.2002 364.2969)">
	<stop  offset="0" style="stop-color:#FFFFFF;stop-opacity:0"/>
	<stop  offset="0.0523" style="stop-color:#FEEDAE;stop-opacity:0.1856"/>
	<stop  offset="0.1046" style="stop-color:#FEDD64;stop-opacity:0.3712"/>
	<stop  offset="0.1476" style="stop-color:#FDD22E;stop-opacity:0.5241"/>
	<stop  offset="0.1797" style="stop-color:#FDCB0D;stop-opacity:0.6379"/>
	<stop  offset="0.1972" style="stop-color:#FDC800;stop-opacity:0.7"/>
	<stop  offset="0.6798" style="stop-color:#FDC801"/>
	<stop  offset="0.7495" style="stop-color:#F8B116"/>
	<stop  offset="0.8296" style="stop-color:#F49E27"/>
	<stop  offset="0.9121" style="stop-color:#F29331"/>
	<stop  offset="1" style="stop-color:#F18F34"/>
</linearGradient>
<path fill="url(#SVGID_11_)" d="M156.96,225.809c-0.325,8.219,4.588,17.045,4.588,26.24c0.001,18.648-12.003,35.797-10.774,49.355
	c1.662,18.359,11.869,30.137,14.749,30.135c2.875,0-2.204-11.717-0.544-29.996c1.234-13.58,14.708-30.781,14.705-49.492
	c0-9.199-5.271-18.027-5.6-26.24L156.96,225.809z"/>
<linearGradient id="SVGID_12_" gradientUnits="userSpaceOnUse" x1="159.9307" y1="136.5557" x2="159.9307" y2="30.8281" gradientTransform="matrix(-0.9511 0.309 -0.309 -0.9511 378.1911 303.878)">
	<stop  offset="0" style="stop-color:#FFFFFF;stop-opacity:0"/>
	<stop  offset="0.0523" style="stop-color:#FEEDAE;stop-opacity:0.1856"/>
	<stop  offset="0.1046" style="stop-color:#FEDD64;stop-opacity:0.3712"/>
	<stop  offset="0.1476" style="stop-color:#FDD22E;stop-opacity:0.5241"/>
	<stop  offset="0.1797" style="stop-color:#FDCB0D;stop-opacity:0.6379"/>
	<stop  offset="0.1972" style="stop-color:#FDC800;stop-opacity:0.7"/>
	<stop  offset="0.6798" style="stop-color:#FDC801"/>
	<stop  offset="0.7495" style="stop-color:#F8B116"/>
	<stop  offset="0.8296" style="stop-color:#F49E27"/>
	<stop  offset="0.9121" style="stop-color:#F29331"/>
	<stop  offset="1" style="stop-color:#F18F34"/>
</linearGradient>
<path fill="url(#SVGID_12_)" d="M175.944,225.592c2.229,7.916,9.631,14.793,12.473,23.539c5.764,17.736-0.354,37.754,5.002,50.268
	c7.254,16.949,20.602,24.994,23.342,24.104c2.732-0.889-5.717-10.461-9.787-28.359c-3.023-13.297,4.477-33.818-1.309-51.615
	c-2.842-8.748-10.586-15.516-13.434-23.225L175.944,225.592z"/>
<linearGradient id="SVGID_13_" gradientUnits="userSpaceOnUse" x1="155.3794" y1="134.7979" x2="155.3794" y2="29.0664" gradientTransform="matrix(-0.809 0.5878 -0.5878 -0.809 405.7483 232.7193)">
	<stop  offset="0" style="stop-color:#FFFFFF;stop-opacity:0"/>
	<stop  offset="0.0523" style="stop-color:#FEEDAE;stop-opacity:0.0796"/>
	<stop  offset="0.1046" style="stop-color:#FEDD64;stop-opacity:0.1591"/>
	<stop  offset="0.1476" style="stop-color:#FDD22E;stop-opacity:0.2246"/>
	<stop  offset="0.1797" style="stop-color:#FDCB0D;stop-opacity:0.2734"/>
	<stop  offset="0.1972" style="stop-color:#FDC800;stop-opacity:0.3"/>
	<stop  offset="0.6798" style="stop-color:#FDC801"/>
	<stop  offset="0.7495" style="stop-color:#F8B116"/>
	<stop  offset="0.8296" style="stop-color:#F49E27"/>
	<stop  offset="0.9121" style="stop-color:#F29331"/>
	<stop  offset="1" style="stop-color:#F18F34"/>
</linearGradient>
<path fill="url(#SVGID_13_)" d="M193.933,219.521c4.566,6.839,13.73,11.093,19.137,18.532c10.961,15.086,11.33,36.016,20.291,46.262
	c12.137,13.877,27.316,17.404,29.646,15.711c2.326-1.689-8.67-8.184-18.072-23.947c-6.984-11.711-6.191-33.547-17.193-48.684
	c-5.406-7.441-14.863-11.486-19.953-17.938L193.933,219.521z"/>
<linearGradient id="SVGID_14_" gradientUnits="userSpaceOnUse" x1="152.2573" y1="130.667" x2="152.2573" y2="24.9375" gradientTransform="matrix(-0.5878 0.809 -0.809 -0.5878 409.518 155.3899)">
	<stop  offset="0" style="stop-color:#FFFFFF;stop-opacity:0"/>
	<stop  offset="0.0523" style="stop-color:#FEEDAE;stop-opacity:0.1856"/>
	<stop  offset="0.1046" style="stop-color:#FEDD64;stop-opacity:0.3712"/>
	<stop  offset="0.1476" style="stop-color:#FDD22E;stop-opacity:0.5241"/>
	<stop  offset="0.1797" style="stop-color:#FDCB0D;stop-opacity:0.6379"/>
	<stop  offset="0.1972" style="stop-color:#FDC800;stop-opacity:0.7"/>
	<stop  offset="0.6798" style="stop-color:#FDC801"/>
	<stop  offset="0.7495" style="stop-color:#F8B116"/>
	<stop  offset="0.8296" style="stop-color:#F49E27"/>
	<stop  offset="0.9121" style="stop-color:#F29331"/>
	<stop  offset="1" style="stop-color:#F18F34"/>
</linearGradient>
<path fill="url(#SVGID_14_)" d="M209.165,208.188c6.457,5.093,16.486,6.307,23.926,11.711
	c15.088,10.959,21.906,30.752,33.594,37.727c15.83,9.449,31.357,8.111,33.049,5.781c1.691-2.324-10.771-5.104-24.586-17.189
	c-10.262-8.98-16.256-29.992-31.396-40.989c-7.443-5.406-17.684-6.331-24.521-10.894L209.165,208.188z"/>
<linearGradient id="SVGID_15_" gradientUnits="userSpaceOnUse" x1="149.3662" y1="126.0938" x2="149.3662" y2="20.3682" gradientTransform="matrix(-0.309 0.9511 -0.9511 -0.309 389.1373 81.9006)">
	<stop  offset="0" style="stop-color:#FFFFFF;stop-opacity:0"/>
	<stop  offset="0.0523" style="stop-color:#FEEDAE;stop-opacity:0.1856"/>
	<stop  offset="0.1046" style="stop-color:#FEDD64;stop-opacity:0.3712"/>
	<stop  offset="0.1476" style="stop-color:#FDD22E;stop-opacity:0.5241"/>
	<stop  offset="0.1797" style="stop-color:#FDCB0D;stop-opacity:0.6379"/>
	<stop  offset="0.1972" style="stop-color:#FDC800;stop-opacity:0.7"/>
	<stop  offset="0.6798" style="stop-color:#FDC801"/>
	<stop  offset="0.7495" style="stop-color:#F8B116"/>
	<stop  offset="0.8296" style="stop-color:#F49E27"/>
	<stop  offset="0.9121" style="stop-color:#F29331"/>
	<stop  offset="1" style="stop-color:#F18F34"/>
</linearGradient>
<path fill="url(#SVGID_15_)" d="M220.147,192.702c7.717,2.847,17.631,0.903,26.375,3.745c17.736,5.761,30.336,22.477,43.607,25.499
	c17.977,4.094,32.33-1.976,33.219-4.715c0.889-2.734-11.822-1.524-28.693-8.752c-12.537-5.369-24.73-23.5-42.527-29.28
	c-8.75-2.841-18.775-0.555-26.686-2.783L220.147,192.702z"/>
<linearGradient id="SVGID_16_" gradientUnits="userSpaceOnUse" x1="149.3071" y1="121.0488" x2="149.3071" y2="15.3203" gradientTransform="matrix(0 1 -1 0 347.2446 17.0488)">
	<stop  offset="0" style="stop-color:#FFFFFF;stop-opacity:0"/>
	<stop  offset="0.0523" style="stop-color:#FEEDAE;stop-opacity:0.1856"/>
	<stop  offset="0.1046" style="stop-color:#FEDD64;stop-opacity:0.3712"/>
	<stop  offset="0.1476" style="stop-color:#FDD22E;stop-opacity:0.5241"/>
	<stop  offset="0.1797" style="stop-color:#FDCB0D;stop-opacity:0.6379"/>
	<stop  offset="0.1972" style="stop-color:#FDC800;stop-opacity:0.7"/>
	<stop  offset="0.6798" style="stop-color:#FDC801"/>
	<stop  offset="0.7495" style="stop-color:#F8B116"/>
	<stop  offset="0.8296" style="stop-color:#F49E27"/>
	<stop  offset="0.9121" style="stop-color:#F29331"/>
	<stop  offset="1" style="stop-color:#F18F34"/>
</linearGradient>
<path fill="url(#SVGID_16_)" d="M225.81,174.581c8.217,0.323,17.045-4.589,26.24-4.59c18.648-0.001,35.795,12.003,49.352,10.776
	c18.363-1.662,30.139-11.869,30.137-14.749c0.002-2.875-11.713,2.204-29.994,0.543c-13.58-1.232-30.781-14.708-49.494-14.705
	c-9.197,0.001-18.027,5.273-26.238,5.599L225.81,174.581z"/>
<linearGradient id="SVGID_17_" gradientUnits="userSpaceOnUse" x1="150.2588" y1="115.4873" x2="150.2588" y2="9.7603" gradientTransform="matrix(0.309 0.9511 -0.9511 0.309 286.8277 -30.9436)">
	<stop  offset="0" style="stop-color:#FFFFFF;stop-opacity:0"/>
	<stop  offset="0.0523" style="stop-color:#FEEDAE;stop-opacity:0.1856"/>
	<stop  offset="0.1046" style="stop-color:#FEDD64;stop-opacity:0.3712"/>
	<stop  offset="0.1476" style="stop-color:#FDD22E;stop-opacity:0.5241"/>
	<stop  offset="0.1797" style="stop-color:#FDCB0D;stop-opacity:0.6379"/>
	<stop  offset="0.1972" style="stop-color:#FDC800;stop-opacity:0.7"/>
	<stop  offset="0.6798" style="stop-color:#FDC801"/>
	<stop  offset="0.7495" style="stop-color:#F8B116"/>
	<stop  offset="0.8296" style="stop-color:#F49E27"/>
	<stop  offset="0.9121" style="stop-color:#F29331"/>
	<stop  offset="1" style="stop-color:#F18F34"/>
</linearGradient>
<path fill="url(#SVGID_17_)" d="M225.593,155.596c7.916-2.232,14.793-9.632,23.539-12.473c17.734-5.764,37.752,0.353,50.266-5.003
	c16.949-7.254,24.996-20.601,24.105-23.339c-0.889-2.735-10.461,5.716-28.359,9.785c-13.297,3.025-33.82-4.476-51.615,1.31
	c-8.748,2.843-15.518,10.585-23.225,13.434L225.593,155.596z"/>
<linearGradient id="SVGID_18_" gradientUnits="userSpaceOnUse" x1="152.6938" y1="111.7725" x2="152.6938" y2="6.0405" gradientTransform="matrix(0.5878 0.809 -0.809 0.5878 215.669 -58.5027)">
	<stop  offset="0" style="stop-color:#FFFFFF;stop-opacity:0"/>
	<stop  offset="0.0523" style="stop-color:#FEEDAE;stop-opacity:0.1856"/>
	<stop  offset="0.1046" style="stop-color:#FEDD64;stop-opacity:0.3712"/>
	<stop  offset="0.1476" style="stop-color:#FDD22E;stop-opacity:0.5241"/>
	<stop  offset="0.1797" style="stop-color:#FDCB0D;stop-opacity:0.6379"/>
	<stop  offset="0.1972" style="stop-color:#FDC800;stop-opacity:0.7"/>
	<stop  offset="0.6798" style="stop-color:#FDC801"/>
	<stop  offset="0.7495" style="stop-color:#F8B116"/>
	<stop  offset="0.8296" style="stop-color:#F49E27"/>
	<stop  offset="0.9121" style="stop-color:#F29331"/>
	<stop  offset="1" style="stop-color:#F18F34"/>
</linearGradient>
<path fill="url(#SVGID_18_)" d="M219.521,137.607c6.84-4.569,11.092-13.731,18.531-19.136c15.088-10.963,36.016-11.331,46.26-20.292
	c13.881-12.137,17.408-27.317,15.715-29.646c-1.689-2.327-8.184,8.668-23.947,18.07c-11.711,6.985-33.549,6.193-48.686,17.195
	c-7.439,5.407-11.486,14.862-17.938,19.953L219.521,137.607z"/>
<linearGradient id="SVGID_19_" gradientUnits="userSpaceOnUse" x1="156.8184" y1="107.939" x2="156.8184" y2="2.2104" gradientTransform="matrix(0.809 0.5878 -0.5878 0.809 138.3396 -62.2734)">
	<stop  offset="0" style="stop-color:#FFFFFF;stop-opacity:0"/>
	<stop  offset="0.0523" style="stop-color:#FEEDAE;stop-opacity:0.1856"/>
	<stop  offset="0.1046" style="stop-color:#FEDD64;stop-opacity:0.3712"/>
	<stop  offset="0.1476" style="stop-color:#FDD22E;stop-opacity:0.5241"/>
	<stop  offset="0.1797" style="stop-color:#FDCB0D;stop-opacity:0.6379"/>
	<stop  offset="0.1972" style="stop-color:#FDC800;stop-opacity:0.7"/>
	<stop  offset="0.6798" style="stop-color:#FDC801"/>
	<stop  offset="0.7495" style="stop-color:#F8B116"/>
	<stop  offset="0.8296" style="stop-color:#F49E27"/>
	<stop  offset="0.9121" style="stop-color:#F29331"/>
	<stop  offset="1" style="stop-color:#F18F34"/>
</linearGradient>
<path fill="url(#SVGID_19_)" d="M208.188,122.376c5.092-6.459,6.305-16.487,11.711-23.927c10.959-15.088,30.75-21.905,37.725-33.593
	c9.449-15.832,8.113-31.36,5.781-33.051c-2.324-1.691-5.102,10.772-17.188,24.585c-8.98,10.262-29.994,16.257-40.992,31.398
	c-5.404,7.442-6.33,17.684-10.891,24.519L208.188,122.376z"/>
<linearGradient id="SVGID_20_" gradientUnits="userSpaceOnUse" x1="160.7285" y1="105.8867" x2="160.7285" y2="0.1611" gradientTransform="matrix(0.9511 0.309 -0.309 0.9511 64.8499 -41.8917)">
	<stop  offset="0" style="stop-color:#FFFFFF;stop-opacity:0"/>
	<stop  offset="0.0523" style="stop-color:#FEEDAE;stop-opacity:0.1856"/>
	<stop  offset="0.1046" style="stop-color:#FEDD64;stop-opacity:0.3712"/>
	<stop  offset="0.1476" style="stop-color:#FDD22E;stop-opacity:0.5241"/>
	<stop  offset="0.1797" style="stop-color:#FDCB0D;stop-opacity:0.6379"/>
	<stop  offset="0.1972" style="stop-color:#FDC800;stop-opacity:0.7"/>
	<stop  offset="0.6798" style="stop-color:#FDC801"/>
	<stop  offset="0.7495" style="stop-color:#F8B116"/>
	<stop  offset="0.8296" style="stop-color:#F49E27"/>
	<stop  offset="0.9121" style="stop-color:#F29331"/>
	<stop  offset="1" style="stop-color:#F18F34"/>
</linearGradient>
<path fill="url(#SVGID_20_)" d="M192.703,111.392c2.845-7.716,0.902-17.628,3.743-26.374c5.762-17.737,22.477-30.336,25.498-43.607
	c4.096-17.977-1.975-32.332-4.713-33.22c-2.734-0.89-1.523,11.822-8.752,28.694c-5.369,12.534-23.501,24.729-29.281,42.528
	c-2.84,8.748-0.555,18.775-2.782,26.685L192.703,111.392z"/>
<circle id="Sun" fill="#FDC801" cx="165.77" cy="165.771" r="76.403"/>
<g>
	<path fill="#009FE3" d="M96.326,302.07L96.326,302.07L96.326,302.07c-0.195-0.738-0.499-1.432-0.895-2.063l-6.348-14.623
		l-6.348,14.623c-0.396,0.631-0.7,1.324-0.895,2.063l0,0l0,0c-0.162,0.615-0.257,1.256-0.257,1.92c0,4.143,3.358,7.5,7.5,7.5
		s7.5-3.357,7.5-7.5C96.583,303.326,96.488,302.685,96.326,302.07z"/>
	<path fill="#009FE3" d="M81.326,372.175L81.326,372.175L81.326,372.175c-0.195-0.738-0.499-1.432-0.895-2.063l-6.348-14.623
		l-6.348,14.623c-0.396,0.631-0.7,1.324-0.895,2.063l0,0l0,0c-0.162,0.615-0.257,1.256-0.257,1.92c0,4.143,3.358,7.5,7.5,7.5
		s7.5-3.357,7.5-7.5C81.583,373.431,81.488,372.791,81.326,372.175z"/>
	<path fill="#009FE3" d="M151.055,328.175L151.055,328.175L151.055,328.175c-0.195-0.738-0.499-1.432-0.896-2.063l-6.348-14.623
		l-6.348,14.623c-0.396,0.631-0.699,1.324-0.895,2.063l0,0l0,0c-0.162,0.615-0.257,1.256-0.257,1.92c0,4.143,3.358,7.5,7.5,7.5
		c4.143,0,7.5-3.357,7.5-7.5C151.312,329.431,151.217,328.791,151.055,328.175z"/>
	<path fill="#009FE3" d="M187.326,299.07L187.326,299.07L187.326,299.07c-0.195-0.738-0.499-1.432-0.896-2.063l-6.348-14.623
		l-6.348,14.623c-0.396,0.631-0.699,1.324-0.895,2.063l0,0l0,0c-0.162,0.615-0.258,1.256-0.258,1.92c0,4.143,3.358,7.5,7.5,7.5
		c4.143,0,7.5-3.357,7.5-7.5C187.583,300.326,187.488,299.685,187.326,299.07z"/>
	<path fill="#009FE3" d="M277.327,270.957L277.327,270.957L277.327,270.957c-0.195-0.738-0.499-1.432-0.896-2.063l-6.348-14.623
		l-6.348,14.623c-0.396,0.631-0.7,1.324-0.896,2.063l0,0l0,0c-0.162,0.615-0.257,1.256-0.257,1.92c0,4.143,3.358,7.5,7.5,7.5
		s7.5-3.357,7.5-7.5C277.584,272.212,277.489,271.572,277.327,270.957z"/>
	<path fill="#009FE3" d="M260.659,332.228L260.659,332.228L260.659,332.228c-0.195-0.738-0.498-1.432-0.895-2.063l-6.348-14.623
		l-6.348,14.623c-0.396,0.631-0.699,1.324-0.895,2.063l0,0l0,0c-0.162,0.615-0.258,1.256-0.258,1.92c0,4.143,3.357,7.5,7.5,7.5
		s7.5-3.357,7.5-7.5C260.917,333.484,260.821,332.843,260.659,332.228z"/>
	<path fill="#009FE3" d="M280.326,220.175L280.326,220.175L280.326,220.175c-0.195-0.738-0.499-1.432-0.896-2.063l-6.348-14.623
		l-6.348,14.623c-0.396,0.631-0.699,1.324-0.895,2.063l0,0l0,0c-0.162,0.614-0.258,1.255-0.258,1.92c0,4.143,3.358,7.5,7.5,7.5
		c4.143,0,7.5-3.357,7.5-7.5C280.583,221.43,280.488,220.79,280.326,220.175z"/>
	<path fill="#009FE3" d="M122.4,390.515L122.4,390.515L122.4,390.515c-0.139-0.502-0.354-0.975-0.636-1.404l-4.514-9.955
		l-4.514,9.955c-0.282,0.43-0.498,0.902-0.636,1.404l0,0l0,0c-0.115,0.418-0.183,0.855-0.183,1.307c0,2.82,2.388,5.107,5.333,5.107
		c2.946,0,5.333-2.287,5.333-5.107C122.583,391.371,122.515,390.933,122.4,390.515z"/>
	<path fill="#009FE3" d="M231.487,287.857L231.487,287.857L231.487,287.857c-0.139-0.502-0.354-0.975-0.637-1.404l-4.514-9.955
		l-4.514,9.955c-0.281,0.43-0.498,0.902-0.637,1.404l0,0l0,0c-0.115,0.418-0.183,0.855-0.183,1.307c0,2.82,2.388,5.107,5.333,5.107
		s5.334-2.287,5.334-5.107C231.671,288.712,231.603,288.275,231.487,287.857z"/>
	<path fill="#009FE3" d="M155.066,291.736L155.066,291.736L155.066,291.736c-0.139-0.502-0.354-0.975-0.636-1.404l-4.515-9.955
		l-4.514,9.955c-0.282,0.43-0.497,0.902-0.636,1.404l0,0l0,0c-0.115,0.418-0.184,0.855-0.184,1.307c0,2.82,2.388,5.107,5.333,5.107
		c2.946,0,5.333-2.287,5.333-5.107C155.249,292.591,155.182,292.154,155.066,291.736z"/>
	<path fill="#009FE3" d="M60.067,300.912L60.067,300.912L60.067,300.912c-0.139-0.504-0.354-0.975-0.636-1.404l-4.514-9.955
		l-4.514,9.955c-0.282,0.43-0.498,0.9-0.636,1.404l0,0l0,0c-0.115,0.418-0.183,0.854-0.183,1.307c0,2.82,2.388,5.105,5.333,5.105
		c2.946,0,5.333-2.285,5.333-5.105C60.25,301.765,60.182,301.33,60.067,300.912z"/>
	<path fill="#009FE3" d="M73.9,338.183L73.9,338.183L73.9,338.183c-0.139-0.504-0.354-0.975-0.636-1.404l-4.514-9.955l-4.514,9.955
		c-0.282,0.43-0.498,0.9-0.636,1.404l0,0l0,0c-0.115,0.418-0.183,0.854-0.183,1.307c0,2.82,2.388,5.105,5.333,5.105
		c2.946,0,5.333-2.285,5.333-5.105C74.083,339.037,74.016,338.601,73.9,338.183z"/>
	<path fill="#009FE3" d="M249.097,262.849L249.097,262.849L249.097,262.849c-0.139-0.503-0.354-0.975-0.636-1.404l-4.515-9.955
		l-4.514,9.955c-0.281,0.43-0.497,0.901-0.636,1.404l0,0l0,0c-0.115,0.418-0.183,0.854-0.183,1.307c0,2.82,2.387,5.105,5.332,5.105
		c2.946,0,5.334-2.285,5.334-5.105C249.28,263.704,249.212,263.267,249.097,262.849z"/>
	<path fill="#009FE3" d="M302.733,251.815L302.733,251.815L302.733,251.815c-0.139-0.503-0.354-0.975-0.637-1.404l-4.514-9.955
		l-4.514,9.955c-0.281,0.43-0.498,0.901-0.637,1.404l0,0l0,0c-0.115,0.418-0.183,0.854-0.183,1.307c0,2.82,2.388,5.106,5.333,5.106
		s5.334-2.286,5.334-5.106C302.917,252.669,302.849,252.233,302.733,251.815z"/>
	<path fill="#009FE3" d="M200.606,259.182L200.606,259.182L200.606,259.182c-0.139-0.503-0.355-0.975-0.637-1.404l-4.514-9.955
		l-4.514,9.955c-0.282,0.43-0.498,0.901-0.637,1.404l0,0l0,0c-0.115,0.418-0.184,0.854-0.184,1.307c0,2.82,2.389,5.106,5.334,5.106
		s5.333-2.286,5.333-5.106C200.789,260.037,200.722,259.6,200.606,259.182z"/>
	<path fill="#009FE3" d="M196.733,216.452L196.733,216.452L196.733,216.452c-0.139-0.503-0.354-0.975-0.636-1.404l-4.515-9.955
		l-4.514,9.955c-0.281,0.43-0.497,0.901-0.636,1.404l0,0l0,0c-0.115,0.418-0.183,0.854-0.183,1.307c0,2.82,2.387,5.106,5.332,5.106
		c2.946,0,5.334-2.286,5.334-5.106C196.917,217.306,196.849,216.87,196.733,216.452z"/>
	<path fill="#009FE3" d="M157.043,365.849L157.043,365.849L157.043,365.849c-0.139-0.502-0.354-0.975-0.636-1.404l-4.515-9.955
		l-4.514,9.955c-0.282,0.43-0.497,0.902-0.636,1.404l0,0l0,0c-0.115,0.418-0.184,0.855-0.184,1.307c0,2.82,2.388,5.107,5.333,5.107
		c2.946,0,5.333-2.287,5.333-5.107C157.226,366.705,157.158,366.267,157.043,365.849z"/>
	<path fill="#009FE3" d="M125.096,359.63L125.096,359.63L125.096,359.63c-0.067-0.295-0.173-0.57-0.311-0.82l-2.202-5.816
		l-2.202,5.816c-0.138,0.25-0.243,0.525-0.311,0.82l0,0l0,0c-0.057,0.244-0.09,0.498-0.09,0.762c0,1.648,1.166,2.984,2.603,2.984
		c1.438,0,2.603-1.336,2.603-2.984C125.186,360.128,125.152,359.875,125.096,359.63z"/>
	<path fill="#009FE3" d="M94.199,398.373L94.199,398.373L94.199,398.373c-0.067-0.293-0.173-0.568-0.311-0.82l-2.202-5.814
		l-2.202,5.814c-0.138,0.252-0.243,0.527-0.311,0.82l0,0l0,0c-0.057,0.244-0.09,0.5-0.09,0.764c0,1.646,1.166,2.982,2.603,2.982
		c1.438,0,2.603-1.336,2.603-2.982C94.289,398.873,94.255,398.617,94.199,398.373z"/>
	<path fill="#009FE3" d="M99.096,368.517L99.096,368.517L99.096,368.517c-0.067-0.295-0.173-0.57-0.311-0.82l-2.202-5.816
		l-2.202,5.816c-0.138,0.25-0.243,0.525-0.311,0.82l0,0l0,0c-0.057,0.244-0.09,0.498-0.09,0.762c0,1.648,1.166,2.984,2.603,2.984
		c1.438,0,2.603-1.336,2.603-2.984C99.186,369.015,99.153,368.761,99.096,368.517z"/>
	<path fill="#009FE3" d="M125.096,319.63L125.096,319.63L125.096,319.63c-0.067-0.295-0.173-0.57-0.311-0.82l-2.202-5.816
		l-2.202,5.816c-0.138,0.25-0.243,0.525-0.311,0.82l0,0l0,0c-0.057,0.244-0.09,0.498-0.09,0.762c0,1.648,1.166,2.984,2.603,2.984
		c1.438,0,2.603-1.336,2.603-2.984C125.186,320.128,125.152,319.875,125.096,319.63z"/>
	<path fill="#009FE3" d="M88.994,328.269L88.994,328.269L88.994,328.269c-0.067-0.295-0.173-0.57-0.311-0.82l-2.202-5.816
		l-2.202,5.816c-0.138,0.25-0.243,0.525-0.311,0.82l0,0l0,0c-0.057,0.244-0.09,0.498-0.09,0.762c0,1.648,1.166,2.984,2.603,2.984
		c1.438,0,2.603-1.336,2.603-2.984C89.083,328.767,89.05,328.513,88.994,328.269z"/>
	<path fill="#009FE3" d="M52.096,355.935L52.096,355.935L52.096,355.935c-0.067-0.295-0.173-0.57-0.311-0.82l-2.202-5.816
		l-2.202,5.816c-0.138,0.25-0.243,0.525-0.311,0.82l0,0l0,0c-0.057,0.244-0.09,0.498-0.09,0.762c0,1.648,1.166,2.984,2.603,2.984
		c1.438,0,2.603-1.336,2.603-2.984C52.186,356.433,52.153,356.179,52.096,355.935z"/>
	<path fill="#009FE3" d="M118.429,299.595L118.429,299.595L118.429,299.595c-0.067-0.295-0.173-0.57-0.311-0.82l-2.202-5.816
		l-2.202,5.816c-0.138,0.25-0.243,0.525-0.311,0.82l0,0l0,0c-0.057,0.244-0.09,0.498-0.09,0.762c0,1.648,1.166,2.984,2.603,2.984
		c1.438,0,2.603-1.336,2.603-2.984C118.519,300.093,118.486,299.839,118.429,299.595z"/>
	<path fill="#009FE3" d="M38.032,294.404L38.032,294.404L38.032,294.404c-0.067-0.293-0.173-0.568-0.311-0.82l-2.202-5.814
		l-2.202,5.814c-0.138,0.252-0.243,0.527-0.311,0.82l0,0l0,0c-0.057,0.244-0.09,0.5-0.09,0.764c0,1.646,1.166,2.982,2.603,2.982
		c1.438,0,2.603-1.336,2.603-2.982C38.122,294.904,38.088,294.648,38.032,294.404z"/>
	<path fill="#009FE3" d="M170.214,275.898L170.214,275.898L170.214,275.898c-0.067-0.295-0.173-0.57-0.311-0.82l-2.202-5.816
		l-2.202,5.816c-0.139,0.25-0.244,0.525-0.311,0.82l0,0l0,0c-0.057,0.244-0.09,0.498-0.09,0.762c0,1.648,1.166,2.984,2.603,2.984
		c1.438,0,2.603-1.336,2.603-2.984C170.304,276.396,170.271,276.142,170.214,275.898z"/>
	<path fill="#009FE3" d="M203.302,283.83L203.302,283.83L203.302,283.83c-0.067-0.293-0.173-0.568-0.311-0.82l-2.202-5.814
		l-2.202,5.814c-0.138,0.252-0.243,0.527-0.311,0.82l0,0l0,0c-0.057,0.244-0.09,0.5-0.09,0.764c0,1.646,1.166,2.982,2.603,2.982
		c1.438,0,2.603-1.336,2.603-2.982C203.392,284.33,203.358,284.074,203.302,283.83z"/>
	<path fill="#009FE3" d="M162.341,316.988L162.341,316.988L162.341,316.988c-0.066-0.293-0.172-0.568-0.311-0.82l-2.201-5.814
		l-2.203,5.814c-0.137,0.252-0.242,0.527-0.311,0.82l0,0l0,0c-0.057,0.244-0.09,0.5-0.09,0.764c0,1.646,1.166,2.982,2.604,2.982
		s2.602-1.336,2.602-2.982C162.431,317.488,162.397,317.232,162.341,316.988z"/>
	<path fill="#009FE3" d="M221.351,261.821L221.351,261.821L221.351,261.821c-0.066-0.294-0.172-0.569-0.311-0.82l-2.201-5.815
		L216.636,261c-0.137,0.251-0.242,0.526-0.311,0.82l0,0l0,0c-0.057,0.244-0.09,0.499-0.09,0.763c0,1.647,1.166,2.983,2.604,2.983
		s2.602-1.336,2.602-2.983C221.44,262.32,221.407,262.065,221.351,261.821z"/>
	<path fill="#009FE3" d="M255.93,299.595L255.93,299.595L255.93,299.595c-0.067-0.295-0.173-0.57-0.311-0.82l-2.202-5.816
		l-2.202,5.816c-0.138,0.25-0.243,0.525-0.311,0.82l0,0l0,0c-0.057,0.244-0.09,0.498-0.09,0.762c0,1.648,1.166,2.984,2.603,2.984
		c1.438,0,2.603-1.336,2.603-2.984C256.02,300.093,255.986,299.839,255.93,299.595z"/>
	<path fill="#009FE3" d="M255.93,241.9L255.93,241.9L255.93,241.9c-0.067-0.293-0.173-0.568-0.311-0.82l-2.202-5.814l-2.202,5.814
		c-0.138,0.252-0.243,0.527-0.311,0.82l0,0l0,0c-0.057,0.244-0.09,0.5-0.09,0.764c0,1.646,1.166,2.982,2.603,2.982
		c1.438,0,2.603-1.336,2.603-2.982C256.02,242.4,255.986,242.144,255.93,241.9z"/>
	<path fill="#009FE3" d="M248.431,215.423L248.431,215.423L248.431,215.423c-0.068-0.294-0.174-0.569-0.311-0.82l-2.203-5.815
		l-2.201,5.815c-0.139,0.251-0.244,0.526-0.311,0.82l0,0l0,0c-0.057,0.244-0.09,0.499-0.09,0.763c0,1.647,1.166,2.983,2.602,2.983
		c1.438,0,2.604-1.336,2.604-2.983C248.521,215.922,248.487,215.667,248.431,215.423z"/>
	<path fill="#009FE3" d="M302.698,215.423L302.698,215.423L302.698,215.423c-0.067-0.294-0.173-0.569-0.311-0.82l-2.202-5.815
		l-2.202,5.815c-0.138,0.251-0.243,0.526-0.311,0.82l0,0l0,0c-0.057,0.244-0.09,0.499-0.09,0.763c0,1.647,1.166,2.983,2.603,2.983
		c1.438,0,2.603-1.336,2.603-2.983C302.788,215.922,302.755,215.667,302.698,215.423z"/>
	<path fill="#009FE3" d="M294.763,286.83L294.763,286.83L294.763,286.83c-0.066-0.295-0.172-0.57-0.311-0.82l-2.201-5.816
		l-2.203,5.816c-0.137,0.25-0.242,0.525-0.311,0.82l0,0l0,0c-0.057,0.244-0.09,0.498-0.09,0.762c0,1.648,1.166,2.984,2.604,2.984
		s2.602-1.336,2.602-2.984C294.853,287.328,294.819,287.074,294.763,286.83z"/>
	<path fill="#009FE3" d="M216.146,212.796L216.146,212.796L216.146,212.796c-0.066-0.294-0.172-0.569-0.311-0.82l-2.201-5.815
		l-2.203,5.815c-0.137,0.251-0.242,0.526-0.311,0.82l0,0l0,0c-0.057,0.244-0.09,0.499-0.09,0.763c0,1.647,1.166,2.983,2.604,2.983
		s2.602-1.336,2.602-2.983C216.235,213.295,216.202,213.041,216.146,212.796z"/>
	<path fill="#DADADA" d="M178.903,211.837c-5.891-12.135-17.801-20.313-31.359-20.016c-0.766,0.017-1.521,0.07-2.273,0.14
		c-8.299-14.299-23.333-23.706-40.309-23.333c-19.168,0.419-35.323,13.177-41.865,30.959c-1.159-0.102-2.333-0.141-3.52-0.115
		c-14.77,0.324-27.145,10.605-31.737,24.771c-0.048,0-0.096-0.002-0.145-0.002c-13.228,0.289-23.707,11.607-23.408,25.279
		c0.3,13.672,11.265,24.521,24.493,24.232c5.369-0.117,10.284-2.053,14.211-5.225c5.335,3.385,11.575,5.273,18.211,5.129
		c6.744-0.148,12.984-2.379,18.218-6.102c6.45,7.146,15.524,11.512,25.491,11.293c11.812-0.258,22.091-6.889,28.085-16.777
		c4.861,2.627,10.365,4.063,16.173,3.936c7.688-0.168,14.726-3.037,20.359-7.744c2.996,1.432,6.33,2.199,9.83,2.123
		c12.605-0.275,22.584-11.367,22.291-24.775C201.36,222.419,191.235,211.912,178.903,211.837z"/>
	<path opacity="0.05" fill="#312783" d="M201.649,235.572c-0.133-6.051-2.338-11.533-5.873-15.707
		c-1.596,31.043-25.678,29.432-25.678,29.432c-13.182,14.564-40.057,4.332-40.057,4.332c-30.057,23.895-50.855-2.771-50.855-2.771
		c-18.639,9.307-36.361-1.555-36.361-1.555c-28.212,7.1-34.401-14.279-34.402-14.283c-2.71,4.113-4.254,9.105-4.137,14.463
		c0.3,13.672,11.265,24.521,24.493,24.232c5.369-0.117,10.284-2.053,14.211-5.225c5.335,3.385,11.575,5.273,18.211,5.129
		c6.744-0.148,12.984-2.379,18.218-6.102c6.45,7.146,15.524,11.512,25.491,11.293c11.812-0.258,22.091-6.889,28.085-16.777
		c4.861,2.627,10.365,4.063,16.173,3.936c7.688-0.168,14.726-3.037,20.359-7.744c2.996,1.432,6.33,2.199,9.83,2.123
		C191.964,260.072,201.942,248.98,201.649,235.572z"/>
	<path opacity="0.3" fill="#F6F6F6" d="M195.456,220.019c-4.17-4.895-10.176-7.973-16.826-8.012
		c-5.893-12.135-17.803-20.313-31.359-20.016c-0.766,0.016-1.523,0.07-2.275,0.139c-8.298-14.299-23.331-23.705-40.309-23.332
		c-19.167,0.418-35.322,13.176-41.864,30.959c-1.159-0.102-2.333-0.141-3.52-0.115c-14.77,0.324-27.145,10.605-31.737,24.771
		c-0.048,0-0.096-0.002-0.145-0.002c-8.001,0.176-14.991,4.389-19.205,10.715c0.683-0.641,8.582-7.729,21.608-6.041
		c0,0,12.387-34.125,36.818-22.361c0,0,27.158-62.369,77.215-9.577c0,0,21.437-3.271,33.578,19.608
		C177.435,216.755,180.265,214.679,195.456,220.019z"/>
	<path fill="#DADADA" d="M172.694,139.074c2.725,0,5.328,0.604,7.727,1.695c2.92-2.429,6.242-4.224,9.83-5.219
		c2.916-9.787,10.85-16.809,20.186-16.809c0.127,0,0.252,0.008,0.379,0.011c6.947-7.31,16.424-11.818,26.879-11.818
		c8.441,0,16.244,2.944,22.596,7.923c2.623-0.681,5.365-1.045,8.193-1.045c11.137,0,20.992,5.61,27.068,14.228
		c2.025-0.577,4.156-0.891,6.357-0.891c13.26,0,24.008,11.165,24.008,24.938c0,8.15-3.766,15.387-9.586,19.937
		c0.016,0.403,0.031,0.807,0.031,1.214c0,17.594-15.08,31.854-33.682,31.854c-9.818,0-18.654-3.976-24.811-10.316
		c-5.625,3.985-12.609,6.345-20.176,6.345c-8.473,0-16.209-2.965-22.129-7.85c-5.008,5.209-11.582,8.377-18.787,8.377
		c-8.951,0-16.932-4.885-22.139-12.513c-0.643,0.068-1.289,0.108-1.945,0.108c-11.81,0-21.383-11.23-21.383-25.084
		S160.885,139.074,172.694,139.074z"/>
	<path opacity="0.05" fill="#312783" d="M179.007,183.246c12.885,19.186,37.479,3.343,37.479,3.343
		c17.123,17.493,43.467,0.397,43.467,0.397c31.883,22.925,56.379-14.961,56.379-14.961c0.016,0.403,0.031,0.807,0.031,1.214
		c0,17.594-15.08,31.854-33.682,31.854c-9.818,0-18.654-3.976-24.811-10.316c-5.625,3.985-12.609,6.345-20.176,6.345
		c-8.473,0-16.209-2.965-22.129-7.85c-5.008,5.209-11.582,8.377-18.787,8.377c-8.951,0-16.932-4.885-22.139-12.513
		c-0.643,0.068-1.289,0.108-1.945,0.108c-11.81,0-21.383-11.23-21.383-25.084c0-1.861,0.178-3.671,0.506-5.417
		C155.646,183.644,179.007,183.246,179.007,183.246z"/>
	<path opacity="0.3" fill="#FFFFFF" d="M151.893,156.014c2.883-9.854,10.845-16.939,20.222-16.939c2.725,0,5.33,0.604,7.725,1.695
		c2.92-2.429,6.244-4.224,9.832-5.219c2.916-9.786,10.85-16.809,20.186-16.809c0.127,0,0.252,0.009,0.379,0.011
		c6.947-7.31,16.424-11.818,26.879-11.818c8.441,0,16.244,2.944,22.596,7.923c2.621-0.681,5.367-1.045,8.193-1.045
		c11.137,0,20.994,5.609,27.068,14.228c2.025-0.577,4.156-0.891,6.357-0.891c13.26,0,24.008,11.165,24.008,24.938
		c0,8.15-3.766,15.387-9.586,19.937c0,0,12.631-32.881-23.209-41.128c0,0-23.518-20.412-33.17-9.365c0,0-25.338-18.752-44.475,3.494
		c0,0-15.109,1.559-21.152,18.058c0,0-6.043,0.48-12.088,5.132C181.657,148.216,160.402,144.051,151.893,156.014z"/>
</g>
</svg>
