<?xml version="1.0" encoding="utf-8"?>
<!-- Generator: Adobe Illustrator 16.0.0, SVG Export Plug-In . SVG Version: 6.00 Build 0)  -->
<!DOCTYPE svg PUBLIC "-//W3C//DTD SVG 1.1//EN" "http://www.w3.org/Graphics/SVG/1.1/DTD/svg11.dtd">
<svg version="1.1" id="Layer_1" xmlns="http://www.w3.org/2000/svg" xmlns:xlink="http://www.w3.org/1999/xlink" x="0px" y="0px"
	 width="267.968px" height="4.461px" viewBox="0 0 267.968 4.461" enable-background="new 0 0 267.968 4.461" xml:space="preserve">
<rect y="2.037" fill="#F6F6F6" width="267.968" height="2.424"/>
<path fill="#F6F6F6" d="M0,2.037c0,0,5.659-4.432,12.159,0"/>
<path fill="#F6F6F6" d="M12.159,2.037c0,0,5.659-4.432,12.159,0"/>
<path fill="#F6F6F6" d="M24.318,2.037c0,0,5.659-4.432,12.159,0"/>
<path fill="#F6F6F6" d="M36.478,2.037c0,0,5.659-4.432,12.159,0"/>
<path fill="#F6F6F6" d="M48.637,2.037c0,0,5.659-4.432,12.159,0"/>
<path fill="#F6F6F6" d="M60.796,2.037c0,0,5.659-4.432,12.159,0"/>
<path fill="#F6F6F6" d="M72.955,2.037c0,0,5.659-4.432,12.159,0"/>
<path fill="#F6F6F6" d="M85.114,2.037c0,0,5.659-4.432,12.159,0"/>
<path fill="#F6F6F6" d="M97.273,2.037c0,0,5.659-4.432,12.159,0"/>
<path fill="#F6F6F6" d="M109.433,2.037c0,0,5.659-4.432,12.159,0"/>
<path fill="#F6F6F6" d="M121.592,2.037c0,0,5.659-4.432,12.159,0"/>
<path fill="#F6F6F6" d="M133.751,2.037c0,0,5.659-4.432,12.159,0"/>
<path fill="#F6F6F6" d="M145.91,2.037c0,0,5.659-4.432,12.159,0"/>
<path fill="#F6F6F6" d="M158.069,2.037c0,0,5.659-4.432,12.159,0"/>
<path fill="#F6F6F6" d="M170.694,2.037c0,0,5.659-4.432,12.159,0"/>
<path fill="#F6F6F6" d="M182.854,2.037c0,0,5.659-4.432,12.159,0"/>
<path fill="#F6F6F6" d="M195.013,2.037c0,0,5.659-4.432,12.159,0"/>
<path fill="#F6F6F6" d="M207.172,2.037c0,0,5.659-4.432,12.159,0"/>
<path fill="#F6F6F6" d="M219.331,2.104c0,0,5.659-4.733,12.159,0"/>
<path fill="#F6F6F6" d="M231.49,2.104c0,0,5.659-4.733,12.159,0"/>
<path fill="#F6F6F6" d="M243.649,2.104c0,0,5.659-4.733,12.159,0"/>
<path fill="#F6F6F6" d="M255.809,2.104c0,0,5.659-4.733,12.159,0"/>
</svg>
