<?xml version="1.0" encoding="utf-8"?>
<!-- Generator: Adobe Illustrator 16.0.0, SVG Export Plug-In . SVG Version: 6.00 Build 0)  -->
<!DOCTYPE svg PUBLIC "-//W3C//DTD SVG 1.1//EN" "http://www.w3.org/Graphics/SVG/1.1/DTD/svg11.dtd">
<svg version="1.1" xmlns="http://www.w3.org/2000/svg" xmlns:xlink="http://www.w3.org/1999/xlink" x="0px" y="0px"
	 width="372.384px" height="258.265px" viewBox="0 0 372.384 258.265" enable-background="new 0 0 372.384 258.265"
	 xml:space="preserve">
<g id="Layer_2">
	<polygon fill="#F9B233" points="268.639,81.404 260.76,104.175 268.639,127.547 245.002,148.221 256.82,127.247 250.979,104.476 	
		"/>
	<polygon fill="#F9B233" points="172.248,167.811 181.243,198.638 172.248,230.277 199.235,258.265 185.742,229.872 
		192.411,199.045 	"/>
</g>
<g id="Layer_1">
	<path fill="#C6C6C6" d="M264.566,149.957c-5.893-12.134-17.801-20.313-31.359-20.016c-0.766,0.017-1.521,0.07-2.273,0.14
		c-8.299-14.299-23.332-23.706-40.309-23.333c-19.168,0.419-35.323,13.177-41.865,30.959c-1.159-0.102-2.333-0.141-3.52-0.114
		c-14.77,0.323-27.145,10.605-31.737,24.771c-0.048,0-0.096-0.002-0.145-0.001c-13.228,0.289-23.707,11.607-23.408,25.279
		c0.3,13.672,11.265,24.521,24.493,24.232c5.369-0.118,10.284-2.054,14.211-5.225c5.335,3.385,11.575,5.273,18.211,5.128
		c6.744-0.147,12.984-2.379,18.218-6.101c6.45,7.146,15.524,11.512,25.491,11.293c11.812-0.258,22.091-6.889,28.085-16.778
		c4.86,2.628,10.364,4.063,16.173,3.936c7.688-0.168,14.727-3.037,20.359-7.744c2.996,1.433,6.33,2.2,9.83,2.124
		c12.604-0.276,22.582-11.368,22.289-24.776C287.023,160.54,276.898,150.031,264.566,149.957z"/>
	<path opacity="0.05" fill="#312783" d="M287.31,173.691c-0.131-6.05-2.338-11.532-5.873-15.706
		c-1.596,31.042-25.676,29.432-25.676,29.432c-13.182,14.564-40.057,4.331-40.057,4.331c-30.057,23.896-50.855-2.771-50.855-2.771
		c-18.639,9.307-36.361-1.555-36.361-1.555c-28.212,7.1-34.401-14.28-34.402-14.283c-2.71,4.113-4.254,9.105-4.137,14.463
		c0.3,13.672,11.265,24.521,24.493,24.232c5.369-0.118,10.284-2.054,14.211-5.225c5.335,3.385,11.575,5.273,18.211,5.128
		c6.744-0.147,12.984-2.379,18.218-6.101c6.45,7.146,15.524,11.512,25.491,11.293c11.812-0.258,22.091-6.889,28.085-16.778
		c4.86,2.628,10.364,4.063,16.173,3.936c7.688-0.168,14.727-3.037,20.359-7.744c2.996,1.433,6.33,2.2,9.83,2.124
		C277.625,198.191,287.603,187.099,287.31,173.691z"/>
	<path opacity="0.3" fill="#F6F6F6" d="M281.117,158.138c-4.17-4.895-10.176-7.973-16.826-8.012
		c-5.891-12.135-17.801-20.313-31.357-20.016c-0.766,0.016-1.523,0.07-2.275,0.139c-8.298-14.299-23.33-23.705-40.309-23.332
		c-19.167,0.418-35.322,13.176-41.864,30.959c-1.159-0.102-2.333-0.141-3.52-0.115c-14.77,0.324-27.145,10.605-31.737,24.771
		c-0.048,0-0.096-0.002-0.145-0.002c-8.001,0.176-14.991,4.389-19.205,10.715c0.683-0.641,8.582-7.729,21.608-6.041
		c0,0,12.387-34.125,36.818-22.361c0,0,27.158-62.369,77.214-9.576c0,0,21.436-3.271,33.576,19.607
		C263.095,154.875,265.925,152.798,281.117,158.138z"/>
	<path fill="#9D9D9C" d="M344.082,38.29c-3.607,0-7.054,0.72-10.227,2.02c-3.865-2.894-8.265-5.032-13.014-6.217
		c-3.859-11.659-14.361-20.025-26.719-20.025c-0.169,0-0.335,0.01-0.503,0.013C284.423,5.372,271.879,0,258.041,0
		c-11.175,0-21.504,3.507-29.911,9.439c-3.471-0.811-7.104-1.245-10.846-1.245c-14.741,0-27.789,6.683-35.83,16.95
		c-2.682-0.688-5.501-1.062-8.417-1.062c-17.551,0-31.78,13.301-31.78,29.709c0,9.71,4.984,18.332,12.69,23.752
		c-0.021,0.48-0.043,0.961-0.043,1.446c0,20.961,19.962,37.95,44.585,37.95c12.998,0,24.694-4.737,32.844-12.29
		c7.444,4.747,16.689,7.56,26.707,7.56c11.216,0,21.456-3.533,29.292-9.353c6.63,6.207,15.331,9.98,24.867,9.98
		c11.85,0,22.414-5.82,29.308-14.907c0.849,0.081,1.706,0.129,2.574,0.129c15.631,0,28.303-13.379,28.303-29.885
		S359.712,38.29,344.082,38.29z"/>
	<path opacity="0.05" fill="#312783" d="M335.726,90.914c-17.056,22.857-49.611,3.982-49.611,3.982
		c-22.667,20.84-57.538,0.473-57.538,0.473c-42.205,27.313-74.629-17.824-74.629-17.824c-0.021,0.48-0.043,0.961-0.043,1.446
		c0,20.961,19.962,37.95,44.585,37.95c12.998,0,24.694-4.737,32.844-12.29c7.444,4.747,16.689,7.56,26.707,7.56
		c11.216,0,21.456-3.533,29.292-9.353c6.63,6.207,15.331,9.98,24.867,9.98c11.85,0,22.414-5.82,29.308-14.907
		c0.849,0.081,1.706,0.129,2.574,0.129c15.631,0,28.303-13.379,28.303-29.885c0-2.217-0.235-4.374-0.669-6.453
		C366.649,91.389,335.726,90.914,335.726,90.914z"/>
	<path opacity="0.3" fill="#FFFFFF" d="M371.617,58.471C367.8,46.73,357.261,38.29,344.849,38.29c-3.607,0-7.054,0.72-10.227,2.02
		c-3.865-2.894-8.265-5.032-13.014-6.218c-3.859-11.658-14.361-20.025-26.719-20.025c-0.169,0-0.335,0.011-0.503,0.014
		C285.191,5.371,272.647,0,258.808,0c-11.175,0-21.504,3.508-29.911,9.439c-3.471-0.811-7.104-1.245-10.846-1.245
		c-14.741,0-27.789,6.683-35.83,16.95c-2.682-0.688-5.501-1.062-8.417-1.062c-17.551,0-31.78,13.302-31.78,29.71
		c0,9.71,4.984,18.331,12.69,23.752c0,0-16.722-39.174,30.723-48.998c0,0,31.13-24.318,43.906-11.157
		c0,0,33.539-22.341,58.872,4.163c0,0,20,1.857,28,21.514c0,0,8,0.572,16,6.114C332.216,49.181,360.352,44.219,371.617,58.471z"/>
	<path fill="#B2B2B2" d="M24.667,62.508c6.387-14.309,19.3-23.954,33.998-23.604c0.83,0.02,1.652,0.083,2.467,0.165
		c8.998-16.862,25.295-27.956,43.701-27.516c20.782,0.494,38.296,15.539,45.389,36.509c1.256-0.12,2.53-0.166,3.816-0.135
		c16.013,0.381,29.43,12.507,34.41,29.211c0.052,0,0.104-0.002,0.156-0.001c14.341,0.341,25.702,13.688,25.378,29.812
		s-12.213,28.917-26.554,28.577c-5.821-0.139-11.15-2.422-15.407-6.161c-5.784,3.992-12.549,6.219-19.745,6.047
		c-7.312-0.174-14.078-2.806-19.752-7.194c-6.993,8.426-16.831,13.575-27.637,13.317c-12.805-0.304-23.951-8.124-30.45-19.786
		c-5.268,3.099-11.235,4.791-17.533,4.641c-8.337-0.198-15.966-3.582-22.073-9.133c-3.249,1.689-6.863,2.595-10.658,2.505
		c-13.667-0.326-24.485-13.406-24.167-29.218C0.32,74.988,11.297,62.595,24.667,62.508z"/>
	<path opacity="0.05" fill="#312783" d="M0.007,90.498c0.144-7.135,2.535-13.6,6.368-18.522
		c1.729,36.607,27.839,34.708,27.839,34.708c14.292,17.176,43.429,5.107,43.429,5.107c32.586,28.18,55.136-3.267,55.136-3.267
		c20.208,10.975,39.421-1.833,39.421-1.833c30.588,8.373,37.298-16.84,37.298-16.844c2.938,4.851,4.611,10.738,4.484,17.056
		c-0.324,16.123-12.213,28.918-26.554,28.577c-5.821-0.14-11.15-2.422-15.407-6.162c-5.784,3.992-12.549,6.219-19.745,6.047
		c-7.312-0.174-14.078-2.805-19.752-7.194c-6.993,8.427-16.831,13.576-27.637,13.318c-12.805-0.304-23.951-8.124-30.45-19.787
		c-5.268,3.099-11.235,4.791-17.533,4.641c-8.337-0.198-15.966-3.582-22.073-9.132c-3.249,1.689-6.863,2.595-10.658,2.505
		C10.508,119.39-0.311,106.31,0.007,90.498z"/>
	<path opacity="0.3" fill="#F6F6F6" d="M6.721,72.156c4.521-5.772,11.033-9.402,18.243-9.448
		c6.389-14.31,19.299-23.954,33.999-23.604c0.831,0.019,1.65,0.083,2.465,0.164c8.997-16.862,25.295-27.955,43.704-27.515
		c20.78,0.493,38.295,15.538,45.388,36.51c1.256-0.12,2.529-0.166,3.816-0.136c16.013,0.382,29.43,12.507,34.409,29.213
		c0.053,0,0.104-0.002,0.156-0.002c8.675,0.207,16.254,5.175,20.821,12.636c-0.74-0.755-9.304-9.114-23.427-7.124
		c0,0-13.429-40.243-39.917-26.37c0,0-29.444-73.55-83.716-11.293c0,0-23.24-3.858-36.403,23.123
		C26.26,68.308,23.192,65.859,6.721,72.156z"/>
</g>
</svg>
