<?xml version="1.0" encoding="utf-8"?>
<!-- Generator: Adobe Illustrator 16.0.0, SVG Export Plug-In . SVG Version: 6.00 Build 0)  -->
<!DOCTYPE svg PUBLIC "-//W3C//DTD SVG 1.1//EN" "http://www.w3.org/Graphics/SVG/1.1/DTD/svg11.dtd">
<svg version="1.1" id="Layer_1" xmlns="http://www.w3.org/2000/svg" xmlns:xlink="http://www.w3.org/1999/xlink" x="0px" y="0px"
	 width="390.541px" height="390.541px" viewBox="0 0 390.541 390.541" enable-background="new 0 0 390.541 390.541"
	 xml:space="preserve">
<linearGradient id="SVGID_1_" gradientUnits="userSpaceOnUse" x1="195.9609" y1="124.0913" x2="195.9609" y2="-0.4546">
	<stop  offset="0" style="stop-color:#FFFFFF;stop-opacity:0"/>
	<stop  offset="0.0523" style="stop-color:#FEEDAE;stop-opacity:0.1856"/>
	<stop  offset="0.1046" style="stop-color:#FEDD64;stop-opacity:0.3712"/>
	<stop  offset="0.1476" style="stop-color:#FDD22E;stop-opacity:0.5241"/>
	<stop  offset="0.1797" style="stop-color:#FDCB0D;stop-opacity:0.6379"/>
	<stop  offset="0.1972" style="stop-color:#FDC800;stop-opacity:0.7"/>
	<stop  offset="0.6798" style="stop-color:#FDC801"/>
	<stop  offset="0.7495" style="stop-color:#F8B116"/>
	<stop  offset="0.8296" style="stop-color:#F49E27"/>
	<stop  offset="0.9121" style="stop-color:#F29331"/>
	<stop  offset="1" style="stop-color:#F18F34"/>
</linearGradient>
<path fill="url(#SVGID_1_)" d="M205.648,124.546c0.385-9.678-5.405-20.078-5.405-30.91c0-21.966,14.138-42.166,12.694-58.137
	C210.98,13.872,198.956,0,195.563,0c-3.385,0,2.596,13.801,0.641,35.333c-1.455,15.997-17.323,36.26-17.323,58.303
	c0,10.832,6.21,21.232,6.597,30.91H205.648z"/>
<linearGradient id="SVGID_2_" gradientUnits="userSpaceOnUse" x1="192.3003" y1="123.1953" x2="192.3003" y2="-1.3516" gradientTransform="matrix(0.9511 -0.309 0.309 0.9511 -47.0276 69.6208)">
	<stop  offset="0" style="stop-color:#FFFFFF;stop-opacity:0"/>
	<stop  offset="0.0523" style="stop-color:#FEEDAE;stop-opacity:0.1856"/>
	<stop  offset="0.1046" style="stop-color:#FEDD64;stop-opacity:0.3712"/>
	<stop  offset="0.1476" style="stop-color:#FDD22E;stop-opacity:0.5241"/>
	<stop  offset="0.1797" style="stop-color:#FDCB0D;stop-opacity:0.6379"/>
	<stop  offset="0.1972" style="stop-color:#FDC800;stop-opacity:0.7"/>
	<stop  offset="0.6798" style="stop-color:#FDC801"/>
	<stop  offset="0.7495" style="stop-color:#F8B116"/>
	<stop  offset="0.8296" style="stop-color:#F49E27"/>
	<stop  offset="0.9121" style="stop-color:#F29331"/>
	<stop  offset="1" style="stop-color:#F18F34"/>
</linearGradient>
<path fill="url(#SVGID_2_)" d="M183.284,124.801c-2.624-9.323-11.344-17.425-14.691-27.727c-6.788-20.891,0.416-44.472-5.894-59.214
	c-8.544-19.965-24.266-29.442-27.493-28.394c-3.22,1.046,6.734,12.323,11.528,33.406c3.56,15.663-5.271,39.839,1.541,60.803
	c3.348,10.302,12.468,18.273,15.826,27.358L183.284,124.801z"/>
<linearGradient id="SVGID_3_" gradientUnits="userSpaceOnUse" x1="189.0947" y1="121.2124" x2="189.0947" y2="-3.3345" gradientTransform="matrix(0.809 -0.5878 0.5878 0.809 -70.2388 150.3652)">
	<stop  offset="0" style="stop-color:#FFFFFF;stop-opacity:0"/>
	<stop  offset="0.0523" style="stop-color:#FEEDAE;stop-opacity:0.1856"/>
	<stop  offset="0.1046" style="stop-color:#FEDD64;stop-opacity:0.3712"/>
	<stop  offset="0.1476" style="stop-color:#FDD22E;stop-opacity:0.5241"/>
	<stop  offset="0.1797" style="stop-color:#FDCB0D;stop-opacity:0.6379"/>
	<stop  offset="0.1972" style="stop-color:#FDC800;stop-opacity:0.7"/>
	<stop  offset="0.6798" style="stop-color:#FDC801"/>
	<stop  offset="0.7495" style="stop-color:#F8B116"/>
	<stop  offset="0.8296" style="stop-color:#F49E27"/>
	<stop  offset="0.9121" style="stop-color:#F29331"/>
	<stop  offset="1" style="stop-color:#F18F34"/>
</linearGradient>
<path fill="url(#SVGID_3_)" d="M162.095,131.954c-5.377-8.057-16.173-13.067-22.541-21.83
	c-12.911-17.771-13.347-42.423-23.903-54.495c-14.295-16.347-32.176-20.502-34.921-18.507c-2.739,1.989,10.213,9.639,21.286,28.208
	c8.227,13.796,7.299,39.518,20.256,57.35c6.367,8.764,17.504,13.527,23.505,21.129L162.095,131.954z"/>
<linearGradient id="SVGID_4_" gradientUnits="userSpaceOnUse" x1="186.6621" y1="118.3364" x2="186.6621" y2="-6.2095" gradientTransform="matrix(0.5878 -0.809 0.809 0.5878 -67.3624 234.3317)">
	<stop  offset="0" style="stop-color:#FFFFFF;stop-opacity:0"/>
	<stop  offset="0.0523" style="stop-color:#FEEDAE;stop-opacity:0.1856"/>
	<stop  offset="0.1046" style="stop-color:#FEDD64;stop-opacity:0.3712"/>
	<stop  offset="0.1476" style="stop-color:#FDD22E;stop-opacity:0.5241"/>
	<stop  offset="0.1797" style="stop-color:#FDCB0D;stop-opacity:0.6379"/>
	<stop  offset="0.1972" style="stop-color:#FDC800;stop-opacity:0.7"/>
	<stop  offset="0.6798" style="stop-color:#FDC801"/>
	<stop  offset="0.7495" style="stop-color:#F8B116"/>
	<stop  offset="0.8296" style="stop-color:#F49E27"/>
	<stop  offset="0.9121" style="stop-color:#F29331"/>
	<stop  offset="1" style="stop-color:#F18F34"/>
</linearGradient>
<path fill="url(#SVGID_4_)" d="M144.152,145.305c-7.604-6.001-19.419-7.43-28.184-13.796
	c-17.771-12.911-25.803-36.223-39.573-44.441c-18.646-11.129-36.937-9.556-38.931-6.811c-1.99,2.739,12.691,6.011,28.961,20.25
	c12.088,10.579,19.153,35.328,36.986,48.283c8.764,6.368,20.828,7.456,28.884,12.832L144.152,145.305z"/>
<linearGradient id="SVGID_5_" gradientUnits="userSpaceOnUse" x1="185.2358" y1="114.8481" x2="185.2358" y2="-9.6968" gradientTransform="matrix(0.309 -0.9511 0.9511 0.309 -38.6798 313.2993)">
	<stop  offset="0" style="stop-color:#FFFFFF;stop-opacity:0"/>
	<stop  offset="0.0523" style="stop-color:#FEEDAE;stop-opacity:0.1856"/>
	<stop  offset="0.1046" style="stop-color:#FEDD64;stop-opacity:0.3712"/>
	<stop  offset="0.1476" style="stop-color:#FDD22E;stop-opacity:0.5241"/>
	<stop  offset="0.1797" style="stop-color:#FDCB0D;stop-opacity:0.6379"/>
	<stop  offset="0.1972" style="stop-color:#FDC800;stop-opacity:0.7"/>
	<stop  offset="0.6798" style="stop-color:#FDC801"/>
	<stop  offset="0.7495" style="stop-color:#F8B116"/>
	<stop  offset="0.8296" style="stop-color:#F49E27"/>
	<stop  offset="0.9121" style="stop-color:#F29331"/>
	<stop  offset="1" style="stop-color:#F18F34"/>
</linearGradient>
<path fill="url(#SVGID_5_)" d="M131.214,163.547c-9.086-3.358-20.765-1.065-31.067-4.412c-20.891-6.787-35.733-26.476-51.369-30.037
	c-21.174-4.823-38.082,2.326-39.13,5.553c-1.047,3.22,13.928,1.795,33.801,10.31c14.766,6.326,29.133,27.681,50.097,34.491
	c10.303,3.348,22.113,0.655,31.436,3.278L131.214,163.547z"/>
<linearGradient id="SVGID_6_" gradientUnits="userSpaceOnUse" x1="184.9595" y1="111.0908" x2="184.9595" y2="-13.4551" gradientTransform="matrix(-2.980232e-008 -1 1 -2.980232e-008 13.001 379.5396)">
	<stop  offset="0" style="stop-color:#FFFFFF;stop-opacity:0"/>
	<stop  offset="0.0523" style="stop-color:#FEEDAE;stop-opacity:0.1856"/>
	<stop  offset="0.1046" style="stop-color:#FEDD64;stop-opacity:0.3712"/>
	<stop  offset="0.1476" style="stop-color:#FDD22E;stop-opacity:0.5241"/>
	<stop  offset="0.1797" style="stop-color:#FDCB0D;stop-opacity:0.6379"/>
	<stop  offset="0.1972" style="stop-color:#FDC800;stop-opacity:0.7"/>
	<stop  offset="0.6798" style="stop-color:#FDC801"/>
	<stop  offset="0.7495" style="stop-color:#F8B116"/>
	<stop  offset="0.8296" style="stop-color:#F49E27"/>
	<stop  offset="0.9121" style="stop-color:#F29331"/>
	<stop  offset="1" style="stop-color:#F18F34"/>
</linearGradient>
<path fill="url(#SVGID_6_)" d="M124.546,184.894c-9.679-0.385-20.078,5.404-30.91,5.404c-21.966,0.001-42.166-14.138-58.138-12.692
	C13.871,179.563-0.001,191.586,0,194.979c-0.001,3.386,13.801-2.597,35.332-0.64c15.998,1.454,36.261,17.324,58.304,17.322
	c10.833,0,21.233-6.21,30.91-6.596V184.894z"/>
<linearGradient id="SVGID_7_" gradientUnits="userSpaceOnUse" x1="185.8555" y1="107.4297" x2="185.8555" y2="-17.1162" gradientTransform="matrix(-0.309 -0.9511 0.9511 -0.309 82.6217 426.5671)">
	<stop  offset="0" style="stop-color:#FFFFFF;stop-opacity:0"/>
	<stop  offset="0.0523" style="stop-color:#FEEDAE;stop-opacity:0.1856"/>
	<stop  offset="0.1046" style="stop-color:#FEDD64;stop-opacity:0.3712"/>
	<stop  offset="0.1476" style="stop-color:#FDD22E;stop-opacity:0.5241"/>
	<stop  offset="0.1797" style="stop-color:#FDCB0D;stop-opacity:0.6379"/>
	<stop  offset="0.1972" style="stop-color:#FDC800;stop-opacity:0.7"/>
	<stop  offset="0.6798" style="stop-color:#FDC801"/>
	<stop  offset="0.7495" style="stop-color:#F8B116"/>
	<stop  offset="0.8296" style="stop-color:#F49E27"/>
	<stop  offset="0.9121" style="stop-color:#F29331"/>
	<stop  offset="1" style="stop-color:#F18F34"/>
</linearGradient>
<path fill="url(#SVGID_7_)" d="M124.801,207.257c-9.324,2.625-17.426,11.344-27.728,14.691c-20.891,6.789-44.472-0.416-59.214,5.895
	c-19.964,8.544-29.441,24.266-28.393,27.492c1.046,3.221,12.323-6.734,33.405-11.526c15.664-3.562,39.839,5.271,60.803-1.543
	c10.303-3.348,18.275-12.468,27.358-15.825L124.801,207.257z"/>
<linearGradient id="SVGID_8_" gradientUnits="userSpaceOnUse" x1="187.8384" y1="104.2256" x2="187.8384" y2="-20.3203" gradientTransform="matrix(-0.5878 -0.809 0.809 -0.5878 163.3676 449.7784)">
	<stop  offset="0" style="stop-color:#FFFFFF;stop-opacity:0"/>
	<stop  offset="0.0523" style="stop-color:#FEEDAE;stop-opacity:0.1856"/>
	<stop  offset="0.1046" style="stop-color:#FEDD64;stop-opacity:0.3712"/>
	<stop  offset="0.1476" style="stop-color:#FDD22E;stop-opacity:0.5241"/>
	<stop  offset="0.1797" style="stop-color:#FDCB0D;stop-opacity:0.6379"/>
	<stop  offset="0.1972" style="stop-color:#FDC800;stop-opacity:0.7"/>
	<stop  offset="0.6798" style="stop-color:#FDC801"/>
	<stop  offset="0.7495" style="stop-color:#F8B116"/>
	<stop  offset="0.8296" style="stop-color:#F49E27"/>
	<stop  offset="0.9121" style="stop-color:#F29331"/>
	<stop  offset="1" style="stop-color:#F18F34"/>
</linearGradient>
<path fill="url(#SVGID_8_)" d="M131.953,228.446c-8.057,5.379-13.066,16.174-21.83,22.541
	c-17.771,12.912-42.424,13.347-54.494,23.904c-16.347,14.295-20.502,32.176-18.508,34.92c1.99,2.74,9.64-10.213,28.209-21.285
	c13.797-8.228,39.518-7.298,57.35-20.256c8.765-6.368,13.528-17.506,21.129-23.505L131.953,228.446z"/>
<linearGradient id="SVGID_9_" gradientUnits="userSpaceOnUse" x1="190.7153" y1="101.7935" x2="190.7153" y2="-22.7524" gradientTransform="matrix(-0.809 -0.5878 0.5878 -0.809 247.3337 446.903)">
	<stop  offset="0" style="stop-color:#FFFFFF;stop-opacity:0"/>
	<stop  offset="0.0523" style="stop-color:#FEEDAE;stop-opacity:0.1856"/>
	<stop  offset="0.1046" style="stop-color:#FEDD64;stop-opacity:0.3712"/>
	<stop  offset="0.1476" style="stop-color:#FDD22E;stop-opacity:0.5241"/>
	<stop  offset="0.1797" style="stop-color:#FDCB0D;stop-opacity:0.6379"/>
	<stop  offset="0.1972" style="stop-color:#FDC800;stop-opacity:0.7"/>
	<stop  offset="0.6798" style="stop-color:#FDC801"/>
	<stop  offset="0.7495" style="stop-color:#F8B116"/>
	<stop  offset="0.8296" style="stop-color:#F49E27"/>
	<stop  offset="0.9121" style="stop-color:#F29331"/>
	<stop  offset="1" style="stop-color:#F18F34"/>
</linearGradient>
<path fill="url(#SVGID_9_)" d="M145.304,246.389c-6,7.605-7.429,19.42-13.796,28.184c-12.911,17.771-36.224,25.804-44.44,39.574
	c-11.129,18.646-9.556,36.937-6.811,38.93c2.739,1.991,6.012-12.691,20.251-28.96c10.578-12.089,35.328-19.152,48.283-36.986
	c6.367-8.766,7.456-20.83,12.831-28.884L145.304,246.389z"/>
<linearGradient id="SVGID_10_" gradientUnits="userSpaceOnUse" x1="194.2017" y1="100.3652" x2="194.2017" y2="-24.1807" gradientTransform="matrix(-0.9511 -0.309 0.309 -0.9511 326.3018 418.2174)">
	<stop  offset="0" style="stop-color:#FFFFFF;stop-opacity:0"/>
	<stop  offset="0.0523" style="stop-color:#FEEDAE;stop-opacity:0.1856"/>
	<stop  offset="0.1046" style="stop-color:#FEDD64;stop-opacity:0.3712"/>
	<stop  offset="0.1476" style="stop-color:#FDD22E;stop-opacity:0.5241"/>
	<stop  offset="0.1797" style="stop-color:#FDCB0D;stop-opacity:0.6379"/>
	<stop  offset="0.1972" style="stop-color:#FDC800;stop-opacity:0.7"/>
	<stop  offset="0.6798" style="stop-color:#FDC801"/>
	<stop  offset="0.7495" style="stop-color:#F8B116"/>
	<stop  offset="0.8296" style="stop-color:#F49E27"/>
	<stop  offset="0.9121" style="stop-color:#F29331"/>
	<stop  offset="1" style="stop-color:#F18F34"/>
</linearGradient>
<path fill="url(#SVGID_10_)" d="M163.546,259.327c-3.356,9.088-1.064,20.766-4.411,31.067c-6.788,20.892-26.478,35.735-30.037,51.37
	c-4.822,21.174,2.326,38.082,5.553,39.129c3.221,1.048,1.796-13.928,10.311-33.801c6.325-14.766,27.682-29.131,34.49-50.096
	c3.348-10.305,0.655-22.114,3.278-31.436L163.546,259.327z"/>
<linearGradient id="SVGID_11_" gradientUnits="userSpaceOnUse" x1="197.9614" y1="100.0898" x2="197.9614" y2="-24.4561" gradientTransform="matrix(-1 0 0 -1 392.543 366.5391)">
	<stop  offset="0" style="stop-color:#FFFFFF;stop-opacity:0"/>
	<stop  offset="0.0523" style="stop-color:#FEEDAE;stop-opacity:0.1856"/>
	<stop  offset="0.1046" style="stop-color:#FEDD64;stop-opacity:0.3712"/>
	<stop  offset="0.1476" style="stop-color:#FDD22E;stop-opacity:0.5241"/>
	<stop  offset="0.1797" style="stop-color:#FDCB0D;stop-opacity:0.6379"/>
	<stop  offset="0.1972" style="stop-color:#FDC800;stop-opacity:0.7"/>
	<stop  offset="0.6798" style="stop-color:#FDC801"/>
	<stop  offset="0.7495" style="stop-color:#F8B116"/>
	<stop  offset="0.8296" style="stop-color:#F49E27"/>
	<stop  offset="0.9121" style="stop-color:#F29331"/>
	<stop  offset="1" style="stop-color:#F18F34"/>
</linearGradient>
<path fill="url(#SVGID_11_)" d="M184.893,265.995c-0.383,9.681,5.405,20.078,5.405,30.91c0.001,21.967-14.139,42.168-12.692,58.138
	c1.957,21.628,13.98,35.5,17.373,35.498c3.387,0.001-2.596-13.801-0.64-35.333c1.452-15.997,17.325-36.259,17.321-58.301
	c0-10.836-6.209-21.235-6.596-30.91L184.893,265.995z"/>
<linearGradient id="SVGID_12_" gradientUnits="userSpaceOnUse" x1="201.6206" y1="100.9854" x2="201.6206" y2="-23.5615" gradientTransform="matrix(-0.9511 0.309 -0.309 -0.9511 439.5686 296.9173)">
	<stop  offset="0" style="stop-color:#FFFFFF;stop-opacity:0"/>
	<stop  offset="0.0523" style="stop-color:#FEEDAE;stop-opacity:0.1856"/>
	<stop  offset="0.1046" style="stop-color:#FEDD64;stop-opacity:0.3712"/>
	<stop  offset="0.1476" style="stop-color:#FDD22E;stop-opacity:0.5241"/>
	<stop  offset="0.1797" style="stop-color:#FDCB0D;stop-opacity:0.6379"/>
	<stop  offset="0.1972" style="stop-color:#FDC800;stop-opacity:0.7"/>
	<stop  offset="0.6798" style="stop-color:#FDC801"/>
	<stop  offset="0.7495" style="stop-color:#F8B116"/>
	<stop  offset="0.8296" style="stop-color:#F49E27"/>
	<stop  offset="0.9121" style="stop-color:#F29331"/>
	<stop  offset="1" style="stop-color:#F18F34"/>
</linearGradient>
<path fill="url(#SVGID_12_)" d="M207.255,265.74c2.627,9.325,11.346,17.426,14.693,27.728c6.789,20.892-0.416,44.473,5.893,59.214
	c8.545,19.965,24.268,29.442,27.494,28.393c3.221-1.046-6.734-12.323-11.527-33.406c-3.563-15.663,5.271-39.838-1.543-60.8
	c-3.348-10.306-12.469-18.277-15.824-27.359L207.255,265.74z"/>
<linearGradient id="SVGID_13_" gradientUnits="userSpaceOnUse" x1="204.8188" y1="102.9668" x2="204.8188" y2="-21.5791" gradientTransform="matrix(-0.809 0.5878 -0.5878 -0.809 462.7779 216.1729)">
	<stop  offset="0" style="stop-color:#FFFFFF;stop-opacity:0"/>
	<stop  offset="0.0523" style="stop-color:#FEEDAE;stop-opacity:0.0796"/>
	<stop  offset="0.1046" style="stop-color:#FEDD64;stop-opacity:0.1591"/>
	<stop  offset="0.1476" style="stop-color:#FDD22E;stop-opacity:0.2246"/>
	<stop  offset="0.1797" style="stop-color:#FDCB0D;stop-opacity:0.2734"/>
	<stop  offset="0.1972" style="stop-color:#FDC800;stop-opacity:0.3"/>
	<stop  offset="0.6798" style="stop-color:#FDC801"/>
	<stop  offset="0.7495" style="stop-color:#F8B116"/>
	<stop  offset="0.8296" style="stop-color:#F49E27"/>
	<stop  offset="0.9121" style="stop-color:#F29331"/>
	<stop  offset="1" style="stop-color:#F18F34"/>
</linearGradient>
<path fill="url(#SVGID_13_)" d="M228.445,258.588c5.381,8.057,16.176,13.067,22.543,21.83
	c12.912,17.771,13.346,42.425,23.902,54.494c14.297,16.348,32.178,20.503,34.922,18.507c2.74-1.989-10.213-9.639-21.287-28.208
	c-8.229-13.796-7.295-39.518-20.254-57.349c-6.369-8.766-17.508-13.529-23.504-21.13L228.445,258.588z"/>
<linearGradient id="SVGID_14_" gradientUnits="userSpaceOnUse" x1="207.2544" y1="105.8447" x2="207.2544" y2="-18.7002" gradientTransform="matrix(-0.5878 0.809 -0.809 -0.5878 459.9005 132.2064)">
	<stop  offset="0" style="stop-color:#FFFFFF;stop-opacity:0"/>
	<stop  offset="0.0523" style="stop-color:#FEEDAE;stop-opacity:0.1856"/>
	<stop  offset="0.1046" style="stop-color:#FEDD64;stop-opacity:0.3712"/>
	<stop  offset="0.1476" style="stop-color:#FDD22E;stop-opacity:0.5241"/>
	<stop  offset="0.1797" style="stop-color:#FDCB0D;stop-opacity:0.6379"/>
	<stop  offset="0.1972" style="stop-color:#FDC800;stop-opacity:0.7"/>
	<stop  offset="0.6798" style="stop-color:#FDC801"/>
	<stop  offset="0.7495" style="stop-color:#F8B116"/>
	<stop  offset="0.8296" style="stop-color:#F49E27"/>
	<stop  offset="0.9121" style="stop-color:#F29331"/>
	<stop  offset="1" style="stop-color:#F18F34"/>
</linearGradient>
<path fill="url(#SVGID_14_)" d="M246.388,245.237c7.607,6,19.42,7.43,28.184,13.796c17.773,12.91,25.805,36.224,39.572,44.44
	c18.648,11.13,36.939,9.556,38.932,6.81c1.992-2.738-12.689-6.011-28.961-20.249c-12.088-10.578-19.15-35.329-36.984-48.283
	c-8.768-6.368-20.832-7.457-28.885-12.832L246.388,245.237z"/>
<linearGradient id="SVGID_15_" gradientUnits="userSpaceOnUse" x1="208.6812" y1="109.332" x2="208.6812" y2="-15.2129" gradientTransform="matrix(-0.309 0.9511 -0.9511 -0.309 431.2188 53.2392)">
	<stop  offset="0" style="stop-color:#FFFFFF;stop-opacity:0"/>
	<stop  offset="0.0523" style="stop-color:#FEEDAE;stop-opacity:0.1856"/>
	<stop  offset="0.1046" style="stop-color:#FEDD64;stop-opacity:0.3712"/>
	<stop  offset="0.1476" style="stop-color:#FDD22E;stop-opacity:0.5241"/>
	<stop  offset="0.1797" style="stop-color:#FDCB0D;stop-opacity:0.6379"/>
	<stop  offset="0.1972" style="stop-color:#FDC800;stop-opacity:0.7"/>
	<stop  offset="0.6798" style="stop-color:#FDC801"/>
	<stop  offset="0.7495" style="stop-color:#F8B116"/>
	<stop  offset="0.8296" style="stop-color:#F49E27"/>
	<stop  offset="0.9121" style="stop-color:#F29331"/>
	<stop  offset="1" style="stop-color:#F18F34"/>
</linearGradient>
<path fill="url(#SVGID_15_)" d="M259.326,226.996c9.09,3.354,20.768,1.064,31.068,4.411c20.893,6.786,35.734,26.477,51.369,30.036
	c21.176,4.823,38.084-2.326,39.129-5.554c1.049-3.22-13.926-1.795-33.799-10.309c-14.768-6.324-29.131-27.682-50.096-34.491
	c-10.307-3.347-22.117-0.654-31.436-3.278L259.326,226.996z"/>
<linearGradient id="SVGID_16_" gradientUnits="userSpaceOnUse" x1="208.9614" y1="113.0869" x2="208.9614" y2="-11.458" gradientTransform="matrix(2.980232e-008 1 -1 2.980232e-008 379.5366 -13.0005)">
	<stop  offset="0" style="stop-color:#FFFFFF;stop-opacity:0"/>
	<stop  offset="0.0523" style="stop-color:#FEEDAE;stop-opacity:0.1856"/>
	<stop  offset="0.1046" style="stop-color:#FEDD64;stop-opacity:0.3712"/>
	<stop  offset="0.1476" style="stop-color:#FDD22E;stop-opacity:0.5241"/>
	<stop  offset="0.1797" style="stop-color:#FDCB0D;stop-opacity:0.6379"/>
	<stop  offset="0.1972" style="stop-color:#FDC800;stop-opacity:0.7"/>
	<stop  offset="0.6798" style="stop-color:#FDC801"/>
	<stop  offset="0.7495" style="stop-color:#F8B116"/>
	<stop  offset="0.8296" style="stop-color:#F49E27"/>
	<stop  offset="0.9121" style="stop-color:#F29331"/>
	<stop  offset="1" style="stop-color:#F18F34"/>
</linearGradient>
<path fill="url(#SVGID_16_)" d="M265.996,205.649c9.68,0.381,20.078-5.405,30.91-5.406c21.967-0.002,42.166,14.139,58.135,12.693
	c21.631-1.957,35.502-13.981,35.5-17.374c0.002-3.386-13.799,2.597-35.332,0.641c-15.998-1.452-36.26-17.325-58.303-17.322
	c-10.834,0.001-21.236,6.212-30.908,6.596L265.996,205.649z"/>
<linearGradient id="SVGID_17_" gradientUnits="userSpaceOnUse" x1="208.064" y1="116.7466" x2="208.064" y2="-7.7998" gradientTransform="matrix(0.309 0.9511 -0.9511 0.309 309.9164 -60.0261)">
	<stop  offset="0" style="stop-color:#FFFFFF;stop-opacity:0"/>
	<stop  offset="0.0523" style="stop-color:#FEEDAE;stop-opacity:0.1856"/>
	<stop  offset="0.1046" style="stop-color:#FEDD64;stop-opacity:0.3712"/>
	<stop  offset="0.1476" style="stop-color:#FDD22E;stop-opacity:0.5241"/>
	<stop  offset="0.1797" style="stop-color:#FDCB0D;stop-opacity:0.6379"/>
	<stop  offset="0.1972" style="stop-color:#FDC800;stop-opacity:0.7"/>
	<stop  offset="0.6798" style="stop-color:#FDC801"/>
	<stop  offset="0.7495" style="stop-color:#F8B116"/>
	<stop  offset="0.8296" style="stop-color:#F49E27"/>
	<stop  offset="0.9121" style="stop-color:#F29331"/>
	<stop  offset="1" style="stop-color:#F18F34"/>
</linearGradient>
<path fill="url(#SVGID_17_)" d="M265.74,183.286c9.326-2.629,17.426-11.346,27.729-14.692c20.891-6.79,44.471,0.416,59.211-5.894
	c19.967-8.545,29.445-24.268,28.395-27.493c-1.045-3.222-12.322,6.733-33.404,11.526c-15.664,3.563-39.84-5.272-60.803,1.543
	c-10.305,3.349-18.277,12.469-27.357,15.824L265.74,183.286z"/>
<linearGradient id="SVGID_18_" gradientUnits="userSpaceOnUse" x1="206.0786" y1="119.9502" x2="206.0786" y2="-4.5962" gradientTransform="matrix(0.5878 0.809 -0.809 0.5878 229.1714 -83.2374)">
	<stop  offset="0" style="stop-color:#FFFFFF;stop-opacity:0"/>
	<stop  offset="0.0523" style="stop-color:#FEEDAE;stop-opacity:0.1856"/>
	<stop  offset="0.1046" style="stop-color:#FEDD64;stop-opacity:0.3712"/>
	<stop  offset="0.1476" style="stop-color:#FDD22E;stop-opacity:0.5241"/>
	<stop  offset="0.1797" style="stop-color:#FDCB0D;stop-opacity:0.6379"/>
	<stop  offset="0.1972" style="stop-color:#FDC800;stop-opacity:0.7"/>
	<stop  offset="0.6798" style="stop-color:#FDC801"/>
	<stop  offset="0.7495" style="stop-color:#F8B116"/>
	<stop  offset="0.8296" style="stop-color:#F49E27"/>
	<stop  offset="0.9121" style="stop-color:#F29331"/>
	<stop  offset="1" style="stop-color:#F18F34"/>
</linearGradient>
<path fill="url(#SVGID_18_)" d="M258.587,162.097c8.057-5.382,13.066-16.175,21.83-22.542
	c17.771-12.914,42.424-13.347,54.492-23.902c16.35-14.297,20.506-32.179,18.51-34.922c-1.99-2.741-9.639,10.211-28.209,21.285
	c-13.795,8.229-39.518,7.296-57.35,20.256c-8.764,6.369-13.529,17.507-21.129,23.504L258.587,162.097z"/>
<linearGradient id="SVGID_19_" gradientUnits="userSpaceOnUse" x1="203.2046" y1="122.3848" x2="203.2046" y2="-2.1602" gradientTransform="matrix(0.809 0.5878 -0.5878 0.809 145.2064 -80.361)">
	<stop  offset="0" style="stop-color:#FFFFFF;stop-opacity:0"/>
	<stop  offset="0.0523" style="stop-color:#FEEDAE;stop-opacity:0.1856"/>
	<stop  offset="0.1046" style="stop-color:#FEDD64;stop-opacity:0.3712"/>
	<stop  offset="0.1476" style="stop-color:#FDD22E;stop-opacity:0.5241"/>
	<stop  offset="0.1797" style="stop-color:#FDCB0D;stop-opacity:0.6379"/>
	<stop  offset="0.1972" style="stop-color:#FDC800;stop-opacity:0.7"/>
	<stop  offset="0.6798" style="stop-color:#FDC801"/>
	<stop  offset="0.7495" style="stop-color:#F8B116"/>
	<stop  offset="0.8296" style="stop-color:#F49E27"/>
	<stop  offset="0.9121" style="stop-color:#F29331"/>
	<stop  offset="1" style="stop-color:#F18F34"/>
</linearGradient>
<path fill="url(#SVGID_19_)" d="M245.238,144.154c5.998-7.608,7.428-19.421,13.795-28.185c12.91-17.773,36.223-25.803,44.439-39.571
	c11.131-18.649,9.557-36.94,6.811-38.933c-2.738-1.992-6.01,12.689-20.248,28.96c-10.578,12.088-35.33,19.15-48.285,36.986
	c-6.367,8.767-7.457,20.832-12.83,28.883L245.238,144.154z"/>
<linearGradient id="SVGID_20_" gradientUnits="userSpaceOnUse" x1="199.7173" y1="123.8096" x2="199.7173" y2="-0.7354" gradientTransform="matrix(0.9511 0.309 -0.309 0.9511 66.2392 -51.6783)">
	<stop  offset="0" style="stop-color:#FFFFFF;stop-opacity:0"/>
	<stop  offset="0.0523" style="stop-color:#FEEDAE;stop-opacity:0.1856"/>
	<stop  offset="0.1046" style="stop-color:#FEDD64;stop-opacity:0.3712"/>
	<stop  offset="0.1476" style="stop-color:#FDD22E;stop-opacity:0.5241"/>
	<stop  offset="0.1797" style="stop-color:#FDCB0D;stop-opacity:0.6379"/>
	<stop  offset="0.1972" style="stop-color:#FDC800;stop-opacity:0.7"/>
	<stop  offset="0.6798" style="stop-color:#FDC801"/>
	<stop  offset="0.7495" style="stop-color:#F8B116"/>
	<stop  offset="0.8296" style="stop-color:#F49E27"/>
	<stop  offset="0.9121" style="stop-color:#F29331"/>
	<stop  offset="1" style="stop-color:#F18F34"/>
</linearGradient>
<path fill="url(#SVGID_20_)" d="M226.998,131.215c3.352-9.089,1.063-20.766,4.41-31.068c6.785-20.893,26.475-35.734,30.035-51.367
	c4.824-21.176-2.326-38.086-5.553-39.132c-3.221-1.048-1.795,13.926-10.309,33.8c-6.324,14.765-27.684,29.13-34.492,50.096
	c-3.346,10.305-0.654,22.117-3.277,31.435L226.998,131.215z"/>
<circle id="Sun" fill="#FDC801" cx="195.271" cy="195.272" r="90"/>
</svg>
