<?xml version="1.0" encoding="utf-8"?>
<!-- Generator: Adobe Illustrator 16.0.0, SVG Export Plug-In . SVG Version: 6.00 Build 0)  -->
<!DOCTYPE svg PUBLIC "-//W3C//DTD SVG 1.1//EN" "http://www.w3.org/Graphics/SVG/1.1/DTD/svg11.dtd">
<svg version="1.1" xmlns="http://www.w3.org/2000/svg" xmlns:xlink="http://www.w3.org/1999/xlink" x="0px" y="0px"
	 width="390.54px" height="390.541px" viewBox="0 0 390.54 390.541" enable-background="new 0 0 390.54 390.541"
	 xml:space="preserve">
<g id="Layer_2">
	<linearGradient id="SVGID_1_" gradientUnits="userSpaceOnUse" x1="195.9604" y1="124.0913" x2="195.9604" y2="-0.4546">
		<stop  offset="0" style="stop-color:#FFFFFF;stop-opacity:0"/>
		<stop  offset="0.0523" style="stop-color:#FEEDAE;stop-opacity:0.1856"/>
		<stop  offset="0.1046" style="stop-color:#FEDD64;stop-opacity:0.3712"/>
		<stop  offset="0.1476" style="stop-color:#FDD22E;stop-opacity:0.5241"/>
		<stop  offset="0.1797" style="stop-color:#FDCB0D;stop-opacity:0.6379"/>
		<stop  offset="0.1972" style="stop-color:#FDC800;stop-opacity:0.7"/>
		<stop  offset="0.6798" style="stop-color:#FDC801"/>
		<stop  offset="0.7495" style="stop-color:#F8B116"/>
		<stop  offset="0.8296" style="stop-color:#F49E27"/>
		<stop  offset="0.9121" style="stop-color:#F29331"/>
		<stop  offset="1" style="stop-color:#F18F34"/>
	</linearGradient>
	<path fill="url(#SVGID_1_)" d="M205.647,124.546c0.385-9.678-5.404-20.078-5.404-30.91c0-21.966,14.137-42.166,12.693-58.137
		C210.979,13.872,198.956,0,195.562,0c-3.385,0,2.597,13.801,0.641,35.333c-1.455,15.997-17.322,36.26-17.322,58.303
		c0,10.832,6.21,21.232,6.597,30.91H205.647z"/>
	
		<linearGradient id="SVGID_2_" gradientUnits="userSpaceOnUse" x1="192.2515" y1="123.5039" x2="192.2515" y2="-1.042" gradientTransform="matrix(0.9511 -0.309 0.309 0.9511 -47.0765 69.3119)">
		<stop  offset="0" style="stop-color:#FFFFFF;stop-opacity:0"/>
		<stop  offset="0.0523" style="stop-color:#FEEDAE;stop-opacity:0.1856"/>
		<stop  offset="0.1046" style="stop-color:#FEDD64;stop-opacity:0.3712"/>
		<stop  offset="0.1476" style="stop-color:#FDD22E;stop-opacity:0.5241"/>
		<stop  offset="0.1797" style="stop-color:#FDCB0D;stop-opacity:0.6379"/>
		<stop  offset="0.1972" style="stop-color:#FDC800;stop-opacity:0.7"/>
		<stop  offset="0.6798" style="stop-color:#FDC801"/>
		<stop  offset="0.7495" style="stop-color:#F8B116"/>
		<stop  offset="0.8296" style="stop-color:#F49E27"/>
		<stop  offset="0.9121" style="stop-color:#F29331"/>
		<stop  offset="1" style="stop-color:#F18F34"/>
	</linearGradient>
	<path fill="url(#SVGID_2_)" d="M183.284,124.801c-2.624-9.323-11.344-17.425-14.691-27.727
		c-6.788-20.891,0.416-44.472-5.894-59.214c-8.544-19.965-24.266-29.442-27.493-28.394c-3.22,1.046,6.734,12.323,11.528,33.406
		c3.56,15.663-5.271,39.839,1.541,60.803c3.348,10.302,12.468,18.273,15.826,27.358L183.284,124.801z"/>
	
		<linearGradient id="SVGID_3_" gradientUnits="userSpaceOnUse" x1="188.9043" y1="121.7993" x2="188.9043" y2="-2.7466" gradientTransform="matrix(0.809 -0.5878 0.5878 0.809 -70.4297 149.7777)">
		<stop  offset="0" style="stop-color:#FFFFFF;stop-opacity:0"/>
		<stop  offset="0.0523" style="stop-color:#FEEDAE;stop-opacity:0.1856"/>
		<stop  offset="0.1046" style="stop-color:#FEDD64;stop-opacity:0.3712"/>
		<stop  offset="0.1476" style="stop-color:#FDD22E;stop-opacity:0.5241"/>
		<stop  offset="0.1797" style="stop-color:#FDCB0D;stop-opacity:0.6379"/>
		<stop  offset="0.1972" style="stop-color:#FDC800;stop-opacity:0.7"/>
		<stop  offset="0.6798" style="stop-color:#FDC801"/>
		<stop  offset="0.7495" style="stop-color:#F8B116"/>
		<stop  offset="0.8296" style="stop-color:#F49E27"/>
		<stop  offset="0.9121" style="stop-color:#F29331"/>
		<stop  offset="1" style="stop-color:#F18F34"/>
	</linearGradient>
	<path fill="url(#SVGID_3_)" d="M162.095,131.954c-5.377-8.057-16.173-13.067-22.541-21.83
		c-12.911-17.771-13.347-42.423-23.903-54.495c-14.295-16.347-32.176-20.502-34.921-18.507c-2.739,1.989,10.213,9.639,21.286,28.208
		c8.227,13.796,7.299,39.518,20.256,57.35c6.367,8.764,17.504,13.527,23.505,21.129L162.095,131.954z"/>
	
		<linearGradient id="SVGID_4_" gradientUnits="userSpaceOnUse" x1="186.2505" y1="119.145" x2="186.2505" y2="-5.4009" gradientTransform="matrix(0.5878 -0.809 0.809 0.5878 -67.7744 233.5231)">
		<stop  offset="0" style="stop-color:#FFFFFF;stop-opacity:0"/>
		<stop  offset="0.0523" style="stop-color:#FEEDAE;stop-opacity:0.1856"/>
		<stop  offset="0.1046" style="stop-color:#FEDD64;stop-opacity:0.3712"/>
		<stop  offset="0.1476" style="stop-color:#FDD22E;stop-opacity:0.5241"/>
		<stop  offset="0.1797" style="stop-color:#FDCB0D;stop-opacity:0.6379"/>
		<stop  offset="0.1972" style="stop-color:#FDC800;stop-opacity:0.7"/>
		<stop  offset="0.6798" style="stop-color:#FDC801"/>
		<stop  offset="0.7495" style="stop-color:#F8B116"/>
		<stop  offset="0.8296" style="stop-color:#F49E27"/>
		<stop  offset="0.9121" style="stop-color:#F29331"/>
		<stop  offset="1" style="stop-color:#F18F34"/>
	</linearGradient>
	<path fill="url(#SVGID_4_)" d="M144.152,145.305c-7.604-6.001-19.419-7.43-28.184-13.796
		c-17.771-12.911-25.803-36.223-39.573-44.441c-18.646-11.129-36.937-9.556-38.931-6.811c-1.99,2.739,12.691,6.011,28.961,20.25
		c12.088,10.579,19.153,35.328,36.986,48.283c8.764,6.368,20.828,7.456,28.884,12.832L144.152,145.305z"/>
	
		<linearGradient id="SVGID_5_" gradientUnits="userSpaceOnUse" x1="184.5449" y1="115.7993" x2="184.5449" y2="-8.7476" gradientTransform="matrix(0.309 -0.9511 0.9511 0.309 -39.3704 312.3488)">
		<stop  offset="0" style="stop-color:#FFFFFF;stop-opacity:0"/>
		<stop  offset="0.0523" style="stop-color:#FEEDAE;stop-opacity:0.1856"/>
		<stop  offset="0.1046" style="stop-color:#FEDD64;stop-opacity:0.3712"/>
		<stop  offset="0.1476" style="stop-color:#FDD22E;stop-opacity:0.5241"/>
		<stop  offset="0.1797" style="stop-color:#FDCB0D;stop-opacity:0.6379"/>
		<stop  offset="0.1972" style="stop-color:#FDC800;stop-opacity:0.7"/>
		<stop  offset="0.6798" style="stop-color:#FDC801"/>
		<stop  offset="0.7495" style="stop-color:#F8B116"/>
		<stop  offset="0.8296" style="stop-color:#F49E27"/>
		<stop  offset="0.9121" style="stop-color:#F29331"/>
		<stop  offset="1" style="stop-color:#F18F34"/>
	</linearGradient>
	<path fill="url(#SVGID_5_)" d="M131.214,163.547c-9.086-3.358-20.765-1.065-31.067-4.412
		c-20.891-6.787-35.733-26.476-51.369-30.037c-21.174-4.823-38.082,2.326-39.13,5.553c-1.047,3.22,13.928,1.795,33.801,10.31
		c14.766,6.326,29.133,27.681,50.097,34.491c10.303,3.348,22.113,0.655,31.436,3.278L131.214,163.547z"/>
	
		<linearGradient id="SVGID_6_" gradientUnits="userSpaceOnUse" x1="183.96" y1="112.0903" x2="183.96" y2="-12.4556" gradientTransform="matrix(-2.980232e-008 -1 1 -2.980232e-008 12.0015 378.54)">
		<stop  offset="0" style="stop-color:#FFFFFF;stop-opacity:0"/>
		<stop  offset="0.0523" style="stop-color:#FEEDAE;stop-opacity:0.1856"/>
		<stop  offset="0.1046" style="stop-color:#FEDD64;stop-opacity:0.3712"/>
		<stop  offset="0.1476" style="stop-color:#FDD22E;stop-opacity:0.5241"/>
		<stop  offset="0.1797" style="stop-color:#FDCB0D;stop-opacity:0.6379"/>
		<stop  offset="0.1972" style="stop-color:#FDC800;stop-opacity:0.7"/>
		<stop  offset="0.6798" style="stop-color:#FDC801"/>
		<stop  offset="0.7495" style="stop-color:#F8B116"/>
		<stop  offset="0.8296" style="stop-color:#F49E27"/>
		<stop  offset="0.9121" style="stop-color:#F29331"/>
		<stop  offset="1" style="stop-color:#F18F34"/>
	</linearGradient>
	<path fill="url(#SVGID_6_)" d="M124.546,184.894c-9.679-0.385-20.078,5.404-30.91,5.404c-21.966,0.001-42.166-14.138-58.138-12.692
		C13.871,179.563-0.001,191.586,0,194.979c-0.001,3.386,13.801-2.597,35.332-0.64c15.998,1.454,36.261,17.324,58.304,17.322
		c10.833,0,21.233-6.21,30.91-6.596V184.894z"/>
	
		<linearGradient id="SVGID_7_" gradientUnits="userSpaceOnUse" x1="184.5474" y1="108.3809" x2="184.5474" y2="-16.165" gradientTransform="matrix(-0.309 -0.9511 0.9511 -0.309 81.3134 425.6165)">
		<stop  offset="0" style="stop-color:#FFFFFF;stop-opacity:0"/>
		<stop  offset="0.0523" style="stop-color:#FEEDAE;stop-opacity:0.1856"/>
		<stop  offset="0.1046" style="stop-color:#FEDD64;stop-opacity:0.3712"/>
		<stop  offset="0.1476" style="stop-color:#FDD22E;stop-opacity:0.5241"/>
		<stop  offset="0.1797" style="stop-color:#FDCB0D;stop-opacity:0.6379"/>
		<stop  offset="0.1972" style="stop-color:#FDC800;stop-opacity:0.7"/>
		<stop  offset="0.6798" style="stop-color:#FDC801"/>
		<stop  offset="0.7495" style="stop-color:#F8B116"/>
		<stop  offset="0.8296" style="stop-color:#F49E27"/>
		<stop  offset="0.9121" style="stop-color:#F29331"/>
		<stop  offset="1" style="stop-color:#F18F34"/>
	</linearGradient>
	<path fill="url(#SVGID_7_)" d="M124.801,207.257c-9.324,2.625-17.426,11.344-27.728,14.691
		c-20.891,6.789-44.472-0.416-59.214,5.895c-19.964,8.544-29.441,24.266-28.393,27.492c1.046,3.221,12.323-6.734,33.405-11.526
		c15.664-3.562,39.839,5.271,60.803-1.543c10.303-3.348,18.275-12.468,27.358-15.825L124.801,207.257z"/>
	
		<linearGradient id="SVGID_8_" gradientUnits="userSpaceOnUse" x1="186.2515" y1="105.0342" x2="186.2515" y2="-19.5117" gradientTransform="matrix(-0.5878 -0.809 0.809 -0.5878 161.7806 448.9698)">
		<stop  offset="0" style="stop-color:#FFFFFF;stop-opacity:0"/>
		<stop  offset="0.0523" style="stop-color:#FEEDAE;stop-opacity:0.1856"/>
		<stop  offset="0.1046" style="stop-color:#FEDD64;stop-opacity:0.3712"/>
		<stop  offset="0.1476" style="stop-color:#FDD22E;stop-opacity:0.5241"/>
		<stop  offset="0.1797" style="stop-color:#FDCB0D;stop-opacity:0.6379"/>
		<stop  offset="0.1972" style="stop-color:#FDC800;stop-opacity:0.7"/>
		<stop  offset="0.6798" style="stop-color:#FDC801"/>
		<stop  offset="0.7495" style="stop-color:#F8B116"/>
		<stop  offset="0.8296" style="stop-color:#F49E27"/>
		<stop  offset="0.9121" style="stop-color:#F29331"/>
		<stop  offset="1" style="stop-color:#F18F34"/>
	</linearGradient>
	<path fill="url(#SVGID_8_)" d="M131.953,228.446c-8.057,5.379-13.066,16.174-21.83,22.541
		c-17.771,12.912-42.424,13.347-54.494,23.904c-16.347,14.295-20.502,32.176-18.508,34.92c1.99,2.74,9.64-10.213,28.209-21.285
		c13.797-8.228,39.518-7.298,57.35-20.256c8.765-6.368,13.528-17.506,21.129-23.505L131.953,228.446z"/>
	
		<linearGradient id="SVGID_9_" gradientUnits="userSpaceOnUse" x1="188.9072" y1="102.3809" x2="188.9072" y2="-22.1646" gradientTransform="matrix(-0.809 -0.5878 0.5878 -0.809 245.5255 446.3155)">
		<stop  offset="0" style="stop-color:#FFFFFF;stop-opacity:0"/>
		<stop  offset="0.0523" style="stop-color:#FEEDAE;stop-opacity:0.1856"/>
		<stop  offset="0.1046" style="stop-color:#FEDD64;stop-opacity:0.3712"/>
		<stop  offset="0.1476" style="stop-color:#FDD22E;stop-opacity:0.5241"/>
		<stop  offset="0.1797" style="stop-color:#FDCB0D;stop-opacity:0.6379"/>
		<stop  offset="0.1972" style="stop-color:#FDC800;stop-opacity:0.7"/>
		<stop  offset="0.6798" style="stop-color:#FDC801"/>
		<stop  offset="0.7495" style="stop-color:#F8B116"/>
		<stop  offset="0.8296" style="stop-color:#F49E27"/>
		<stop  offset="0.9121" style="stop-color:#F29331"/>
		<stop  offset="1" style="stop-color:#F18F34"/>
	</linearGradient>
	<path fill="url(#SVGID_9_)" d="M145.304,246.389c-6,7.605-7.429,19.42-13.796,28.184c-12.911,17.771-36.224,25.804-44.44,39.574
		c-11.129,18.646-9.556,36.937-6.811,38.93c2.739,1.991,6.012-12.691,20.251-28.96c10.578-12.089,35.328-19.152,48.283-36.986
		c6.367-8.766,7.456-20.83,12.831-28.884L145.304,246.389z"/>
	
		<linearGradient id="SVGID_10_" gradientUnits="userSpaceOnUse" x1="192.2515" y1="100.6738" x2="192.2515" y2="-23.8721" gradientTransform="matrix(-0.9511 -0.309 0.309 -0.9511 324.3517 417.9085)">
		<stop  offset="0" style="stop-color:#FFFFFF;stop-opacity:0"/>
		<stop  offset="0.0523" style="stop-color:#FEEDAE;stop-opacity:0.1856"/>
		<stop  offset="0.1046" style="stop-color:#FEDD64;stop-opacity:0.3712"/>
		<stop  offset="0.1476" style="stop-color:#FDD22E;stop-opacity:0.5241"/>
		<stop  offset="0.1797" style="stop-color:#FDCB0D;stop-opacity:0.6379"/>
		<stop  offset="0.1972" style="stop-color:#FDC800;stop-opacity:0.7"/>
		<stop  offset="0.6798" style="stop-color:#FDC801"/>
		<stop  offset="0.7495" style="stop-color:#F8B116"/>
		<stop  offset="0.8296" style="stop-color:#F49E27"/>
		<stop  offset="0.9121" style="stop-color:#F29331"/>
		<stop  offset="1" style="stop-color:#F18F34"/>
	</linearGradient>
	<path fill="url(#SVGID_10_)" d="M163.546,259.327c-3.356,9.088-1.064,20.766-4.411,31.067
		c-6.788,20.892-26.478,35.735-30.037,51.37c-4.822,21.174,2.326,38.082,5.553,39.129c3.221,1.048,1.796-13.928,10.311-33.801
		c6.325-14.766,27.682-29.131,34.49-50.096c3.348-10.305,0.655-22.114,3.278-31.436L163.546,259.327z"/>
	
		<linearGradient id="SVGID_11_" gradientUnits="userSpaceOnUse" x1="195.9634" y1="100.0898" x2="195.9634" y2="-24.4561" gradientTransform="matrix(-1 0 0 -1 390.5439 366.5391)">
		<stop  offset="0" style="stop-color:#FFFFFF;stop-opacity:0"/>
		<stop  offset="0.0523" style="stop-color:#FEEDAE;stop-opacity:0.1856"/>
		<stop  offset="0.1046" style="stop-color:#FEDD64;stop-opacity:0.3712"/>
		<stop  offset="0.1476" style="stop-color:#FDD22E;stop-opacity:0.5241"/>
		<stop  offset="0.1797" style="stop-color:#FDCB0D;stop-opacity:0.6379"/>
		<stop  offset="0.1972" style="stop-color:#FDC800;stop-opacity:0.7"/>
		<stop  offset="0.6798" style="stop-color:#FDC801"/>
		<stop  offset="0.7495" style="stop-color:#F8B116"/>
		<stop  offset="0.8296" style="stop-color:#F49E27"/>
		<stop  offset="0.9121" style="stop-color:#F29331"/>
		<stop  offset="1" style="stop-color:#F18F34"/>
	</linearGradient>
	<path fill="url(#SVGID_11_)" d="M184.893,265.995c-0.383,9.681,5.405,20.078,5.405,30.91c0.001,21.967-14.139,42.168-12.692,58.138
		c1.957,21.628,13.98,35.5,17.373,35.498c3.388,0.001-2.595-13.801-0.639-35.333c1.452-15.997,17.324-36.259,17.32-58.301
		c0-10.836-6.209-21.235-6.596-30.91L184.893,265.995z"/>
	
		<linearGradient id="SVGID_12_" gradientUnits="userSpaceOnUse" x1="199.6709" y1="100.6768" x2="199.6709" y2="-23.8701" gradientTransform="matrix(-0.9511 0.309 -0.309 -0.9511 437.6185 297.2262)">
		<stop  offset="0" style="stop-color:#FFFFFF;stop-opacity:0"/>
		<stop  offset="0.0523" style="stop-color:#FEEDAE;stop-opacity:0.1856"/>
		<stop  offset="0.1046" style="stop-color:#FEDD64;stop-opacity:0.3712"/>
		<stop  offset="0.1476" style="stop-color:#FDD22E;stop-opacity:0.5241"/>
		<stop  offset="0.1797" style="stop-color:#FDCB0D;stop-opacity:0.6379"/>
		<stop  offset="0.1972" style="stop-color:#FDC800;stop-opacity:0.7"/>
		<stop  offset="0.6798" style="stop-color:#FDC801"/>
		<stop  offset="0.7495" style="stop-color:#F8B116"/>
		<stop  offset="0.8296" style="stop-color:#F49E27"/>
		<stop  offset="0.9121" style="stop-color:#F29331"/>
		<stop  offset="1" style="stop-color:#F18F34"/>
	</linearGradient>
	<path fill="url(#SVGID_12_)" d="M207.255,265.74c2.627,9.325,11.346,17.426,14.693,27.728c6.789,20.892-0.416,44.473,5.893,59.214
		c8.545,19.965,24.268,29.442,27.494,28.393c3.221-1.046-6.734-12.323-11.527-33.406c-3.563-15.663,5.271-39.838-1.543-60.8
		c-3.348-10.306-12.469-18.277-15.824-27.359L207.255,265.74z"/>
	
		<linearGradient id="SVGID_13_" gradientUnits="userSpaceOnUse" x1="203.0117" y1="102.3799" x2="203.0117" y2="-22.167" gradientTransform="matrix(-0.809 0.5878 -0.5878 -0.809 460.9698 216.7604)">
		<stop  offset="0" style="stop-color:#FFFFFF;stop-opacity:0"/>
		<stop  offset="0.0523" style="stop-color:#FEEDAE;stop-opacity:0.0796"/>
		<stop  offset="0.1046" style="stop-color:#FEDD64;stop-opacity:0.1591"/>
		<stop  offset="0.1476" style="stop-color:#FDD22E;stop-opacity:0.2246"/>
		<stop  offset="0.1797" style="stop-color:#FDCB0D;stop-opacity:0.2734"/>
		<stop  offset="0.1972" style="stop-color:#FDC800;stop-opacity:0.3"/>
		<stop  offset="0.6798" style="stop-color:#FDC801"/>
		<stop  offset="0.7495" style="stop-color:#F8B116"/>
		<stop  offset="0.8296" style="stop-color:#F49E27"/>
		<stop  offset="0.9121" style="stop-color:#F29331"/>
		<stop  offset="1" style="stop-color:#F18F34"/>
	</linearGradient>
	<path fill="url(#SVGID_13_)" d="M228.444,258.588c5.381,8.057,16.176,13.067,22.543,21.83
		c12.912,17.771,13.346,42.425,23.902,54.494c14.297,16.348,32.178,20.503,34.922,18.507c2.74-1.989-10.213-9.639-21.287-28.208
		c-8.229-13.796-7.295-39.518-20.254-57.349c-6.369-8.766-17.508-13.529-23.504-21.13L228.444,258.588z"/>
	
		<linearGradient id="SVGID_14_" gradientUnits="userSpaceOnUse" x1="205.668" y1="105.0361" x2="205.668" y2="-19.5088" gradientTransform="matrix(-0.5878 0.809 -0.809 -0.5878 458.3135 133.015)">
		<stop  offset="0" style="stop-color:#FFFFFF;stop-opacity:0"/>
		<stop  offset="0.0523" style="stop-color:#FEEDAE;stop-opacity:0.1856"/>
		<stop  offset="0.1046" style="stop-color:#FEDD64;stop-opacity:0.3712"/>
		<stop  offset="0.1476" style="stop-color:#FDD22E;stop-opacity:0.5241"/>
		<stop  offset="0.1797" style="stop-color:#FDCB0D;stop-opacity:0.6379"/>
		<stop  offset="0.1972" style="stop-color:#FDC800;stop-opacity:0.7"/>
		<stop  offset="0.6798" style="stop-color:#FDC801"/>
		<stop  offset="0.7495" style="stop-color:#F8B116"/>
		<stop  offset="0.8296" style="stop-color:#F49E27"/>
		<stop  offset="0.9121" style="stop-color:#F29331"/>
		<stop  offset="1" style="stop-color:#F18F34"/>
	</linearGradient>
	<path fill="url(#SVGID_14_)" d="M246.388,245.237c7.607,6,19.42,7.43,28.184,13.796c17.773,12.91,25.805,36.224,39.572,44.44
		c18.648,11.13,36.939,9.556,38.932,6.81c1.992-2.738-12.689-6.011-28.961-20.249c-12.088-10.578-19.15-35.329-36.984-48.283
		c-8.768-6.368-20.832-7.457-28.885-12.832L246.388,245.237z"/>
	
		<linearGradient id="SVGID_15_" gradientUnits="userSpaceOnUse" x1="207.3721" y1="108.3818" x2="207.3721" y2="-16.1631" gradientTransform="matrix(-0.309 0.9511 -0.9511 -0.309 429.9105 54.1898)">
		<stop  offset="0" style="stop-color:#FFFFFF;stop-opacity:0"/>
		<stop  offset="0.0523" style="stop-color:#FEEDAE;stop-opacity:0.1856"/>
		<stop  offset="0.1046" style="stop-color:#FEDD64;stop-opacity:0.3712"/>
		<stop  offset="0.1476" style="stop-color:#FDD22E;stop-opacity:0.5241"/>
		<stop  offset="0.1797" style="stop-color:#FDCB0D;stop-opacity:0.6379"/>
		<stop  offset="0.1972" style="stop-color:#FDC800;stop-opacity:0.7"/>
		<stop  offset="0.6798" style="stop-color:#FDC801"/>
		<stop  offset="0.7495" style="stop-color:#F8B116"/>
		<stop  offset="0.8296" style="stop-color:#F49E27"/>
		<stop  offset="0.9121" style="stop-color:#F29331"/>
		<stop  offset="1" style="stop-color:#F18F34"/>
	</linearGradient>
	<path fill="url(#SVGID_15_)" d="M259.325,226.996c9.09,3.354,20.768,1.064,31.068,4.411c20.893,6.786,35.734,26.477,51.369,30.036
		c21.176,4.823,38.084-2.326,39.129-5.554c1.049-3.22-13.926-1.795-33.799-10.309c-14.768-6.324-29.131-27.682-50.096-34.491
		c-10.307-3.347-22.117-0.654-31.436-3.278L259.325,226.996z"/>
	
		<linearGradient id="SVGID_16_" gradientUnits="userSpaceOnUse" x1="207.9619" y1="112.0879" x2="207.9619" y2="-12.457" gradientTransform="matrix(2.980232e-008 1 -1 2.980232e-008 378.5371 -12.001)">
		<stop  offset="0" style="stop-color:#FFFFFF;stop-opacity:0"/>
		<stop  offset="0.0523" style="stop-color:#FEEDAE;stop-opacity:0.1856"/>
		<stop  offset="0.1046" style="stop-color:#FEDD64;stop-opacity:0.3712"/>
		<stop  offset="0.1476" style="stop-color:#FDD22E;stop-opacity:0.5241"/>
		<stop  offset="0.1797" style="stop-color:#FDCB0D;stop-opacity:0.6379"/>
		<stop  offset="0.1972" style="stop-color:#FDC800;stop-opacity:0.7"/>
		<stop  offset="0.6798" style="stop-color:#FDC801"/>
		<stop  offset="0.7495" style="stop-color:#F8B116"/>
		<stop  offset="0.8296" style="stop-color:#F49E27"/>
		<stop  offset="0.9121" style="stop-color:#F29331"/>
		<stop  offset="1" style="stop-color:#F18F34"/>
	</linearGradient>
	<path fill="url(#SVGID_16_)" d="M265.995,205.649c9.68,0.381,20.078-5.405,30.91-5.406c21.967-0.002,42.166,14.139,58.135,12.693
		c21.631-1.957,35.502-13.981,35.5-17.374c0.002-3.386-13.799,2.597-35.332,0.641c-15.998-1.452-36.26-17.325-58.303-17.322
		c-10.834,0.001-21.236,6.212-30.908,6.596L265.995,205.649z"/>
	
		<linearGradient id="SVGID_17_" gradientUnits="userSpaceOnUse" x1="207.373" y1="115.7964" x2="207.373" y2="-8.75" gradientTransform="matrix(0.309 0.9511 -0.9511 0.309 309.2257 -59.0755)">
		<stop  offset="0" style="stop-color:#FFFFFF;stop-opacity:0"/>
		<stop  offset="0.0523" style="stop-color:#FEEDAE;stop-opacity:0.1856"/>
		<stop  offset="0.1046" style="stop-color:#FEDD64;stop-opacity:0.3712"/>
		<stop  offset="0.1476" style="stop-color:#FDD22E;stop-opacity:0.5241"/>
		<stop  offset="0.1797" style="stop-color:#FDCB0D;stop-opacity:0.6379"/>
		<stop  offset="0.1972" style="stop-color:#FDC800;stop-opacity:0.7"/>
		<stop  offset="0.6798" style="stop-color:#FDC801"/>
		<stop  offset="0.7495" style="stop-color:#F8B116"/>
		<stop  offset="0.8296" style="stop-color:#F49E27"/>
		<stop  offset="0.9121" style="stop-color:#F29331"/>
		<stop  offset="1" style="stop-color:#F18F34"/>
	</linearGradient>
	<path fill="url(#SVGID_17_)" d="M265.739,183.286c9.326-2.629,17.426-11.346,27.729-14.692c20.891-6.79,44.471,0.416,59.211-5.894
		c19.967-8.545,29.445-24.268,28.395-27.493c-1.045-3.222-12.322,6.733-33.404,11.526c-15.664,3.563-39.84-5.272-60.803,1.543
		c-10.305,3.349-18.277,12.469-27.357,15.824L265.739,183.286z"/>
	
		<linearGradient id="SVGID_18_" gradientUnits="userSpaceOnUse" x1="205.667" y1="119.1421" x2="205.667" y2="-5.4043" gradientTransform="matrix(0.5878 0.809 -0.809 0.5878 228.7594 -82.4287)">
		<stop  offset="0" style="stop-color:#FFFFFF;stop-opacity:0"/>
		<stop  offset="0.0523" style="stop-color:#FEEDAE;stop-opacity:0.1856"/>
		<stop  offset="0.1046" style="stop-color:#FEDD64;stop-opacity:0.3712"/>
		<stop  offset="0.1476" style="stop-color:#FDD22E;stop-opacity:0.5241"/>
		<stop  offset="0.1797" style="stop-color:#FDCB0D;stop-opacity:0.6379"/>
		<stop  offset="0.1972" style="stop-color:#FDC800;stop-opacity:0.7"/>
		<stop  offset="0.6798" style="stop-color:#FDC801"/>
		<stop  offset="0.7495" style="stop-color:#F8B116"/>
		<stop  offset="0.8296" style="stop-color:#F49E27"/>
		<stop  offset="0.9121" style="stop-color:#F29331"/>
		<stop  offset="1" style="stop-color:#F18F34"/>
	</linearGradient>
	<path fill="url(#SVGID_18_)" d="M258.587,162.097c8.057-5.382,13.066-16.175,21.83-22.542
		c17.771-12.914,42.424-13.347,54.492-23.902c16.35-14.297,20.506-32.179,18.51-34.922c-1.99-2.741-9.639,10.211-28.209,21.285
		c-13.795,8.229-39.518,7.296-57.35,20.256c-8.764,6.369-13.529,17.507-21.129,23.504L258.587,162.097z"/>
	
		<linearGradient id="SVGID_19_" gradientUnits="userSpaceOnUse" x1="203.0127" y1="121.7979" x2="203.0127" y2="-2.7471" gradientTransform="matrix(0.809 0.5878 -0.5878 0.809 145.0155 -79.7735)">
		<stop  offset="0" style="stop-color:#FFFFFF;stop-opacity:0"/>
		<stop  offset="0.0523" style="stop-color:#FEEDAE;stop-opacity:0.1856"/>
		<stop  offset="0.1046" style="stop-color:#FEDD64;stop-opacity:0.3712"/>
		<stop  offset="0.1476" style="stop-color:#FDD22E;stop-opacity:0.5241"/>
		<stop  offset="0.1797" style="stop-color:#FDCB0D;stop-opacity:0.6379"/>
		<stop  offset="0.1972" style="stop-color:#FDC800;stop-opacity:0.7"/>
		<stop  offset="0.6798" style="stop-color:#FDC801"/>
		<stop  offset="0.7495" style="stop-color:#F8B116"/>
		<stop  offset="0.8296" style="stop-color:#F49E27"/>
		<stop  offset="0.9121" style="stop-color:#F29331"/>
		<stop  offset="1" style="stop-color:#F18F34"/>
	</linearGradient>
	<path fill="url(#SVGID_19_)" d="M245.237,144.154c5.998-7.608,7.428-19.421,13.795-28.185
		c12.91-17.773,36.223-25.803,44.439-39.571c11.131-18.649,9.557-36.94,6.811-38.933c-2.738-1.992-6.01,12.689-20.248,28.96
		c-10.578,12.088-35.33,19.15-48.285,36.986c-6.367,8.767-7.457,20.832-12.83,28.883L245.237,144.154z"/>
	
		<linearGradient id="SVGID_20_" gradientUnits="userSpaceOnUse" x1="199.668" y1="123.501" x2="199.668" y2="-1.0439" gradientTransform="matrix(0.9511 0.309 -0.309 0.9511 66.1903 -51.3694)">
		<stop  offset="0" style="stop-color:#FFFFFF;stop-opacity:0"/>
		<stop  offset="0.0523" style="stop-color:#FEEDAE;stop-opacity:0.1856"/>
		<stop  offset="0.1046" style="stop-color:#FEDD64;stop-opacity:0.3712"/>
		<stop  offset="0.1476" style="stop-color:#FDD22E;stop-opacity:0.5241"/>
		<stop  offset="0.1797" style="stop-color:#FDCB0D;stop-opacity:0.6379"/>
		<stop  offset="0.1972" style="stop-color:#FDC800;stop-opacity:0.7"/>
		<stop  offset="0.6798" style="stop-color:#FDC801"/>
		<stop  offset="0.7495" style="stop-color:#F8B116"/>
		<stop  offset="0.8296" style="stop-color:#F49E27"/>
		<stop  offset="0.9121" style="stop-color:#F29331"/>
		<stop  offset="1" style="stop-color:#F18F34"/>
	</linearGradient>
	<path fill="url(#SVGID_20_)" d="M226.997,131.215c3.352-9.089,1.063-20.766,4.41-31.068c6.785-20.893,26.475-35.734,30.035-51.367
		c4.824-21.176-2.326-38.086-5.553-39.132c-3.221-1.048-1.795,13.926-10.309,33.8c-6.324,14.765-27.684,29.13-34.492,50.096
		c-3.346,10.305-0.654,22.117-3.277,31.435L226.997,131.215z"/>
	<circle id="Sun" fill="#FDC801" cx="195.271" cy="195.272" r="90"/>
</g>
<g id="Layer_3">
	<path fill="#DADADA" d="M180.075,261.245c-5.892-12.134-17.8-20.313-31.358-20.016c-0.766,0.017-1.522,0.07-2.274,0.14
		c-8.298-14.299-23.332-23.706-40.309-23.333c-19.167,0.419-35.323,13.177-41.865,30.959c-1.159-0.102-2.333-0.141-3.52-0.114
		c-14.77,0.323-27.145,10.605-31.737,24.771c-0.048,0-0.096-0.002-0.145-0.001C15.64,273.939,5.16,285.258,5.459,298.93
		c0.3,13.672,11.265,24.521,24.493,24.232c5.369-0.118,10.284-2.054,14.211-5.225c5.335,3.385,11.575,5.273,18.211,5.128
		c6.744-0.147,12.984-2.379,18.218-6.101c6.45,7.146,15.524,11.512,25.491,11.293c11.812-0.258,22.091-6.889,28.085-16.778
		c4.861,2.628,10.364,4.063,16.173,3.936c7.688-0.168,14.727-3.037,20.358-7.744c2.997,1.433,6.331,2.2,9.831,2.124
		c12.604-0.276,22.583-11.368,22.29-24.776C202.532,271.828,192.407,261.319,180.075,261.245z"/>
	<path fill="#C8C8C8" d="M362.237,171.838c-3.607,0-7.054,0.72-10.227,2.02c-3.865-2.894-8.265-5.032-13.014-6.217
		c-3.859-11.659-14.361-20.025-26.719-20.025c-0.169,0-0.335,0.01-0.503,0.013c-9.196-8.708-21.74-14.08-35.579-14.08
		c-11.175,0-21.504,3.507-29.911,9.439c-3.471-0.811-7.104-1.245-10.846-1.245c-14.741,0-27.789,6.683-35.83,16.95
		c-2.682-0.688-5.501-1.062-8.417-1.062c-17.551,0-31.78,13.301-31.78,29.709c0,9.71,4.984,18.332,12.69,23.752
		c-0.021,0.48-0.043,0.961-0.043,1.446c0,20.961,19.962,37.95,44.585,37.95c12.998,0,24.694-4.737,32.844-12.29
		c7.444,4.747,16.689,7.56,26.707,7.56c11.216,0,21.456-3.533,29.292-9.353c6.63,6.207,15.331,9.98,24.867,9.98
		c11.85,0,22.414-5.82,29.308-14.907c0.849,0.081,1.706,0.129,2.574,0.129c15.631,0,28.303-13.379,28.303-29.885
		S377.868,171.838,362.237,171.838z"/>
	<path opacity="0.05" fill="#312783" d="M202.82,284.979c-0.132-6.05-2.338-11.532-5.873-15.706
		c-1.596,31.042-25.677,29.432-25.677,29.432c-13.182,14.564-40.057,4.331-40.057,4.331c-30.057,23.896-50.855-2.771-50.855-2.771
		c-18.639,9.307-36.361-1.555-36.361-1.555c-28.212,7.1-34.401-14.28-34.402-14.283c-2.71,4.113-4.254,9.105-4.137,14.463
		c0.3,13.672,11.265,24.521,24.493,24.232c5.369-0.118,10.284-2.054,14.211-5.225c5.335,3.385,11.575,5.273,18.211,5.128
		c6.744-0.147,12.984-2.379,18.218-6.101c6.45,7.146,15.524,11.512,25.491,11.293c11.812-0.258,22.091-6.889,28.085-16.778
		c4.86,2.628,10.364,4.063,16.173,3.936c7.688-0.168,14.727-3.037,20.359-7.744c2.996,1.433,6.33,2.2,9.83,2.124
		C193.135,309.479,203.113,298.388,202.82,284.979z"/>
	<path opacity="0.3" fill="#F6F6F6" d="M196.627,269.427c-4.17-4.895-10.176-7.973-16.826-8.012
		c-5.892-12.135-17.801-20.313-31.358-20.016c-0.766,0.016-1.522,0.07-2.274,0.139c-8.299-14.299-23.332-23.705-40.309-23.332
		c-19.167,0.418-35.323,13.176-41.865,30.959c-1.159-0.102-2.333-0.141-3.52-0.115c-14.77,0.324-27.145,10.605-31.737,24.771
		c-0.048,0-0.096-0.002-0.145-0.002c-8.001,0.176-14.991,4.389-19.205,10.715c0.683-0.641,8.582-7.729,21.608-6.041
		c0,0,12.387-34.125,36.818-22.361c0,0,27.158-62.369,77.215-9.576c0,0,21.436-3.271,33.576,19.607
		C178.605,266.163,181.436,264.087,196.627,269.427z"/>
	<path opacity="0.05" fill="#312783" d="M353.882,224.462c-17.056,22.857-49.611,3.982-49.611,3.982
		c-22.667,20.84-57.538,0.473-57.538,0.473c-42.205,27.313-74.629-17.824-74.629-17.824c-0.021,0.48-0.043,0.961-0.043,1.446
		c0,20.961,19.962,37.95,44.585,37.95c12.998,0,24.694-4.737,32.844-12.29c7.444,4.747,16.689,7.56,26.707,7.56
		c11.216,0,21.456-3.533,29.292-9.353c6.63,6.207,15.331,9.98,24.867,9.98c11.85,0,22.414-5.82,29.308-14.907
		c0.849,0.081,1.706,0.129,2.574,0.129c15.631,0,28.303-13.379,28.303-29.885c0-2.217-0.235-4.374-0.669-6.453
		C384.805,224.937,353.882,224.462,353.882,224.462z"/>
	<path opacity="0.3" fill="#FFFFFF" d="M389.772,192.019c-3.816-11.74-14.355-20.181-26.768-20.181c-3.607,0-7.054,0.72-10.227,2.02
		c-3.865-2.894-8.265-5.032-13.014-6.218c-3.859-11.658-14.361-20.025-26.719-20.025c-0.169,0-0.335,0.011-0.503,0.014
		c-9.196-8.709-21.74-14.08-35.579-14.08c-11.175,0-21.504,3.508-29.911,9.439c-3.471-0.811-7.104-1.245-10.846-1.245
		c-14.741,0-27.789,6.683-35.83,16.95c-2.682-0.688-5.501-1.062-8.417-1.062c-17.551,0-31.78,13.302-31.78,29.71
		c0,9.71,4.984,18.331,12.69,23.752c0,0-16.722-39.174,30.723-48.998c0,0,31.13-24.318,43.906-11.157
		c0,0,33.539-22.341,58.872,4.163c0,0,20,1.857,28,21.514c0,0,8,0.572,16,6.114C350.372,182.729,378.508,177.767,389.772,192.019z"
		/>
</g>
</svg>
